<svg width="414" height="203" viewBox="0 0 414 203" fill="none" xmlns="http://www.w3.org/2000/svg">
<path d="M213.581 127.333C213.469 127.922 213.388 128.339 213.264 128.982C213.917 128.715 214.322 128.55 214.911 128.308C214.399 127.933 214.051 127.678 213.581 127.333ZM228.554 69.5046C228.601 69.4167 228.648 69.3288 228.696 69.2409C228.319 68.862 227.942 68.4826 227.398 67.9365C227.298 68.6128 227.24 69.0134 227.169 69.5046H228.554ZM185.249 58.5996C184.503 58.673 183.964 58.7266 183.158 58.8059C183.782 59.3705 184.175 59.7268 184.67 60.1751C184.883 59.5959 185.032 59.1893 185.249 58.5996ZM134.151 111.96C134.197 112.055 134.243 112.149 134.288 112.244C134.703 112.18 135.319 112.255 135.483 112.017C135.703 111.697 135.575 111.137 135.597 110.68C135.497 110.652 135.398 110.625 135.298 110.597L134.151 111.96ZM154.841 69.4564H157.351C156.74 68.8918 156.349 68.5288 155.894 68.109C155.545 68.5559 155.265 68.9143 154.841 69.4564ZM114.389 128.319C113.554 127.715 112.954 127.282 112.353 126.849C112.281 126.907 112.209 126.964 112.137 127.022C112.316 127.643 112.494 128.263 112.697 128.968C113.265 128.751 113.681 128.59 114.389 128.319ZM312.943 111.695C312.871 111.832 312.633 112.099 312.69 112.198C313.423 113.472 314.742 113.923 316.061 114.391C315.046 113.513 314.031 112.635 312.943 111.695ZM166.239 69.4993H168.801C168.829 69.42 168.856 69.3407 168.883 69.262C168.103 68.8541 167.323 68.4475 166.409 67.9702C166.345 68.5454 166.303 68.9248 166.239 69.4993ZM179.018 69.457H181.898C181.177 68.7285 180.675 68.2214 180.085 67.6264C179.682 68.3186 179.398 68.8052 179.018 69.457ZM285.702 114.118C285.717 114.228 285.733 114.338 285.748 114.447C287.026 114.358 288.302 114.269 289.774 114.167C288.292 112.653 287.393 112.692 285.702 114.118ZM65.5552 87.8246C65.5288 87.9139 65.503 88.0018 65.4765 88.0911C66.3045 88.7674 67.1325 89.4437 68.1873 90.3058C68.1873 89.4913 68.2217 88.9009 68.1668 88.3185C68.1496 88.142 67.8957 87.859 67.7343 87.8471C67.0115 87.7955 66.282 87.8246 65.5552 87.8246ZM276.035 70.5836C276.029 70.5194 276.022 70.4553 276.016 70.3918H271.01C271.105 70.887 271.109 71.3366 271.293 71.6936C271.402 71.9064 271.853 72.1451 272.05 72.0783C273.393 71.6235 274.71 71.0913 276.035 70.5836ZM164.017 65.9968C163.507 67.196 163.019 68.3411 162.467 69.6402C163.53 69.2746 164.85 70.2953 165.507 69.0227C166.16 67.7573 165.62 66.9342 164.017 65.9968ZM251.085 112.213C251.123 112.101 251.159 111.989 251.197 111.876C249.844 110.873 248.491 109.869 246.962 108.733C246.895 109.927 246.815 110.779 246.823 111.631C246.825 111.826 247.122 112.181 247.294 112.187C248.556 112.235 249.821 112.213 251.085 112.213ZM287.033 115.15C288.368 116.684 290.464 117.128 290.993 119.287C291.815 118.349 292.532 117.53 293.211 116.754C291.553 114.559 289.427 114.703 287.033 115.15ZM243.038 143.524C243.75 143.987 244.224 144.558 244.689 144.551C246.733 144.52 248.776 144.322 250.818 144.184C250.844 144.067 250.87 143.95 250.896 143.833C249.934 143.113 248.977 142.384 248 141.686C247.856 141.583 247.573 141.548 247.411 141.616C246.032 142.196 244.667 142.807 243.038 143.524ZM157.515 57.9154C157.232 55.5162 156.952 53.1303 156.682 50.8257C155.611 52.4467 155.524 54.8968 153.273 55.7681C154.055 57.8447 155.833 57.9022 157.515 57.9154ZM158.267 61.9415C158.271 60.4924 157.25 59.3355 155.986 59.3546C154.72 59.3751 153.604 60.6821 153.59 62.1643C153.575 63.6135 154.58 64.7956 155.838 64.8114C157.176 64.828 158.263 63.5434 158.267 61.9415ZM207.451 117.356C207.42 117.438 207.389 117.52 207.358 117.602C208.905 118.807 210.452 120.011 212.069 121.27C213.68 120.036 215.326 118.777 217.181 117.356H207.451ZM182.819 61.8906C182.8 60.5017 181.804 59.3738 180.579 59.3553C179.219 59.3354 178.113 60.6841 178.149 62.3171C178.18 63.716 179.203 64.8346 180.422 64.8048C181.755 64.7724 182.84 63.4535 182.819 61.8906ZM213.467 61.9422C213.477 60.4937 212.452 59.3348 211.183 59.3559C209.939 59.3764 208.792 60.7053 208.758 62.1643C208.726 63.5381 209.815 64.8041 211.034 64.8127C212.383 64.822 213.457 63.5533 213.467 61.9422ZM246.591 61.9567C246.606 60.5334 245.556 59.3401 244.3 59.3546C243.008 59.3698 241.926 60.6266 241.896 62.1452C241.868 63.6075 242.844 64.7764 244.118 64.8048C245.435 64.8346 246.576 63.5203 246.591 61.9567ZM110.781 121.777C113.113 120.017 115.202 118.439 117.292 116.862C117.297 116.766 117.302 116.669 117.306 116.572C115.329 117.042 113.844 116.199 112.527 114.974C111.676 114.183 110.7 114.174 109.496 114.317C109.918 116.769 110.328 119.147 110.781 121.777ZM125.415 87.5529C125.212 87.3731 125.085 87.2515 124.949 87.1404C123.302 85.7977 123.269 85.7521 121.541 86.9626C120.459 87.7195 119.347 88.0441 118.027 88.0058C115.553 87.9337 113.074 87.9721 110.598 88.0025C110.298 88.0064 109.76 88.2246 109.75 88.3747C109.723 88.7423 109.825 89.3095 110.08 89.4675C110.59 89.7835 111.244 90.0625 111.823 90.0347C115.509 89.8562 119.189 89.5554 122.874 89.3723C124.13 89.3095 124.787 88.6034 125.415 87.5529ZM155.942 88.7515C154.792 88.2127 154.233 88.7647 153.664 89.4212C148.097 95.8426 142.549 102.28 136.914 108.642C135.962 109.716 136.287 110.741 136.398 111.846C136.411 111.972 136.628 112.172 136.754 112.175C137.901 112.2 139.05 112.19 140.452 112.19C140.134 111.793 140.06 111.604 139.928 111.549C137.877 110.695 137.653 109.829 139.093 108.168C142.71 103.994 146.335 99.8284 149.956 95.6581C151.926 93.3885 153.893 91.1163 155.942 88.7515ZM112.136 102.991L123.194 90.2536C123.119 90.161 123.045 90.0698 122.97 89.9779C119.308 90.2231 115.647 90.4678 111.828 90.7236C114.813 94.9415 113.407 98.9134 112.136 102.991ZM73.7808 98.3389C73.8205 98.2404 73.8595 98.1413 73.8985 98.0421C72.6929 97.106 71.326 96.3139 70.328 95.1934C69.3308 94.0734 68.7032 92.6243 68.0015 91.466C67.5743 91.8349 67.0928 92.3552 66.5162 92.7301C63.3577 94.7802 60.1747 96.7932 57.0036 98.8229C56.6591 99.0437 56.3331 99.2909 55.9673 99.5481C57.7866 100.972 57.821 101.015 59.4367 99.7477C60.6786 98.7733 61.9801 98.3105 63.5937 98.3674C66.6048 98.4745 69.6224 98.3997 72.638 98.3951C73.019 98.3951 73.3999 98.3588 73.7808 98.3389ZM263.835 76.4337C264.846 75.8381 265.878 75.1961 266.942 74.6117C268.009 74.026 269.131 73.5381 270.174 72.916C270.431 72.7626 270.613 72.2489 270.597 71.9117C270.509 70.0355 268.773 69.5099 267.635 68.187C267.096 70.1386 265.807 70.3185 264.236 70.3727C262.465 70.4335 261.778 68.9731 260.471 68.1051C260.208 71.2196 257.727 70.011 255.827 70.4837C258.593 72.5398 261.159 74.4464 263.835 76.4337ZM207.084 116.494H218.423V103.465C214.588 107.871 210.908 112.099 207.084 116.494ZM277.308 70.2206C283.447 68.9857 289.636 69.9152 295.883 69.506C295.666 68.8726 295.435 68.3484 295.307 67.8003C295.067 66.7723 294.484 66.2916 293.41 66.1178C290.026 65.5697 286.662 64.902 283.285 64.3057C281.616 64.0102 279.937 63.7695 278.289 63.5084C277.694 65.7945 278.467 68.0958 277.308 70.2206ZM114.125 69.5899H115.606C119.046 69.5899 122.487 69.5542 125.927 69.625C126.521 69.6375 127.258 69.9588 127.664 70.3879C128.495 71.2691 129.397 71.5428 130.421 70.8844C131.701 70.0606 132.995 69.3268 134.613 69.576C134.821 69.6078 135.053 69.4861 135.649 69.3493C134.611 68.3841 133.778 67.6092 132.946 66.8344C132.04 65.9915 131.109 65.1598 131.747 63.5593C130.78 63.6849 130.044 63.7523 129.319 63.8799C124.853 64.6686 120.389 65.4666 115.928 66.2817C115.674 66.3287 115.331 66.4999 115.238 66.7062C114.852 67.5716 114.547 68.472 114.125 69.5899ZM176.538 44.9087H175.036C171.521 44.9087 168.003 44.9953 164.492 44.8783C162.116 44.7996 160.625 45.9215 159.584 47.8612C158.497 49.8842 158.198 52.0699 158.565 54.3156C159.273 58.6572 161.361 62.0268 165.57 63.7807C167.968 64.7797 170.51 64.898 173.065 64.8293C173.315 64.8227 173.647 64.6713 173.792 64.4762C174.855 63.0582 175.448 61.4411 175.86 59.5642C173.563 59.5642 171.42 59.5728 169.276 59.5576C168.854 59.5543 168.397 59.5483 168.018 59.3943C165.73 58.4648 163.919 55.1916 164.322 52.7911C164.686 50.628 165.405 50.0211 167.604 50.0211C169.469 50.0211 171.334 50.0402 173.199 50.0026C173.546 49.996 174.07 49.8571 174.202 49.6112C174.993 48.1495 175.693 46.6375 176.538 44.9087ZM264.243 154.447C260.976 160.122 257.618 165.957 254.267 171.777C254.286 171.777 254.457 171.804 254.616 171.772C261.244 170.457 267.873 169.144 274.495 167.796C274.875 167.72 275.264 167.412 275.532 167.108C277.281 165.113 279.005 163.095 280.721 161.07C281.146 160.568 281.51 160.016 282.057 159.276H280.62C277.605 159.276 274.589 159.29 271.573 159.261C271.093 159.257 270.514 159.198 270.15 158.933C268.137 157.465 266.175 155.926 264.243 154.447ZM206.546 64.8266C206.377 64.3043 206.287 63.9698 206.164 63.6472C204.586 59.5378 203.03 55.419 201.411 51.3248C200.702 49.5305 199.883 47.7786 199.07 46.0273C198.694 45.2181 198.064 44.8043 197.088 44.8896C196.09 44.9768 195.079 44.9087 194.074 44.9087C192.326 44.9087 191.952 45.1117 191.359 46.7149C189.271 52.3541 187.211 58.004 185.15 63.6538C184.785 64.6547 184.929 64.8451 186.02 64.8471C189.609 64.8557 193.2 64.8306 196.789 64.8663C197.606 64.8742 198.054 64.5424 198.334 63.8257C198.697 62.9002 199.09 61.9878 199.527 60.9334C199.998 62.0943 200.378 63.0985 200.821 64.0736C200.954 64.3665 201.257 64.7837 201.495 64.7929C203.126 64.8564 204.76 64.8266 206.546 64.8266ZM213.676 176.321H196.51C196.51 176.577 196.472 176.793 196.516 176.99C197.411 181.038 198.154 185.129 199.275 189.112C200.024 191.774 201.288 194.294 202.39 196.848C202.558 197.237 203.065 197.675 203.468 197.735C206.698 198.22 207.458 197.777 208.836 194.807C208.927 194.612 209.031 194.42 209.091 194.215C210.174 190.55 211.323 186.902 212.301 183.209C212.892 180.978 213.215 178.676 213.676 176.321ZM219.271 115.948C220.813 114.919 222.284 113.981 223.702 112.969C224.473 112.419 225.265 112.214 226.205 112.221C231.12 112.252 236.034 112.235 240.95 112.235C242.385 112.235 243.822 112.265 245.255 112.206C245.552 112.194 246.088 111.847 246.084 111.664C246.052 110.076 246.631 108.434 245.335 106.96C244.718 106.258 244.507 105.163 244.232 104.211C244.028 103.507 244.017 102.747 243.904 101.877C239.848 103.053 235.747 102.569 231.678 102.628C227.601 102.687 223.521 102.641 219.271 102.641V115.948ZM212.61 28.1668C213.463 28.2071 213.68 28.0399 213.523 27.3292C212.553 22.9691 211.645 18.5926 210.545 14.265C209.884 11.6648 208.924 9.13344 207.287 6.94451C205.796 4.95126 204.16 4.87657 202.812 6.95443C201.733 8.61779 200.724 10.4345 200.197 12.3266C198.83 17.2439 197.75 22.2406 196.541 27.2029C196.338 28.0399 196.737 28.1774 197.449 28.1747C202.503 28.1589 207.556 28.1661 212.61 28.1668ZM176.756 29.961C175.522 30.0774 174.53 30.1468 173.544 30.2678C168.401 30.9005 163.256 31.5312 158.119 32.2148C157.659 32.2756 157.091 32.6022 156.84 32.9816C154.769 36.1186 152.76 39.2959 150.741 42.4666C150.636 42.6305 150.606 42.8434 150.581 42.9175C151.452 43.289 152.397 43.4536 153.002 43.9964C154.554 45.3894 155.954 46.9502 157.447 48.4767C157.376 48.5018 157.427 48.4999 157.439 48.4774C157.634 48.0992 157.823 47.7171 158.017 47.339C159.37 44.6992 161.373 43.1303 164.496 43.248C166.43 43.3201 168.37 43.2136 170.305 43.2804C171.248 43.3128 171.698 42.9975 172.005 42.0891C172.806 39.719 173.696 37.3774 174.605 35.0456C175.238 33.4213 175.961 31.8313 176.756 29.961ZM231.926 175.225C229.924 175.377 228.11 175.553 226.293 175.644C222.641 175.826 218.987 175.97 215.334 176.105C214.645 176.132 214.29 176.411 214.179 177.091C213.972 178.361 213.751 179.63 213.497 180.891C212.511 185.769 211.454 190.627 209.394 195.196C209.032 196.001 208.597 196.772 208.123 197.7C210.331 197.833 212.327 197.711 214.121 196.557C215.597 195.608 217.128 194.717 218.48 193.611C224.348 188.811 228.341 182.586 231.714 175.91C231.79 175.759 231.817 175.583 231.926 175.225ZM178.146 175.262C178.278 175.651 178.321 175.937 178.459 176.165C180.484 179.503 182.352 182.952 184.597 186.135C187.855 190.755 191.847 194.655 197.057 197.118C198.57 197.833 200.166 197.727 201.926 197.753C201.325 196.508 200.745 195.449 200.29 194.339C198.086 188.976 196.982 183.323 195.965 177.652C195.698 176.167 195.694 176.167 194.229 176.1C190.148 175.912 186.069 175.691 181.99 175.478C180.75 175.414 179.51 175.339 178.146 175.262ZM207.443 5.42132C208.471 7.54613 209.499 9.34897 210.238 11.2629C212.193 16.3243 213.209 21.6357 214.129 26.9609C214.278 27.8197 214.518 28.2349 215.527 28.2679C219.608 28.4035 223.687 28.6547 227.767 28.8669C229.11 28.937 230.454 29.0176 231.926 29.1009C231.778 28.6864 231.711 28.4134 231.587 28.1701C229.43 23.943 226.986 19.895 223.956 16.2278C220.793 12.398 217.198 9.07063 212.575 7.07805C210.964 6.38389 209.225 5.98657 207.443 5.42132ZM178.151 29.0811C178.686 29.0811 179.041 29.0983 179.395 29.0785C184.33 28.8028 189.264 28.5092 194.2 28.2494C195.722 28.1694 195.666 28.1998 195.971 26.6667C197.404 19.4613 198.463 12.1322 202.696 5.63155C202.153 5.70559 201.706 5.73666 201.275 5.83054C196.905 6.78056 193.269 9.07395 190.036 12.0602C185.065 16.6536 181.493 22.2598 178.449 28.2375C178.34 28.4504 178.287 28.6904 178.151 29.0811ZM151.866 44.9087H150.398C145.838 44.9087 141.277 44.9365 136.717 44.8896C135.563 44.8777 134.821 45.3649 134.232 46.266C131.96 49.7434 133.69 55.4567 137.535 57.0864C137.95 57.2622 138.437 57.323 138.893 57.3323C140.401 57.362 141.909 57.3435 143.417 57.3442C145.206 57.3442 145.474 57.6159 145.476 59.5854C145.097 59.5854 144.713 59.5854 144.329 59.5854C141.528 59.5854 138.727 59.5668 135.927 59.6078C135.524 59.6138 134.886 59.8088 134.763 60.0924C134.13 61.5528 133.629 63.0707 133.016 64.7506C133.684 64.7955 134.096 64.8471 134.508 64.8478C138.817 64.8537 143.126 64.8524 147.435 64.8511C149.565 64.8498 150.59 64.0802 151.114 61.9991C151.907 58.8482 150.747 56.2302 148.779 53.8694C147.85 52.7548 146.634 52.2622 145.166 52.3052C143.623 52.3495 142.077 52.337 140.534 52.2933C139.746 52.2715 139.122 51.9125 139.107 51.0114C139.091 50.0019 139.868 50.1579 140.496 50.156C143.118 50.148 145.739 50.1705 148.36 50.1335C148.781 50.1275 149.431 50.0012 149.581 49.7209C150.366 48.2526 151.025 46.7175 151.866 44.9087ZM156.05 171.903C153.846 168.293 151.658 164.971 149.743 161.498C147.83 158.03 146.192 154.412 144.385 150.761C143.911 151.099 143.422 151.444 142.938 151.797C139.895 154.016 136.848 156.231 133.815 158.465C133.001 159.064 132.138 159.362 131.112 159.29C130.169 159.224 129.219 159.276 128.149 159.276C128.286 159.597 128.312 159.743 128.395 159.843C130.525 162.362 132.651 164.885 134.807 167.381C135.016 167.622 135.403 167.764 135.733 167.838C139.609 168.699 143.48 169.582 147.371 170.369C150.2 170.941 153.056 171.379 156.05 171.903ZM225.679 195.389C244.332 191.395 260.277 182.528 273.628 168.952C273.346 168.858 273.112 168.873 272.884 168.918C267.485 169.998 262.117 171.296 256.674 172.072C254.004 172.453 252.386 173.643 250.779 175.642C244.127 183.923 236.106 190.544 226.381 194.987C226.137 195.098 225.913 195.254 225.679 195.389ZM184.157 195.565C184.21 195.486 184.263 195.407 184.316 195.328C184.011 195.166 183.709 195 183.403 194.842C181.716 193.972 179.991 193.17 178.35 192.222C170.091 187.454 163.332 181.007 157.492 173.531C157.159 173.104 156.577 172.724 156.051 172.621C150.827 171.587 145.59 170.623 140.36 169.621C139.052 169.37 137.756 169.055 136.455 168.77L136.351 169.056C149.731 182.484 165.648 191.354 184.157 195.565ZM195.112 197.414C195.15 197.3 195.188 197.186 195.227 197.072C194.953 196.881 194.672 196.699 194.406 196.496C192.725 195.217 190.938 194.051 189.389 192.626C184.353 187.996 180.773 182.296 177.743 176.23C177.315 175.374 176.794 175.074 175.859 174.988C172.153 174.647 168.454 174.22 164.756 173.793C162.602 173.545 160.452 173.239 158.059 172.929C158.383 173.406 158.545 173.719 158.774 173.971C161.376 176.838 163.844 179.844 166.626 182.524C173.138 188.8 180.621 193.596 189.285 196.362C191.15 196.957 193.166 197.076 195.112 197.414ZM251.917 172.944C251.153 173.029 250.625 173.085 250.098 173.147C244.735 173.771 239.375 174.414 234.009 175.002C233.25 175.086 232.801 175.322 232.428 176.019C231.161 178.386 229.903 180.767 228.47 183.035C224.988 188.543 220.859 193.455 215.133 196.808C215.002 196.884 214.922 197.046 214.703 197.305C217.63 197.076 220.311 196.674 222.916 195.669C234.598 191.163 243.796 183.45 251.472 173.745C251.617 173.561 251.704 173.331 251.917 172.944ZM157.971 31.4346C158.937 31.3242 159.563 31.2535 160.188 31.1808C165.48 30.564 170.77 29.9267 176.067 29.3535C176.842 29.2695 177.272 29.0044 177.641 28.3248C178.956 25.9025 180.231 23.4471 181.718 21.1306C185.682 14.9585 190.386 9.52547 197.248 6.3852C197.297 6.36273 197.313 6.26622 197.428 6.03681C189.594 7.21954 182.566 10.1284 176.056 14.3582C169.081 18.8901 163.221 24.6001 157.971 31.4346ZM251.676 31.3871C251.742 31.3123 251.809 31.2376 251.875 31.1629C247.021 24.8255 241.385 19.294 234.72 14.8315C228.026 10.3492 220.769 7.28432 212.626 6.02689C212.766 6.27613 212.784 6.36406 212.836 6.39182C213.055 6.51214 213.284 6.61528 213.509 6.72304C216.752 8.27401 219.529 10.453 222.018 13.0214C226.275 17.4178 229.522 22.511 232.223 27.9658C232.694 28.9185 233.226 29.3178 234.326 29.3766C236.716 29.5042 239.098 29.8169 241.477 30.1012C244.879 30.5078 248.277 30.9567 251.676 31.3871ZM229.197 48.0702C229.648 47.1942 230.096 46.5714 230.301 45.8773C230.937 43.73 232.305 42.9287 234.497 43.2368C235.492 43.3763 236.522 43.2606 237.577 43.2606C237.548 42.8646 237.572 42.7112 237.522 42.5869C235.915 38.529 234.31 34.4705 232.665 30.4271C232.56 30.168 232.163 29.8923 231.877 29.8632C230.061 29.6754 228.239 29.5168 226.416 29.4203C223.052 29.2418 219.685 29.1142 216.32 28.9647C215.768 28.9396 215.216 28.9105 214.555 28.8781C214.598 29.4057 214.61 29.7574 214.656 30.1052C215.197 34.1095 215.782 38.1099 216.258 42.1221C216.364 43.0199 216.67 43.2844 217.509 43.2698C219.483 43.2361 221.461 43.1978 223.43 43.3009C224.074 43.334 224.828 43.6546 225.304 44.0916C226.619 45.2988 227.814 46.6369 229.197 48.0702ZM261.313 46.9324C261.379 46.8887 261.446 46.8451 261.513 46.8021C261.47 46.6402 261.457 46.4636 261.382 46.3182C258.987 41.5708 256.26 37.025 253.068 32.7681C252.862 32.4944 252.449 32.2709 252.106 32.2227C247.925 31.6356 243.742 31.0585 239.553 30.5382C237.54 30.2876 235.512 30.1627 233.496 29.9809C233.467 30.2023 233.433 30.2804 233.455 30.3359C235.06 34.4341 236.655 38.5376 238.311 42.6153C238.436 42.9227 239.006 43.2209 239.373 43.2255C240.311 43.2368 241.006 43.5786 241.632 44.2555C242.533 45.2294 243.467 46.1787 244.451 47.0692C245.206 47.7528 245.495 48.5058 245.434 49.5325C245.293 51.8933 245.245 54.2601 245.205 56.6249C245.198 57.0513 245.276 57.6278 245.55 57.8777C246.054 58.3378 246.733 58.6062 247.417 58.9996C247.483 58.314 247.577 57.7124 247.594 57.1088C247.705 53.2023 247.796 49.2945 247.899 45.388C247.938 43.9085 248.526 43.289 249.994 43.2712C252.147 43.2447 254.301 43.2791 256.455 43.2553C257.301 43.246 257.963 43.5217 258.545 44.1484C259.436 45.1064 260.387 46.0068 261.313 46.9324ZM176.65 174.422C176.581 174.056 176.576 173.913 176.528 173.787C174.755 169.177 172.961 164.575 171.22 159.954C170.983 159.324 170.613 159.28 170.079 159.27C167.318 159.217 164.551 159.233 161.799 159.049C158.591 158.833 155.481 158.206 152.862 156.1C151.241 154.796 149.562 153.563 147.896 152.315C147.117 151.73 146.308 151.185 145.344 150.503C145.439 150.892 145.458 151.065 145.523 151.22C148.545 158.423 152.282 165.228 156.924 171.52C157.146 171.822 157.591 172.075 157.965 172.129C161.576 172.658 165.189 173.173 168.811 173.623C171.36 173.939 173.922 174.148 176.65 174.422ZM214.516 175.504C215.057 175.504 215.374 175.516 215.689 175.502C218.66 175.371 221.633 175.264 224.601 175.093C226.889 174.961 229.169 174.709 231.457 174.587C232.285 174.543 232.633 174.122 232.937 173.453C235.492 167.84 237.591 162.062 239.274 156.132C239.365 155.809 239.421 155.477 239.558 154.859C238.983 155.247 238.663 155.456 238.349 155.676C236.94 156.663 235.568 157.709 234.108 158.616C233.508 158.99 232.723 159.24 232.02 159.248C227.212 159.301 222.403 159.29 217.594 159.262C216.835 159.258 216.564 159.45 216.478 160.262C216.138 163.497 215.706 166.722 215.289 169.948C215.057 171.748 214.791 173.543 214.516 175.504ZM193.924 156.436C193.924 156.995 193.901 157.209 193.927 157.417C194.637 163.058 195.36 168.696 196.062 174.339C196.172 175.224 196.524 175.609 197.5 175.599C202.38 175.553 207.26 175.579 212.14 175.578C213.845 175.578 213.83 175.573 214.055 173.908C214.457 170.932 214.903 167.962 215.285 164.984C215.524 163.122 215.681 161.248 215.885 159.276H214.526C209.574 159.276 204.622 159.273 199.67 159.277C198.374 159.279 197.203 158.953 196.18 158.116C195.528 157.582 194.827 157.105 193.924 156.436ZM275.233 35.9765C267.946 27.8858 259.476 21.4202 249.883 16.4532C240.53 11.61 222.623 5.93565 219.516 6.80171C220.036 6.98946 220.468 7.13094 220.889 7.30018C223.343 8.28854 225.863 9.14203 228.234 10.301C237.967 15.0603 245.773 22.1447 252.355 30.6479C252.96 31.4294 253.66 31.7454 254.571 31.9133C259.772 32.8712 264.968 33.8523 270.16 34.8552C271.86 35.1831 273.542 35.6003 275.233 35.9765ZM190.845 6.72833C190.801 6.63445 190.757 6.54124 190.712 6.44737C168.772 9.93141 150.124 19.69 134.795 35.7967C135.018 35.9071 135.189 35.9004 135.354 35.8681C142.197 34.526 149.042 33.1965 155.875 31.8082C156.472 31.6865 157.107 31.276 157.524 30.8178C160.13 27.9559 162.538 24.8996 165.275 22.1725C171.972 15.5012 179.748 10.4656 188.746 7.41125C189.443 7.17523 190.145 6.95575 190.845 6.72833ZM171.844 159.463C171.923 159.759 171.983 160.105 172.105 160.428C173.626 164.44 175.218 168.425 176.652 172.468C177.249 174.149 178.262 174.702 179.97 174.742C182.939 174.809 185.9 175.141 188.869 175.263C191.039 175.352 193.214 175.28 195.493 175.28C195.473 175.073 195.456 174.765 195.417 174.46C194.741 169.212 194.025 163.969 193.409 158.713C193.216 157.069 193.208 155.522 191.523 154.475C190.779 154.012 190.351 153.806 189.558 154.232C185.859 156.225 182.038 157.951 177.877 158.722C175.92 159.085 173.92 159.216 171.844 159.463ZM221.818 54.2892C221.938 54.2806 222.057 54.2713 222.177 54.2628C222.243 54.4135 222.312 54.5629 222.374 54.715C223.627 57.7627 224.888 60.8064 226.123 63.8614C226.371 64.4729 226.628 64.8954 227.413 64.8729C228.185 64.8511 228.731 64.7645 229.105 63.9335C230.442 60.9605 231.866 58.0265 233.262 55.0792C233.368 54.8564 233.51 54.6495 233.625 54.4525V64.8511C235.142 64.8511 236.614 64.7856 238.077 64.8729C239.135 64.9357 239.444 64.5053 239.467 63.5269C239.6 57.719 239.771 51.9125 239.922 46.1053C239.932 45.7285 239.888 45.3503 239.866 44.9107C237.553 44.9107 235.365 44.8823 233.18 44.9424C232.863 44.951 232.43 45.3153 232.27 45.628C231.422 47.2861 230.649 48.9825 229.841 50.661C229.233 51.9251 228.612 53.1832 227.909 54.6224C226.637 51.5582 225.468 48.7127 224.266 45.8812C224.113 45.5229 223.79 44.9742 223.531 44.9662C221.214 44.8942 218.892 44.9246 216.254 44.9246C216.254 47.6814 216.301 50.2948 216.242 52.9055C216.158 56.5965 216 60.2855 215.857 63.9745C215.832 64.6349 216.113 64.8683 216.748 64.8557C217.933 64.8319 219.118 64.8524 220.302 64.8504C221.81 64.8484 221.815 64.8471 221.817 63.3854C221.821 60.3536 221.818 57.3211 221.818 54.2892ZM266.551 54.6522C266.623 54.6555 266.694 54.6588 266.766 54.6621C266.766 55.0812 266.777 55.501 266.764 55.9202C266.685 58.4991 266.619 61.0788 266.506 63.6565C266.47 64.508 266.705 64.9112 267.641 64.8663C268.965 64.8035 270.296 64.8372 271.623 64.8517C272.204 64.8584 272.448 64.6342 272.466 64.0293C272.659 57.9061 272.873 51.7836 273.077 45.6597C273.083 45.4555 273.04 45.2492 273.009 44.916C270.67 44.916 268.385 44.8909 266.101 44.9497C265.83 44.9563 265.475 45.3748 265.321 45.6835C264.442 47.4461 263.616 49.2344 262.765 51.0108C262.216 52.1551 261.654 53.2929 261.004 54.627C259.723 51.5383 258.517 48.6777 257.357 45.7986C257.091 45.1388 256.747 44.8671 256.009 44.8902C254.216 44.9471 252.42 44.9431 250.627 44.8935C249.813 44.871 249.472 45.0852 249.475 45.9632C249.484 47.7535 249.382 49.5438 249.33 51.3347C249.209 55.5612 249.102 59.7883 248.959 64.0141C248.938 64.6415 249.164 64.8564 249.75 64.8517C251.15 64.8405 252.55 64.8253 253.949 64.859C254.642 64.8755 254.921 64.6005 254.925 63.9189C254.935 62.2331 254.956 60.5473 255.014 58.8628C255.064 57.4037 255.169 55.9459 255.265 54.2033C256.641 57.5604 257.913 60.6332 259.156 63.7179C259.425 64.3863 259.655 64.8881 260.563 64.8861C261.457 64.8848 261.91 64.5701 262.269 63.7847C263.667 60.7271 265.12 57.6946 266.551 54.6522ZM262.817 47.062C263.261 46.147 263.675 45.3193 264.067 44.4823C264.436 43.6956 265.002 43.2573 265.91 43.2639C268.206 43.2811 270.504 43.2202 272.797 43.3035C273.373 43.3247 274.036 43.6579 274.481 44.0493C275.582 45.0191 276.559 46.1298 277.63 47.1373C278.303 47.7713 278.611 48.4675 278.572 49.4115C278.402 53.5269 278.292 57.6457 278.137 61.7624C278.113 62.4202 278.207 62.8135 278.99 62.9398C282.731 63.5421 286.462 64.2019 290.196 64.8471C291.517 65.0759 292.836 65.3218 294.208 65.5691C294.208 65.3046 294.232 65.1949 294.203 65.1003C294.133 64.861 294.057 64.6204 293.949 64.3949C291.717 59.6667 289.892 54.7229 286.443 50.6445C285.785 49.867 285.615 48.6909 284.998 47.8639C282.493 44.5028 279.929 41.1847 277.314 37.9089C276.889 37.3774 276.14 36.9417 275.468 36.7956C269.638 35.5249 263.792 34.3177 257.945 33.1231C256.686 32.8659 255.399 32.7357 254.118 32.5453C257.041 37.423 259.881 42.1625 262.817 47.062ZM156.124 32.5579C155.535 32.6075 155.114 32.6028 154.711 32.6841C148.018 34.0341 141.323 35.3729 134.643 36.7863C133.94 36.9351 133.185 37.4084 132.703 37.9519C125.718 45.8224 120.222 54.6356 116.139 64.3315C115.995 64.6733 115.902 65.0362 115.739 65.53C116.231 65.4811 116.546 65.4712 116.853 65.4157C121.005 64.6693 125.138 63.7708 129.317 63.2301C131.28 62.9755 132.437 62.3799 132.866 60.3754C133.13 59.1424 133.746 57.9927 135.506 57.6609C135.201 57.2093 134.674 57.0341 134.348 56.6765C132.13 54.2409 131.031 51.4636 131.753 48.1065C132.481 44.7203 134.194 43.2612 137.611 43.2606C141.164 43.2599 144.717 43.2401 148.269 43.2751C149.113 43.2831 149.612 43.0246 150.067 42.2689C151.844 39.323 153.712 36.4333 155.545 33.5224C155.709 33.26 155.864 32.9916 156.124 32.5579ZM172.299 43.2626C173.645 43.2626 174.752 43.1634 175.83 43.2983C176.519 43.3842 177.286 43.6751 177.805 44.1213C178.998 45.1474 180.047 46.3394 181.183 47.4355C181.828 48.0576 182.04 48.7742 181.694 49.5775C181.015 51.1529 180.289 52.7072 179.565 54.2621C179.12 55.2167 178.344 55.6134 177.299 55.5486C176.799 55.5182 176.295 55.5453 175.792 55.546C174.177 55.5499 172.563 55.5301 170.949 55.5658C169.797 55.5916 169.905 56.5766 169.809 57.3039C169.783 57.4949 170.236 57.9352 170.485 57.9471C172.944 58.0714 175.406 58.1812 177.868 58.1812C178.957 58.1812 180.045 57.838 181.138 57.8004C182.273 57.7613 183.417 57.885 184.554 57.9716C185.291 58.0278 185.629 57.6926 185.867 57.0143C186.684 54.6845 187.537 52.3674 188.423 50.0634C189.115 48.2652 189.824 46.4689 190.63 44.721C191.034 43.8463 191.796 43.2599 192.851 43.2718C193.563 43.2797 193.724 42.8652 193.802 42.2504C194.276 38.4913 194.762 34.7336 195.284 30.9798C195.574 28.8986 195.608 28.9033 193.47 28.9694C193.399 28.9714 193.327 28.9667 193.255 28.9707C188.322 29.257 183.389 29.5598 178.453 29.8116C177.801 29.8454 177.489 30.1091 177.263 30.6539C176.128 33.3988 174.957 36.1292 173.849 38.8854C173.308 40.2314 172.876 41.621 172.299 43.2626ZM205.049 28.7856C202.5 28.7856 199.951 28.8226 197.404 28.7651C196.528 28.7453 196.184 29.0864 196.08 29.891C195.538 34.0758 194.987 38.2599 194.417 42.4415C194.336 43.0351 194.588 43.2315 195.109 43.2454C195.504 43.2559 195.905 43.3022 196.292 43.2526C198.084 43.0232 199.509 43.5984 200.623 45.0403C201.081 45.632 201.644 46.1542 202.216 46.6415C203.931 48.1039 205.016 49.9761 205.824 52.0361C206.439 53.6023 207.064 55.1652 207.636 56.7465C207.853 57.3475 208.18 57.5789 208.819 57.5683C210.397 57.5425 211.979 57.5247 213.553 57.6146C214.297 57.6576 214.49 57.4348 214.503 56.7406C214.553 53.8377 214.619 50.9347 214.729 48.0331C214.777 46.7512 214.588 45.2862 215.144 44.2436C215.75 43.1098 215.519 42.1459 215.484 41.0869C215.473 40.7318 215.4 40.3781 215.351 40.0245C214.869 36.5893 214.368 33.1575 213.92 29.7184C213.824 28.9786 213.499 28.7691 212.8 28.7757C210.217 28.8028 207.633 28.7869 205.049 28.7856ZM233.307 174.427C235.356 174.222 237.167 174.078 238.969 173.853C243.335 173.307 247.698 172.736 252.056 172.131C252.454 172.076 252.925 171.79 253.165 171.466C257.048 166.238 260.277 160.623 262.979 154.704C263.124 154.386 263.112 153.847 262.933 153.559C262.367 152.64 262.511 151.877 263.191 151.119C263.911 150.319 264.709 149.566 265.294 148.675C265.895 147.759 266.282 146.7 266.819 145.59C266.336 145.534 266.161 145.508 265.986 145.495C261.271 145.112 256.529 146.103 251.793 144.881C249.971 144.41 247.849 145.101 245.593 145.284C246.054 145.688 246.276 145.902 246.519 146.092C248.026 147.274 248.018 148.364 246.477 149.543C244.738 150.871 242.974 152.168 241.264 153.534C240.88 153.841 240.569 154.338 240.408 154.811C238.938 159.146 237.562 163.515 236.046 167.834C235.292 169.983 234.303 172.051 233.307 174.427ZM133.22 81.2155C124.856 90.8406 116.687 100.241 108.296 109.897H109.751C113.593 109.897 117.435 109.87 121.277 109.917C122.153 109.928 122.723 109.651 123.29 108.995C131.089 99.9871 138.919 91.0052 146.721 82.0003C147.213 81.4324 147.708 81.1851 148.463 81.2036C150.473 81.2532 152.487 81.1567 154.494 81.242C155.895 81.3015 157.134 80.965 158.229 80.1478C161.82 77.469 165.393 74.7631 168.965 72.0578C169.199 71.8813 169.367 71.6175 169.751 71.1852H168.23C156.955 71.1852 145.681 71.1713 134.407 71.2136C133.598 71.2169 132.651 71.4291 132.005 71.8826C128.047 74.6679 124.155 77.5484 120.249 80.4083C120.048 80.5551 119.922 80.8037 119.592 81.2155H133.22ZM246.705 138.749H248.307C254.732 138.749 261.16 138.622 267.58 138.806C270.417 138.887 272.778 138.275 275.025 136.538C277.277 134.798 279.747 133.339 282.122 131.757C282.146 131.788 282.169 131.819 282.193 131.851C276.246 138.664 270.298 145.476 264.243 152.413C264.625 152.486 264.758 152.535 264.89 152.535C269.162 152.54 273.433 152.556 277.704 152.515C278.093 152.511 278.581 152.217 278.851 151.908C289.681 139.55 300.492 127.175 311.302 114.8C311.519 114.551 311.703 114.274 311.951 113.947C311.678 113.884 311.575 113.839 311.471 113.839C307.165 113.834 302.857 113.814 298.55 113.863C298.139 113.868 297.637 114.226 297.339 114.563C293.42 118.999 289.521 123.452 285.642 127.924C285.156 128.485 284.662 128.745 283.903 128.739C279.453 128.706 275.002 128.724 270.551 128.72C270.251 128.72 269.952 128.677 269.488 128.641C273.81 123.696 278.016 118.886 282.341 113.938C281.917 113.879 281.747 113.835 281.577 113.835C277.414 113.831 273.251 113.813 269.087 113.86C268.666 113.864 268.136 114.166 267.846 114.496C261.071 122.201 254.321 129.929 247.57 137.654C247.342 137.916 247.139 138.197 246.705 138.749ZM185.355 109.892C190.096 109.892 194.544 109.908 198.991 109.863C199.336 109.86 199.748 109.503 200.009 109.206C203.676 105.025 207.333 100.834 210.963 96.62C211.432 96.0753 211.919 95.8809 212.625 95.8836C219.158 95.9067 225.691 95.9007 232.225 95.8915C232.867 95.8908 233.521 95.8743 234.152 95.7652C239.397 94.8595 243.98 92.5192 248.143 89.2751C252.276 86.0542 255.162 82.0141 256.165 76.8059C256.719 73.9228 256.063 71.0688 251.609 71.1349C241.093 71.291 230.573 71.1931 220.056 71.1693C219.235 71.1673 218.675 71.3928 218.125 72.0281C207.505 84.2844 196.859 96.5196 186.221 108.761C185.973 109.048 185.759 109.363 185.355 109.892ZM373.228 109.821C373.674 109.855 373.953 109.894 374.232 109.894C377.93 109.898 381.627 109.871 385.325 109.918C386.133 109.928 386.428 109.611 386.674 108.907C390.143 98.9723 393.692 89.0649 397.085 79.1046C397.778 77.0737 398.045 74.8656 398.256 72.7143C398.38 71.4457 397.907 71.1885 396.617 71.1865C392.991 71.1825 389.365 71.1448 385.74 71.2149C384.884 71.2314 383.917 71.4318 383.205 71.8747C380.989 73.2551 378.792 74.691 376.727 76.2863C362.899 86.9725 349.107 97.7043 335.31 108.431C334.858 108.782 334.485 109.237 334.074 109.643C334.122 109.728 334.169 109.812 334.217 109.897H335.478C344.813 109.897 354.147 109.881 363.481 109.919C364.621 109.924 365.582 109.668 366.481 108.999C369.515 106.739 372.563 104.498 375.607 102.248C374.831 104.718 374.043 107.226 373.228 109.821ZM214.823 71.5369C214.782 71.445 214.742 71.3538 214.701 71.2619C214.465 71.2361 214.229 71.1885 213.991 71.1885C200.708 71.1852 187.424 71.1799 174.14 71.2103C173.714 71.2116 173.163 71.4734 172.88 71.7974C162.077 84.1833 151.297 96.5896 140.519 108.997C140.325 109.221 140.174 109.484 139.938 109.821C140.278 109.857 140.452 109.893 140.628 109.893C152.403 109.896 164.179 109.899 175.954 109.885C176.331 109.885 176.761 109.801 177.073 109.608C181.407 106.932 185.803 104.34 189.496 100.765C189.707 100.561 189.88 100.319 190.265 99.8648H162.581C163.664 98.6173 164.604 97.5938 165.472 96.5109C165.964 95.8968 166.496 95.6535 167.3 95.6621C171.392 95.7051 175.485 95.7104 179.578 95.6542C180.28 95.6442 181.066 95.4129 181.662 95.04C186.132 92.2442 190.565 89.3882 195.006 86.5467C195.262 86.3834 195.492 86.1791 195.995 85.7937C195.316 85.7488 194.943 85.7031 194.57 85.7025C190.585 85.6972 186.595 85.8142 182.617 85.6562C180.239 85.5617 178.243 86.1005 176.332 87.5258C174.277 89.0583 172.045 90.3521 169.89 91.7503C169.934 91.4469 170.083 91.2631 170.237 91.0852C172.845 88.0745 175.469 85.0777 178.047 82.0419C178.561 81.4377 179.084 81.1997 179.879 81.203C186.628 81.2334 193.378 81.2486 200.127 81.1878C201.046 81.1792 202.101 80.9412 202.852 80.4453C205.604 78.6312 208.278 76.6962 210.933 74.74C212.283 73.745 213.53 72.6092 214.823 71.5369ZM78.3592 71.2691C77.8777 71.2275 77.635 71.1878 77.3917 71.1878C64.1453 71.1852 50.8983 71.1779 37.6519 71.2149C37.1685 71.2162 36.5495 71.5356 36.2241 71.9078C25.4888 84.2084 14.7819 96.5328 4.07441 108.857C3.85089 109.114 3.66704 109.405 3.3701 109.809C3.84229 109.848 4.14716 109.894 4.45137 109.894C16.0464 109.897 27.6421 109.9 39.2371 109.886C39.6511 109.886 40.1319 109.838 40.4678 109.63C44.6111 107.06 48.8363 104.603 52.4193 101.233C52.793 100.882 53.2467 100.614 53.6633 100.307L53.3954 99.9031H25.9868C27.1223 98.5895 28.0283 97.4458 29.0468 96.4118C29.4197 96.0336 30.0559 95.7203 30.5764 95.713C34.8122 95.6575 39.048 95.6932 43.2844 95.6661C43.7586 95.6627 44.3015 95.5537 44.6944 95.3051C49.3647 92.3559 54.0111 89.3703 58.6675 86.3993C58.8633 86.2743 59.0921 86.201 59.3051 86.1031C58.9076 85.7712 58.7409 85.7084 58.5743 85.7084C53.4768 85.7038 48.3786 85.6906 43.2818 85.7296C42.7851 85.7335 42.2389 85.9848 41.8044 86.2611C39.2616 87.8762 36.7466 89.5356 34.2183 91.1738C33.9749 91.3312 33.7051 91.4482 33.4479 91.583C36.0786 88.3026 38.8139 85.1736 41.5101 82.0115C41.9955 81.441 42.4889 81.201 43.2448 81.2043C49.8858 81.2321 56.5275 81.193 63.1685 81.2426C64.5269 81.2525 65.7338 80.9769 66.8018 80.1802C70.4219 77.4809 74.0275 74.7611 77.6317 72.0407C77.8493 71.8767 78.0133 71.6407 78.3592 71.2691ZM162.568 152.529C165.952 152.642 169.948 152.623 173.831 151.284C182.971 148.129 190.742 142.877 197.377 135.922C200.622 132.52 203.214 128.644 204.643 124.116C206.106 119.477 204.299 116.055 199.632 114.767C197.719 114.239 195.695 113.96 193.71 113.88C190.162 113.739 186.601 113.721 183.055 113.874C180.931 113.964 178.725 114.177 176.729 114.849C166.669 118.234 158.3 124.19 151.44 132.233C148.702 135.444 146.573 139.073 145.529 143.22C144.561 147.071 146.1 149.911 149.81 151.325C150.177 151.464 150.557 151.57 150.934 151.677C154.543 152.693 158.242 152.557 162.568 152.529ZM89.935 95.4565C90.2029 97.8312 88.2982 100.045 86.1212 100.045C78.4379 100.048 70.7539 100.03 63.0713 100.074C62.3729 100.078 61.5436 100.291 61.0014 100.704C57.4633 103.399 53.986 106.174 50.4955 108.933C50.2164 109.154 49.9942 109.446 49.5617 109.897H51.0431C62.7836 109.897 74.5248 109.937 86.2647 109.85C87.8214 109.838 89.4714 109.412 90.9098 108.789C94.8619 107.079 98.0614 104.305 100.883 101.092C103.265 98.3806 104.743 95.2429 105.158 91.6439C105.48 88.85 104.29 85.6443 100.203 85.8109C97.5509 85.9187 94.8903 85.8314 92.2331 85.8314C90.474 85.8307 88.7149 85.8506 86.9558 85.8228C85.899 85.8063 85.0267 84.8278 85.3157 84.0537C85.8381 82.6534 87.9014 81.242 89.4311 81.242C96.828 81.2406 104.224 81.2526 111.621 81.2208C112.227 81.2175 112.943 81.074 113.422 80.7342C117.401 77.9153 121.339 75.0368 125.282 72.1663C125.579 71.9507 125.821 71.6605 126.318 71.1852H124.744C113.111 71.1852 101.478 71.2017 89.8451 71.168C87.998 71.1627 86.3024 71.5865 84.6669 72.3732C80.6037 74.3274 77.1417 77.0935 74.0301 80.3144C71.4047 83.0336 69.6674 86.1567 69.7738 90.0836C69.8611 93.3231 71.98 95.434 75.2364 95.4532C77.7494 95.4677 80.2631 95.4565 82.7762 95.4565H89.935ZM108.637 142.619C108.602 142.496 108.567 142.373 108.533 142.25C109.633 141.29 110.709 140.299 111.843 139.38C112.821 138.587 113.956 138.292 115.245 138.308C119.732 138.359 124.22 138.348 128.708 138.31C129.664 138.303 130.644 138.181 131.569 137.945C136.515 136.677 140.998 134.348 145.345 131.752C149.078 129.523 152.721 127.152 155.596 123.809C157.265 121.869 158.776 119.821 159.442 117.292C160.053 114.974 159.177 113.837 156.789 113.835C146.377 113.827 135.966 113.829 125.555 113.841C125.178 113.842 124.725 113.885 124.437 114.09C120.201 117.105 115.987 120.15 111.775 123.197C111.605 123.32 111.51 123.546 111.198 123.977H140.556C140.338 124.442 140.253 124.72 140.094 124.947C138.379 127.405 135.8 128.498 133.016 128.659C128.793 128.903 124.546 128.702 120.31 128.739C119.388 128.747 118.426 128.821 117.555 129.095C108.879 131.825 101.136 136.219 94.4638 142.406C92.4653 144.26 90.7333 146.402 89.8226 149.053C89.0277 151.367 89.8603 152.539 92.2616 152.541C102.96 152.545 113.659 152.55 124.358 152.521C124.927 152.52 125.597 152.354 126.048 152.027C129.97 149.186 133.854 146.293 137.745 143.409C137.945 143.261 138.096 143.046 138.501 142.619H108.637ZM209.233 142.627C209.208 142.498 209.183 142.37 209.158 142.243C210.204 141.32 211.224 140.364 212.304 139.484C213.334 138.645 214.516 138.285 215.889 138.305C220.233 138.366 224.578 138.374 228.92 138.3C230.297 138.277 231.725 138.103 233.036 137.7C240.285 135.467 246.748 131.722 252.726 127.12C255.544 124.951 257.877 122.315 259.371 119.057C259.833 118.049 260.004 116.878 260.147 115.76C260.26 114.881 259.707 114.255 258.847 114.028C258.337 113.893 257.791 113.839 257.261 113.839C246.922 113.828 236.582 113.825 226.244 113.849C225.741 113.849 225.152 113.988 224.749 114.271C220.902 116.967 217.083 119.703 213.267 122.444C212.792 122.785 212.385 123.222 211.946 123.616L212.042 123.91H241.276C240.824 124.656 240.612 125.2 240.239 125.592C238.432 127.486 236.124 128.563 233.582 128.673C229.354 128.856 225.111 128.704 220.876 128.738C219.989 128.745 219.062 128.809 218.226 129.074C209.38 131.873 201.472 136.326 194.745 142.742C192.853 144.547 191.203 146.616 190.388 149.19C189.691 151.395 190.517 152.539 192.801 152.54C203.535 152.545 214.269 152.551 225.003 152.521C225.568 152.519 226.23 152.331 226.683 152.002C230.577 149.185 234.433 146.313 238.303 143.462C238.524 143.299 238.768 143.171 239.002 143.027C238.938 142.894 238.874 142.76 238.809 142.627H209.233ZM288.413 70.9948L288.402 71.1852C286.57 71.1852 284.733 71.0807 282.912 71.2143C281.031 71.3524 279.097 71.4893 277.307 72.0274C267.081 75.1029 258.71 80.9974 251.98 89.2189C249.266 92.535 247.043 96.183 245.945 100.392C244.911 104.36 246.368 107.373 250.27 108.616C252.589 109.354 255.09 109.678 257.531 109.838C260.64 110.043 263.776 109.986 266.894 109.863C268.884 109.785 270.925 109.613 272.833 109.087C284.348 105.912 293.582 99.3802 300.602 89.7471C302.695 86.8766 304.527 83.8322 305.49 80.3534C306.558 76.4873 305.312 73.9248 301.579 72.4895C300.585 72.1068 299.533 71.7478 298.483 71.6565C295.132 71.365 291.77 71.2057 288.413 70.9948ZM338.237 71.2956C337.904 71.2381 337.766 71.1938 337.628 71.1938C332.136 71.1885 326.644 71.1726 321.152 71.2156C320.735 71.2189 320.213 71.5448 319.922 71.8787C309.149 84.2394 298.397 96.6187 287.645 108.998C287.451 109.221 287.301 109.485 287.013 109.897H288.406C292.139 109.897 295.873 109.858 299.605 109.922C300.635 109.939 301.325 109.636 301.992 108.858C306.38 103.736 310.81 98.649 315.228 93.5525C316.58 91.9929 317.94 90.44 319.296 88.8844C319.347 88.9175 319.399 88.9505 319.45 88.9836C317.264 95.9041 315.079 102.825 312.846 109.897H314.169C319.266 109.897 324.364 109.878 329.461 109.916C330.297 109.922 330.842 109.653 331.381 109.031C342.003 96.7767 352.646 84.5396 363.281 72.2965C363.527 72.0135 363.735 71.6982 364.119 71.1852H362.739C358.97 71.1852 355.201 71.2202 351.432 71.1607C350.5 71.1455 349.926 71.4721 349.341 72.1478C343.78 78.5797 338.189 84.9865 332.605 91.3993C332.369 91.669 332.121 91.9268 331.878 92.1899L331.739 92.061C333.893 85.1776 336.047 78.2941 338.237 71.2956ZM312.443 78.0607C312.67 77.7692 312.856 77.5054 313.067 77.2621C314.996 75.0394 316.952 72.8399 318.846 70.5882C319.459 69.8603 320.127 69.5681 321.072 69.5741C326.423 69.6071 331.773 69.5945 337.123 69.5853C338.212 69.5833 339.329 69.459 339.836 70.774C339.867 70.8573 339.996 70.9069 340.086 70.9637C341.457 71.8483 342.832 72.7289 344.203 73.6154C344.552 73.8415 344.889 74.0855 345.276 74.3506C346.438 73.0178 347.543 71.7941 348.594 70.5247C349.142 69.8616 349.766 69.5701 350.636 69.5767C354.621 69.6071 358.607 69.5853 362.592 69.5926C363.818 69.5945 365.178 69.2746 365.809 70.8361C365.831 70.8903 365.924 70.9161 365.984 70.9551C367.388 71.8569 368.833 72.7031 370.186 73.6769C371.407 74.5568 373.076 75.1981 372.411 77.5503C374.527 75.8883 376.338 74.4828 378.123 73.0449C378.354 72.8584 378.503 72.5252 378.606 72.2304C380.022 68.1864 379.354 64.543 376.46 61.3479C374.32 58.9857 371.627 57.4235 368.756 56.1535C362.676 53.4635 356.224 52.1459 349.693 51.2051C341.166 49.9768 332.575 49.5041 323.967 49.4895C318.338 49.4803 312.707 49.6806 307.079 49.877C302.817 50.0257 298.558 50.3133 294.299 50.5513C293.935 50.5718 293.576 50.6908 293.12 50.7833C293.34 51.2217 293.473 51.5106 293.627 51.7869C296.667 57.2477 299.27 62.9061 301.204 68.8541C301.623 70.1459 302.117 71.1852 303.541 71.6182C304.131 71.798 304.629 72.2978 305.148 72.6793C307.517 74.4187 309.879 76.168 312.443 78.0607ZM103.97 112.021C103.23 112.531 102.703 112.894 102.176 113.258C98.9099 115.515 95.4101 116.742 91.3218 116.682C80.8782 116.528 70.4312 116.615 59.9862 116.661C59.1867 116.664 58.2893 116.942 57.6087 117.366C55.5705 118.635 53.58 119.988 51.639 121.402C46.8397 124.896 42.2878 128.671 38.6697 133.44C36.9661 135.686 35.5595 138.099 34.9438 140.882C33.9505 145.377 35.6904 148.879 39.0711 151.708C42.6952 154.741 47.0163 156.382 51.4743 157.682C58.7211 159.795 66.159 160.789 73.6664 161.383C80.8544 161.951 88.0483 162.248 95.2547 162.01C102.921 161.758 110.586 161.437 118.25 161.122C119.587 161.068 120.919 160.895 122.325 160.77C121.959 159.677 121.45 159.244 120.386 159.251C113.35 159.3 106.315 159.267 99.2789 159.284C97.863 159.287 96.621 158.924 95.4862 158.048C93.4222 156.453 91.263 154.978 89.2519 153.323C88.6534 152.83 88.2176 151.942 88.0542 151.162C87.7269 149.592 88.1574 148.032 89.076 146.768C90.6506 144.603 92.2384 142.405 94.1133 140.511C97.7565 136.831 102.266 134.32 106.778 131.868C107.634 131.403 107.785 130.998 107.565 130.051C106.509 125.493 105.542 120.913 104.592 116.33C104.312 114.979 104.192 113.595 103.97 112.021ZM339.058 116.099C338.163 116.274 337.236 116.67 336.349 116.594C331.81 116.209 327.575 117.208 323.362 118.825C321.152 119.674 319.393 120.8 317.84 122.608C310.451 131.209 302.943 139.711 295.488 148.258C295.069 148.739 294.709 149.286 294.395 149.843C279.743 175.788 258.102 192.696 229.191 200.144C223.149 201.7 216.974 202.495 210.732 202.837C193.039 203.806 176.225 200.457 160.303 192.706C151.106 188.227 142.733 182.499 135.418 175.351C131.731 171.749 128.409 167.77 124.956 163.931C124.475 163.396 124.068 163.188 123.313 163.273C119.364 163.716 115.406 164.094 111.448 164.455C107.417 164.823 103.382 165.161 99.3464 165.483C96.9887 165.67 94.6285 165.851 92.2655 165.943C85.313 166.216 78.3598 166.54 71.404 166.658C65.0936 166.765 58.7734 166.79 52.4676 166.559C43.4101 166.226 34.3704 165.522 25.4491 163.8C19.1044 162.576 12.8224 161.084 7.18992 157.752C5.54388 156.778 3.9891 155.541 2.65983 154.165C-0.120382 151.287 -0.615714 147.804 0.684452 144.087C2.09771 140.046 4.85941 136.923 7.89423 134.038C14.5558 127.705 22.3184 122.94 30.2874 118.48C31.2172 117.96 32.149 117.444 33.057 116.685C32.6602 116.667 32.2634 116.633 31.8666 116.632C24.9002 116.63 17.9338 116.658 10.9681 116.594C10.1434 116.587 9.23474 116.223 8.52117 115.776C7.21836 114.958 6.03987 113.944 4.79459 113.033C3.96132 112.423 3.42565 111.519 2.33579 111.118C1.34116 110.751 1.39274 109.477 2.26767 108.461C4.37466 106.012 6.49354 103.574 8.61243 101.137C17.418 91.0066 26.2335 80.8843 35.0179 70.7356C35.742 69.8987 36.5072 69.5668 37.6122 69.5688C51.0054 69.6012 64.3993 69.5945 77.7931 69.58C78.717 69.5787 79.4352 69.7373 79.9629 70.6226C80.4463 71.4344 82.3086 71.7451 83.1591 71.2969C85.317 70.1611 87.5662 69.5278 90.0554 69.5635C95.799 69.6461 101.545 69.5721 107.291 69.6078C108.21 69.6131 108.655 69.379 108.98 68.4389C113.876 54.2542 121.546 41.7559 132 30.9864C146.304 16.2503 163.494 6.65032 183.561 2.25129C188.566 1.15451 193.643 0.525144 198.766 0.209134C204.297 -0.131337 209.818 -0.0718483 215.315 0.503978C235.377 2.60432 253.304 9.94132 268.992 22.6525C277.653 29.6702 284.968 37.9003 290.928 47.3224C291.325 47.9485 291.727 48.1786 292.486 48.0986C296.831 47.6404 301.18 47.2153 305.533 46.8273C308.566 46.5562 311.604 46.3294 314.644 46.1404C320.654 45.7655 326.662 45.3186 332.679 45.1084C338.954 44.8895 345.238 44.8314 351.517 44.8572C356.609 44.8777 361.708 44.996 366.789 45.3027C377.74 45.9645 388.639 47.0593 399.156 50.4554C402.993 51.6943 406.676 53.2797 409.822 55.895C414.028 59.3923 415.055 63.8204 412.799 68.8025C411.601 71.4509 409.833 73.71 407.839 75.7905C407.11 76.5521 406.867 77.3454 406.703 78.3999C406.295 81.035 405.77 83.6914 404.915 86.2102C401.654 95.8016 398.243 105.342 394.891 114.902C394.394 116.317 393.962 116.629 392.439 116.631C388.848 116.632 385.256 116.566 381.668 116.662C380.167 116.702 378.98 116.297 377.836 115.355C376.232 114.036 376.15 114.038 374.533 115.219C373.11 116.259 371.615 116.677 369.831 116.664C360.602 116.593 351.374 116.647 342.146 116.607C341.125 116.603 340.106 116.279 339.058 116.099Z" fill="#233CFB"/>
<path d="M340.787 146.157C340.41 146.225 340.035 146.319 339.655 146.36C337.45 146.594 335.227 146.713 333.04 147.065C328.915 147.73 327.217 149.497 326.623 153.677C326.311 155.87 326.176 158.088 325.945 160.294C325.912 160.603 325.785 160.901 325.703 161.204C325.573 161.198 325.444 161.192 325.314 161.185C325.217 160.224 325.134 159.261 325.019 158.301C324.793 156.42 324.674 154.516 324.286 152.668C323.534 149.082 321.713 147.538 317.795 147.025C315.596 146.738 313.382 146.582 311.175 146.352C310.9 146.323 310.632 146.208 310.36 146.133C310.365 145.999 310.37 145.866 310.375 145.732C311.364 145.631 312.355 145.545 313.342 145.425C315.187 145.201 317.042 145.029 318.87 144.708C322.09 144.141 323.895 142.12 324.357 138.933C324.706 136.529 324.93 134.106 325.213 131.692C325.247 131.396 325.303 131.103 325.348 130.808L325.721 130.773C325.799 131.128 325.911 131.478 325.949 131.837C326.19 134.077 326.293 136.339 326.668 138.555C327.383 142.777 329.257 144.449 333.647 144.981C335.778 145.239 337.919 145.412 340.056 145.631C340.287 145.655 340.514 145.732 340.743 145.785C340.758 145.909 340.772 146.033 340.787 146.157Z" fill="#233CFB"/>
<path d="M91.3531 55.6022C91.2493 54.4829 91.1792 53.3591 91.033 52.2457C90.787 50.3682 90.5562 48.486 90.2031 46.6276C89.6747 43.8464 87.8864 42.2022 85.1565 41.7249C82.7658 41.307 80.3348 41.116 77.9222 40.8205C77.4203 40.759 76.9203 40.6796 76.419 40.6082C76.4151 40.4555 76.4098 40.3028 76.4052 40.1501C77.1386 40.0655 77.872 39.9789 78.6047 39.8949C80.5953 39.6675 82.6044 39.5452 84.5719 39.1928C88.3844 38.5099 90.0814 36.5609 90.5932 32.4303C90.8571 30.3009 91.0224 28.1582 91.2612 26.0255C91.2909 25.7617 91.4993 25.5178 91.6249 25.2646C91.742 25.5244 91.9331 25.7756 91.9662 26.046C92.2664 28.4947 92.4244 30.9666 92.8457 33.3929C93.4799 37.0449 95.1134 38.6276 98.7659 39.2113C101.129 39.5888 103.526 39.7627 105.907 40.0357C106.206 40.0701 106.499 40.1514 106.796 40.2109C106.806 40.3286 106.816 40.4476 106.827 40.5653C106.347 40.6505 105.872 40.7629 105.389 40.8152C103.22 41.0525 101.032 41.1682 98.8823 41.5219C94.9104 42.1757 93.2101 44.0242 92.6467 48.1958C92.3497 50.3933 92.2003 52.61 91.9714 54.8168C91.9423 55.0958 91.8385 55.3682 91.7691 55.6432C91.6309 55.6293 91.492 55.6161 91.3531 55.6022Z" fill="#233CFB"/>
<path d="M283.305 88.7332C284.863 89.4604 285.261 89.3137 285.717 87.9015C284.819 88.2109 284.062 88.4721 283.305 88.7332ZM273.684 95.5281C273.086 96.293 272.58 96.9409 271.973 97.7164C273.854 97.6469 274.211 97.1994 273.684 95.5281ZM274.869 96.7908C278.394 95.0521 281.74 93.1408 284.24 89.9887C282.902 89.7804 281.61 89.3771 280.394 90.2346C278.877 91.3056 277.367 92.3872 275.82 93.4145C274.602 94.2237 274.207 95.2471 274.869 96.7908ZM282.829 81.2223C283.906 81.2223 284.983 81.2085 286.06 81.2257C288.71 81.266 289.752 82.7224 288.928 85.2683C287.788 88.7868 285.784 91.771 282.743 93.8436C279.973 95.7317 276.988 97.3151 274.046 98.9401C272.653 99.7103 271.096 99.9879 269.473 99.8755C268.402 99.8022 267.32 99.8643 266.243 99.861C264.11 99.8544 262.86 98.6492 262.756 96.5065C262.65 94.3447 263.234 92.3845 264.569 90.6868C267.916 86.4253 272.229 83.4457 277.311 81.7003C279.018 81.1139 280.969 81.2356 282.809 81.0333C282.816 81.0967 282.823 81.1595 282.829 81.2223Z" fill="#233CFB"/>
<path d="M171.569 140.445C175.502 140.169 184.659 133.571 185.322 130.536C179.782 132.541 175.152 135.52 171.569 140.445ZM168.031 142.507C167.385 142.507 166.739 142.508 166.092 142.507C163.65 142.504 162.457 141.401 162.377 138.946C162.314 137.03 162.838 135.235 163.988 133.698C167.429 129.1 172.057 126.125 177.376 124.162C178.093 123.899 178.926 123.89 179.708 123.878C181.861 123.847 184.017 123.834 186.171 123.894C188.319 123.954 189.354 125.382 188.758 127.454C187.67 131.242 185.496 134.353 182.302 136.597C179.761 138.381 177 139.86 174.29 141.393C172.358 142.484 170.22 142.709 168.031 142.507Z" fill="#233CFB"/>
<path d="M382.428 83.6871C380.558 88.9363 378.694 94.1881 376.797 99.4281C376.703 99.6866 376.321 100.016 376.071 100.018C371.482 100.037 366.893 100.011 362.304 99.9913C362.281 99.9913 362.258 99.9451 362.029 99.7011C368.726 94.2371 375.501 88.9026 382.428 83.6871Z" fill="#233CFB"/>
<path d="M215.654 91.2259C217.478 89.117 219.3 87.0067 221.124 84.8984C221.969 83.9233 222.773 82.9059 223.687 82.0001C224.068 81.6233 224.685 81.2809 225.201 81.2742C229.538 81.2167 233.877 81.2478 238.215 81.2339C238.825 81.2326 239.31 81.2604 239.567 81.9704C239.822 82.6758 239.73 83.2093 239.172 83.6873C238.627 84.154 238.071 84.6082 237.557 85.1067C236.927 85.7169 236.22 85.9456 235.331 85.9331C232.176 85.8868 229.02 85.8855 225.865 85.9397C225.224 85.9509 224.515 86.1559 223.962 86.4811C221.221 88.089 218.52 89.7669 215.806 91.4203C215.755 91.3555 215.705 91.2907 215.654 91.2259Z" fill="#233CFB"/>
<path d="M199.054 59.5113H193.095C194.021 56.769 194.906 54.1457 195.896 51.2111C197.005 54.1252 198.009 56.765 199.054 59.5113Z" fill="#233CFB"/>
</svg>
