<svg xmlns="http://www.w3.org/2000/svg" viewBox="0 0 347.49 111.05">
    <defs>
    <style>.cls-1{fill:#231f20;}</style>
    </defs>
    
    <title>Asset 1</title>
    
    <g id="Layer_2" data-name="Layer 2">
    <g id="Layer_1-2" data-name="Layer 1">
    
    <path class="cls-1" 
    d="M52.1,9.68C46.88-2,29.53-2.92,21.47,5.82c-8.6,9.31-4.93,22.73-1.88,33.52,1.31,4.61,2.67,9.12,2.32,
    14-.16,2.29-.64,7.15-3.21,8-4.36,1.51-7.09-4.26-7.4-7.47-.44-4.55,1.33-10.37-.65-14.55a2.22,2.22,0,0,
    0-2.51-1c-4.6,1.7-6.93,8-7.77,12.36-1.1,5.81.22,12.2,4.36,16.58,8,8.48,21.73,8,26.83-3C36.45,53.66,
    32.91,42.67,30,32.15c-1.41-5-3.75-12.23-.73-17.13,3.92-6.38,10.25-2.18,14.29,1.27,4.84,4.14,11.09-.95,
    8.55-6.61Z"/>
    
    <path class="cls-1"
    d="M46.15,36.65c-5.91-.1-9.3,5.84-8.24,11.17a10.39,10.39,0,0,0,9.62,8.42A10.09,10.09,0,0,0,57.8,
    47.35c.57-4.12-.3-9.64-4.59-11.49A3.15,3.15,0,0,0,49,37a8.47,8.47,0,0,0-1.21,2.61,13,13,0,0,0-.38,
    3.35,14.71,14.71,0,0,1-.12,1.62c.17-1-.21.55-.24.62.27-.78.16-.07-.17.2-.51.41.69-.52.8-.61.39-.
    13.3-.11-.28.06l.56-.1c1.37.17-.37-.42.88.23l.53.42q-.66-.69.12.24c-.37-1,.14.82,0,.09s-.08,1.25,
    0,.15c.08-1.25-.49,1.12,0,0,0,.13-1.13,1.75-.44.91L50,45.57c-.46.62-.47.69,0,.22,3.33-3.32.81-9-3.78-9.14Z"/>
    
    <path class="cls-1" d="M63.61,79.34c4.53-7.13,4.74-17.39,6-25.54a175.53,175.53,0,0,1,3.26-17.35,
    31.39,31.39,0,0,1,1.93-5.78s1.19-2.28,1.33-2.14c.42.44-4.67.52-.61.78,4.82.3,7-4.51,
    4.06-8.3-3.43-4.48-9.48-2.25-12.17,1.64-2.41,3.47-3.45,7.91-4.23,12-1.13,5.93-1.64,12-2.24,
    18-.83,8.23-3,18.2-.65,26.28a1.81,1.81,0,0,0,3.27.43Z"/>
    
    <path class="cls-1" d="M60.84,38.17c2.56,2.42,6.2,3.24,9.6,3.83,3.57.62,8,1.06,10.55-2a4.2,4.2,0,
    0,0,0-5.72c-2.32-2.83-6.88-3.09-10.28-3.45-3.59-.38-7.14-.3-9.87,2.33a3.57,3.57,0,0,0,0,5Z"/>
    
    <path class="cls-1" d="M88.38,33.24c-2.9,1-3.81,4-4.22,6.78a30.29,30.29,0,0,0-.26,9.78c.62,3.59,3.07,
    7.38,7.14,7.41A7.24,7.24,0,0,0,92.72,57c.18,0,2.31-1,1-.43s.55-.15,1-.44a7.34,7.34,0,0,0,1.25-1,12.75,
    12.75,0,0,0,2.53-4.62C99.4,48,96.65,45,94,46a12.68,12.68,0,0,0-1.37.56c.28-.16-.54-.11.06,0,.24.06,
    2.06.15.39,0-.25,0-2.23-.27,0,0l2.35,1.36c-.33-.27-.64-.54-1-.82-1.36-1.15.51.58.66.8a6.3,6.3,0,0,
    1-.4-.72c.75,1.5.22.59.13.15-.18-.81-.35-1.6-.49-2.42-.08-.47-.16-.94-.23-1.41.14.93,0,.29,0-.27a42.58,
    42.58,0,0,0-.57-5.87c-.52-2.25-2.38-5.11-5.18-4.12Z"/>
    
    <path class="cls-1" d="M94.07,29.67a4.71,4.71,0,0,0,3.23-1.34,4.56,4.56,0,0,0,0-6.46,4.78,4.78,0,0,
    0-3.23-1.34,4.72,4.72,0,0,0-3.24,1.34,4.59,4.59,0,0,0,0,6.46,4.78,4.78,0,0,0,3.24,1.34Z"/>
    
    <path class="cls-1" d="M102.8,43.05c-.21,4,4.33,6.52,7.89,6.11s6.14-3,7.41-6.21c1.15-2.87,
    1.42-6.4-.33-9.12a7.07,7.07,0,0,0-9.58-2.1c-6.47,4-7.9,16.65-2.5,21.94,1.94,1.9,7.67,5.21,9.5,
    1.59.82-1.62-.18-2.89-.94-4.23a14.4,14.4,0,0,1-2.12-5.7,13.83,13.83,0,0,1,.77-4.93c0-.15.35-.64.34-.73,
    0-.36-2.39-.85-3.46-1.17-.68-.2.26-1-.26-.61s-.62,1.55-1,1.78c-.79.49.31.12-.75.18a10.27,10.27,0,0,
    0-2.7.22,3.19,3.19,0,0,0-2.27,3Z"/>
    
    <path class="cls-1" d="M199.82,9.15c-6.52.71-10.45,13.06-12.46,18.2-2.77,7.09-6,17-1.34,24a10.34,10.34,
    0,0,0,10.47,4.3c2.71-.41,7.51-2.39,4.81-5.85-1-1.25-2.67-1.46-3.82-2.41a5,5,0,0,
    1-1.58-2.31c-1-3-.36-6.52.37-9.69a110.41,110.41,0,0,1,4.41-13.74c1.18-3.2,3.8-7.61,1.9-10.92a3.11,3.11,0,0,0-2.76-1.59Z"/>
    
    <path class="cls-1" d="M207.87,35.66c-3.55,8.68-4.45,18.71-6.25,27.88-1.52,7.69-2.28,15.54-4.23,
    23.15a46.12,46.12,0,0,1-1.53,5.06c-.52,1.38-2.24,3.45-2.41,4.78q-.7.27-.72.84c1.34.36,1.72.25,
    1.14-.35-.2-.72-.66-1.45-.9-2.2-1.73-5.4-.63-11.35-2.39-16.79a2.81,2.81,0,0,0-4.64-1.23c-5.59,
    5.65-6.92,15.58-5.09,23.12,2.76,11.3,16,15.42,23.35,5.61,6.41-8.6,6.92-20.79,7.86-31.07,1.15-12.5,
    4-25.13,4-37.69,0-5.05-6.53-5.24-8.21-1.11Z"/>
    
    <path class="cls-1" d="M214,28.35l1-.4.8-.62a3.55,3.55,0,0,0,.93-1.6,3.43,3.43,0,0,0-.18-2.36,3.57,
    3.57,0,0,0-3.31-2.22,3.76,3.76,0,0,0-3.12,1.79,3.51,3.51,0,0,0-.43,2.31,3.27,3.27,0,0,0,1,
    2.08c.89.7,2.16,1.51,3.37,1Z"/>
    
    <path class="cls-1" d="M221,38.46c6.24,7,19-1.17,18.53-9.38A5.06,5.06,0,0,0,237,24.69c-6.1-2.81-11.77-1.84-15.89,
    3.78a18.3,18.3,0,0,0-1.85,18.13,11.86,11.86,0,0,0,6.69,6.13c2.52.91,8.1,1.13,9.71-1.55,
    2-3.3-2.41-4.39-4-5.36a5.68,5.68,0,0,1-2.84-4.12,12.86,12.86,0,0,1,1.17-7.11,14.77,14.77,0,0,1,
    .94-1.59c-.6.9,1-1,.2-.16.12-.12-.17-.07-.27-.16L230,26.52A3.75,3.75,0,0,1,227,29c-2.42.65-4,.68-6,
    2.37s-1.66,5.19,0,7.06Z"/>
    
    <path class="cls-1" d="M259.75,31.53c2.72-3,.13-6.94-3.32-7.71-4.25-.94-8.31,2.31-10.86,5.33C240.21,35.5,234.49,
    48.87,244,54.5c10,5.9,15.67-6.18,17.88-13.71A104.47,104.47,0,0,0,265,24.44c.51-4.07.48-8,1.57-11.91l-7.78-2.15c-1.33,
    7.18-1.8,14.52-3,21.73-.76,4.63-1.63,9.35-2.06,14-.31,3.38-.15,7.6,2.61,10a5.59,5.59,0,0,0,6.45.83c1.74-1,
    1.83-2.39,2.72-3.94a2.56,2.56,0,0,0-2.86-3.72c1.18-.27,1.49,2.88,2.32,1.81-.1.13-.18-1.13-.22-.94.13-.62.11-1.92.17-2.77.17-2.32.48-4.61.73-6.92,1.07-9.67,3.57-20.56.9-30.13-1.41-5.06-8.76-2.91-7.78,2.15.08.44.27.91.34,1.34.24,1.47.1.09.1.52a30.51,30.51,0,0,1-.67,4.32c-.57,3.65-1.14,7.29-1.94,10.91-1.28,5.82-2.89,12-6.62,16.23.67-.78.35.68.16-.3.15.75.05-.39.12-.7a25.51,25.51,0,0,1,2.5-7,28.12,28.12,0,0,1,1.84-3c.52-.7,2.42-2.13,2.66-2.88s-.8.11-.69.21c.69.66,2.54.05,3.19-.66Z"/>
    
    <path class="cls-1" d="M291,30.58c-.76-6.08-6.87-7.52-11.82-5A19.72,19.72,0,0,0,269,41.31c-.29,6.39,4.64,14.95,12.08,12.71,3.05-.91,5.38-3.6,6.85-6.3a23,23,0,0,0,1.76-4.23,19.76,19.76,0,0,0,.57-2.39c.09-.54.75-2.28.23-1.58,2.91-4-3.5-8.83-6.8-5.25-8.65,9.35,3,24.61,14.44,21.74a2.71,2.71,0,0,0,1.18-4.47c-4-4.73-9.15-7.24-8.22-14.2L283,39.52l.35.64-.39-3a13.78,13.78,0,0,1-1.53,3.9c-.55.9-1.9,1.91-2.26,2.79-.52,1.25-.35-.4-.09.21l1.64.66a5.83,5.83,0,0,1-.55-1.4,9.55,9.55,0,0,1-.05-2.73A16,16,0,0,1,283.24,34c1.6-2.05,2-2.49,3.79-1.14,1.52,1.13,4.22-.37,4-2.28Z"/>
    
    <path class="cls-1" d="M301.64,7.32c-1.59,5.95-1.83,12.29-2.55,18.4-.74,6.29-1.95,12.9-.61,19.16,1,4.6,6.38,4.9,9.45,2.5a24.22,24.22,0,0,0,4-3.46c.75-.92,2.92-1.35-.1-1.24-2.6.1-1.19-.12-1.13,1.56a29.61,29.61,0,0,0,1.76,8.18c2.24,6,10.33,9.74,15.93,5.84a2.55,2.55,0,0,0,.5-3.92c-2-2.63-4.14-3.58-5.21-6.87s-1.59-6.82-3.41-9.9c-2-3.43-5.26-5.84-9.41-5.09-3.86.7-6.68,3.89-9.8,6l8.51,4.88c.63-6-.43-12.55-.58-18.64-.15-5.82.08-11.82-1.68-17.42-.85-2.72-4.92-2.9-5.69,0Z"/>
    
    <path class="cls-1" d="M330.37,10.11c-4.36,5.58-5,15.45-5.7,22.25-.79,7.41-.35,17.23,7.07,21.31a11.35,11.35,0,0,0,12.37-1.22c2.3-2,5.53-5.85,1.39-7.84-1.75-.84-4.06-.73-5.92-1.37-.34-.12-1.39-1.17-.75-.29-1-1.37-1.4-4.26-1.6-7.35-.28-4.54-.14-9.11-.18-13.66,0-4,0-8.74-2.87-11.83a2.71,2.71,0,0,0-3.81,0Z"/>
    
    <path class="cls-1" d="M168.88,2.5c-3.32,2.87-4.87,7.09-6.63,11a76.47,76.47,0,0,1-7,12.41q-4.65,6.74-9.4,13.4c-2.15,3-4.83,6.07-6.47,9.42-2.87,5.88,1.64,9.71,7.33,9.72,6.37,0,16.14-.17,18.7-7.25a1.69,1.69,0,0,0-1.15-2c-2.64-.91-5.07-.65-7.83-.59-2.55.05-6.2-.57-8.66.05-.52,0-1,0-1.56-.07q-2.88-.7,2,5c.44-.21,1.13-1.79,1.39-2.16,1.79-2.62,3.71-5.16,5.56-7.74,8.12-11.29,17-23.45,20.61-37.15,1.09-4.19-3.89-6.68-6.94-4Z"/>
    
    <path class="cls-1" d="M177.92,21.11a4.12,4.12,0,0,0,0,2.23,3.37,3.37,0,0,0,2.31,2.32,3.3,3.3,0,0,0,4.08-2.32,3.41,3.41,0,0,0-.85-3.22c-.11-.14-.25-.25-.36-.37a3.08,3.08,0,0,0-3-.8,3,3,0,0,0-2.16,2.16Z"/>
    
    <path class="cls-1" d="M176.45,27.87C172.37,30.32,170,35.51,169,40c-.89,3.85-1.83,10.41,3.11,12,3.81,1.22,4.89-3.69,5-6.47.29-5.24,2-9.35,3.91-14.15,1-2.59-2.4-4.8-4.56-3.5Z"/>

    </g>
    </g>

</svg>