<svg xmlns="http://www.w3.org/2000/svg" viewBox="0 0 464.88 347.09"><defs><style>.cls-1{fill:#270e0e;}.cls-2{fill:#d3bf98;}</style></defs><title>nograin</title><g id="Layer_2" data-name="Layer 2"><g id="Layer_1-2" data-name="Layer 1"><path class="cls-1" d="M127,339.59a17.55,17.55,0,0,1-4.83-.68l-6.28-1.8a18.92,18.92,0,0,1-2.32-.85l-6-2.68a17.45,17.45,0,0,1-7.32-6.16L96.65,322a17.43,17.43,0,0,1-2.5-5.6L93.3,313l-3.73,2.05c-.44.24-.88.45-1.33.65l-5.59,2.48a18.34,18.34,0,0,1-1.84.69L76,320.4l-4.65,2.09L65.38,325l-5.6,2.4-.62.26-4.44,1.7-4.09,2.36a17.87,17.87,0,0,1-1.91.95L43,335.09a17.24,17.24,0,0,1-3.61,1.09l-4.73.89a18.16,18.16,0,0,1-3.21.29,17.65,17.65,0,0,1-7.69-1.77l-4.53-2.22a17.47,17.47,0,0,1-8.56-9.19L8.77,319.4a17.44,17.44,0,0,1-.91-10L9,303.76l.81-5,.51-5.48a18,18,0,0,1,.53-2.91l1.51-5.65L13.74,279c.06-.27.14-.54.22-.82l1.7-5.84,1.72-5.83a18,18,0,0,1,.88-2.35l2.1-4.59,1.51-4.71,1.68-5.47,1.59-5.64.12-.39L27,237.76S28.63,232,28.63,232s1.74-5.9,1.75-5.92L32,220.58,33.46,215c.13-.51.29-1,.46-1.51l2-5.73a17.83,17.83,0,0,1,1.34-2.87l-1.92-1a17.38,17.38,0,0,1-6-5l-4-5.21a17.48,17.48,0,0,1-1.77-2.86l-2.83-5.74a17.46,17.46,0,0,1-1.35-3.79L18,175a17.44,17.44,0,0,1-.22-6.75l1-6.51c0-.22.08-.42.12-.61l1.29-6.44a16.61,16.61,0,0,1,.83-2.85l2.36-6.15a17.51,17.51,0,0,1,2.64-4.62l4.1-5.15a18.45,18.45,0,0,1,2.16-2.26l3.79-3.32c-.19-.28-.37-.57-.54-.86l-3.09-5.14c-.3-.51-.58-1-.83-1.56l-2.56-5.46a17.56,17.56,0,0,1-1.05-2.84l-1.59-5.84a17.43,17.43,0,0,1-.61-4.54l0-5.79-.31-5.77a17.43,17.43,0,0,1,.34-4.5L27.12,82c.07-.33.15-.66.23-1L29,75a17.62,17.62,0,0,1,.85-2.44l2.47-5.69a17.48,17.48,0,0,1,1.11-2.15l3.23-5.29a19.69,19.69,0,0,1,1.19-1.73l3.87-4.9a17.69,17.69,0,0,1,4-3.73l5.42-3.61,5.25-3.36a17.64,17.64,0,0,1,2.76-1.44L65,38.26A17.59,17.59,0,0,1,70.77,37l6.27-.3.35,0,5.81-.16h.48a17.43,17.43,0,0,1,5.81,1L95,39.39l.53.2,5.28,2,5.31,2a17.56,17.56,0,0,1,5.83,3.63l4.23,4a17.27,17.27,0,0,1,1.38,1.46l.83,1,.18-.07a17.42,17.42,0,0,1,6.3-1.17,17,17,0,0,1,3.7.4L134.14,54a17.34,17.34,0,0,1,6,2.56l1.64-1a15,15,0,0,1,1.37-.73l5.15-2.44a16.79,16.79,0,0,1,3.11-1.13l5.4-1.4,5.06-1.4,4.23-1.32,4.4-1.92a17.1,17.1,0,0,1,4.08-1.21l5.59-1,5.23-.9L191,41.05a19.32,19.32,0,0,1,2-.31l5.44-.52,4.64-.76,4.23-1.08,4.81-1.79a16.5,16.5,0,0,1,2-.62l4-1,3.74-1.81a17.46,17.46,0,0,1,6.65-1.72l4.38-.25a17.6,17.6,0,0,1,1.44-2.88l2.86-4.63A17.42,17.42,0,0,1,240,20.36l3.88-3.77A17,17,0,0,1,247,14.12l4.66-2.78a17.6,17.6,0,0,1,4.61-1.93l5.29-1.36A17.78,17.78,0,0,1,266,7.5a17.48,17.48,0,0,1,4.43.57l5.23,1.37a17.31,17.31,0,0,1,5.44,2.48l4.45,3a17.69,17.69,0,0,1,4.63,4.66l3,4.46a17.6,17.6,0,0,1,2.52,5.75l1.26,5.3a17.74,17.74,0,0,1,.46,4.65,17.55,17.55,0,0,1,4.39-1.62l3.9-.87,3.63-1.62a17.94,17.94,0,0,1,2.22-.82l5.5-1.61a16.55,16.55,0,0,1,1.72-.41l5-.93L328,30.75l4.86-1.65c.4-.13.77-.25,1.14-.35l5.52-1.45a17.3,17.3,0,0,1,4.47-.58,17.08,17.08,0,0,1,3.49.35l5.59,1.13a17.65,17.65,0,0,1,9.54,5.45L366.51,38a17.57,17.57,0,0,1,4.14,15.16l-1.15,5.7a17.57,17.57,0,0,1-6.37,10.32l-2.81,2.2,2.23,2.94a17.65,17.65,0,0,1,3.53,10.82L366,90.83a17.44,17.44,0,0,1-4.63,11.6,17.82,17.82,0,0,1,2.81,2.88l3.59,4.63a17.53,17.53,0,0,1,3.6,9.2l5.41,1.55a17.38,17.38,0,0,1,8.68,5.7l4,4.83.26.31a17.33,17.33,0,0,1,7.65-1.92l5.7-.1h.3a17.55,17.55,0,0,1,11.05,3.92l4.29,3.5a17.57,17.57,0,0,1,5.93,9.34l1.34,5.37a17.36,17.36,0,0,1,.33,6.81l-.85,5.7-.5,4,.3,4.27a17.43,17.43,0,0,1,0,2.89l-.42,4.47.35,4.48a17.38,17.38,0,0,1,0,3.06l-.55,5.65-.37,5.95-.06.7a17.74,17.74,0,0,1,4-.46h5.8a17.42,17.42,0,0,1,9.37,2.71l4.94,3.13a17.53,17.53,0,0,1,7.9,11.82l1,6a17.48,17.48,0,0,1-5.23,15.68l-4.16,3.93a17,17,0,0,1-3.74,2.7l-6,3.23a17.4,17.4,0,0,1-6.33,2l-6.32.71-6.23,1-.45.07-5.14.71-.17,0-.3.27a17,17,0,0,1-1.89,1.46l-5.32,3.57a17.54,17.54,0,0,1-15.49,2l-5.87-2a17.49,17.49,0,0,1-9.65-8.18l-2-3.61a17.41,17.41,0,0,1-12.07-1.81l-4.71-2.6a17.43,17.43,0,0,1-5.2-4.38l-.44.21-4.32,2c.09.19.19.38.28.58l2.43,5.37a17.9,17.9,0,0,1,1.28,4.1l.93,5.18a17.44,17.44,0,0,1-2.39,12.42l-3,4.82a17.55,17.55,0,0,1-11.69,7.92L328,281.23a17.38,17.38,0,0,1-14.72-4.11L309.73,274l-.32.09-.32,1.64A17.35,17.35,0,0,1,308,279.3l-2.38,5.53a17.41,17.41,0,0,1-9.44,9.28l-5.54,2.27a17.52,17.52,0,0,1-15.07-.87l-5.11-2.81a17.6,17.6,0,0,1-7.76-8.68l-2.05-5a17.86,17.86,0,0,1-1.25-5.16,17.4,17.4,0,0,1-4.75,7.25L250.4,285a17.5,17.5,0,0,1-8.1,4.18l-5.38,1.17-5,1.36-5.26,1.65-5.54,1.83c-.39.12-.79.24-1.2.34l-4.18,1.06-3,1.17-2,1.08L208.15,301c-.4.35-.81.67-1.23,1l-4.68,3.34a17.55,17.55,0,0,1-13.08,3l-5.46-.92a17.64,17.64,0,0,1-8.36-3.87l-1.71,4.86a17.13,17.13,0,0,1-1.17,2.62l-3,5.55a18.41,18.41,0,0,1-1.68,2.52l-4,5a17,17,0,0,1-2.64,2.66l-4.94,4a17.46,17.46,0,0,1-3.45,2.18L147,335.64a17.09,17.09,0,0,1-2.87,1.08l-6.07,1.69a17.2,17.2,0,0,1-3.25.59l-6.34.53C128,339.57,127.52,339.59,127,339.59ZM260.1,257.92a17.32,17.32,0,0,1,.62,4.25l.95-4.61C261.15,257.7,260.63,257.82,260.1,257.92ZM230.65,151.66l.55-.13,5-1.47.72-.2,4.72-1.17a17.4,17.4,0,0,1-3.43-3.32L234.76,141a17.73,17.73,0,0,1-2.38-4.05l-2.25-5.41a17.28,17.28,0,0,1-1.33-5.92l-.23-4.89h0l0,.64L228.3,126l.22,4.84a17.87,17.87,0,0,1-.11,2.83l-.58,4.93-.15,3.77.16,2.05.92,2.55Z"/><path class="cls-1" d="M266,15a9.87,9.87,0,0,1,2.53.33l5.23,1.36a10,10,0,0,1,3.11,1.42l4.44,3a9.86,9.86,0,0,1,2.65,2.66l3,4.46a9.72,9.72,0,0,1,1.44,3.28l1.26,5.31a10,10,0,0,1,0,4.59l-1.24,5.28a10,10,0,0,1-1.06,2.7l-2.68,4.65a9.89,9.89,0,0,1-2.6,3l-5.35,4.08a9.84,9.84,0,0,1-2.29,1.31l-5.07,2.06,1.72,4a10,10,0,0,1,.82,4.44l-.25,5.66.11,5.71a9.53,9.53,0,0,1-.08,1.41l-.73,6c0,.12,0,.23-.05.35l-.79,4.89.26,5a10.83,10.83,0,0,1-.08,1.89l-.72,5.12.15,4.41.31,1.66a10,10,0,0,1,1.91,3.41l.41,1.28.06-.34.5-5.83q0-.45.12-.9l1-5.47,0-5.57c0-.32,0-.64.05-1l.66-6.31.47-5.23-.42-5.35a8.69,8.69,0,0,1,0-1l.16-6.16a9.41,9.41,0,0,1,.15-1.5l1.08-6.12a10.88,10.88,0,0,1,.32-1.28l1.28-4.05a10,10,0,0,1,3.05-4.58l3.34-2.86a10.26,10.26,0,0,1,2-1.3l4.58-2.33,4.3-2.84a8.61,8.61,0,0,1,.83-.49l5.07-2.69a10.25,10.25,0,0,1,2.51-.93l4.64-1,4.32-1.93a8.55,8.55,0,0,1,1.28-.47l5.49-1.61c.32-.09.64-.17,1-.23l5.26-1,4.83-1.28,5.1-1.73L336,36l5.51-1.45a10,10,0,0,1,2.55-.33,9.53,9.53,0,0,1,2,.2l5.6,1.13a10,10,0,0,1,5.45,3.12l3.87,4.3a10,10,0,0,1,2.37,8.67l-1.15,5.7a10.08,10.08,0,0,1-3.64,5.89l-4.32,3.38a9.61,9.61,0,0,1-2.55,1.45L346,70.25l1.65.41a10,10,0,0,1,5.53,3.67l3.38,4.47a10.06,10.06,0,0,1,2,6.18l-.09,5.74a10,10,0,0,1-4.5,8.2l-4.81,3.16a9.87,9.87,0,0,1-3.77,1.49l-6,1-5.2.93-5,1.78c-.3.11-.61.2-.92.28l-5.86,1.46-1.89.49,3.86-.73a9,9,0,0,1,1-.13l5.7-.46,5.05-.94,5.43-1.67a9.85,9.85,0,0,1,2.94-.45,10.53,10.53,0,0,1,1.48.11l5.74.86a10,10,0,0,1,6.43,3.77l3.59,4.63a10,10,0,0,1,2.06,6.87l-.35,4.69a10,10,0,0,1,5.19.09l6,1.71a10,10,0,0,1,5,3.25l4,4.84a10,10,0,0,1,2,3.84l1.46,5.64,1.88-3.31a10,10,0,0,1,8.52-5l5.7-.1h.17a10,10,0,0,1,6.32,2.24l4.28,3.49a10.06,10.06,0,0,1,3.4,5.34l1.33,5.37a10,10,0,0,1,.19,3.89l-.86,5.79-.61,4.85.36,5a9.1,9.1,0,0,1,0,1.65l-.47,5.11.39,5.13a10.11,10.11,0,0,1,0,1.74l-.57,5.79-.36,5.77a1,1,0,0,1,0,.17l-.49,6.24a9.56,9.56,0,0,1-.19,1.29l-.9,4.27,3.84-.8,5.78-2.07a9.92,9.92,0,0,1,3.37-.59h5.8a9.93,9.93,0,0,1,5.35,1.55l4.94,3.12a10,10,0,0,1,4.51,6.76l1,5.95a10,10,0,0,1-3,9L442.59,237a9.91,9.91,0,0,1-2.14,1.55l-6,3.23a10.2,10.2,0,0,1-3.62,1.13l-6.52.73-6.43,1.07-.28.05-5.21.72-2.41.41-1.91,1.7a10.79,10.79,0,0,1-1.08.84L401.66,252a10,10,0,0,1-8.85,1.14l-5.87-2a10,10,0,0,1-5.52-4.68L378.49,241a10,10,0,0,1-1.21-4.46v-.07l-3.62,1.77a10,10,0,0,1-9.23-.23l-4.72-2.61a9.92,9.92,0,0,1-3.68-3.51l-3.43-5.58c-.1-.16-.19-.32-.28-.48a10,10,0,0,1-5,5.15L342,233.42a10,10,0,0,1-4.19.91,9.8,9.8,0,0,1-2.93-.46l0,.07,1.75,4.1,2.59,4.71c.12.22.24.46.34.69l2.44,5.38a10.43,10.43,0,0,1,.73,2.34l.93,5.17a10,10,0,0,1-1.37,7.1l-3,4.82a10,10,0,0,1-6.68,4.53l-5.93,1.07a10,10,0,0,1-8.41-2.34l-4.38-3.87a9.83,9.83,0,0,1-1.72-2l-.13-.2-5.84,1.75-.66.17L303,268l-1.22,6.33a9.94,9.94,0,0,1-.64,2l-2.38,5.52a10,10,0,0,1-5.39,5.31l-5.54,2.27a10.19,10.19,0,0,1-3.79.74,10,10,0,0,1-4.82-1.24l-5.12-2.81a10,10,0,0,1-4.43-5l-2.05-5a10,10,0,0,1-.63-5.33l1-6.37A3.86,3.86,0,0,1,268,264l1.3-6.36a9.6,9.6,0,0,1,.46-1.56l2.32-6c.05-.14.11-.28.17-.42l1.74-4-1,.39-.52.19-6.15,2-.06,0-6.15,2a9.92,9.92,0,0,1-2.59.46l-6.18.3h-.47a10,10,0,0,1-4.08-.88,10.1,10.1,0,0,1,2.07,2.43l2.94,4.88a10,10,0,0,1,1.41,5.88l-.4,5.63a10,10,0,0,1-3.23,6.67l-4.23,3.86a10,10,0,0,1-4.63,2.39l-5.58,1.21-5.3,1.45-5.44,1.71-5.6,1.84c-.23.08-.46.14-.69.2l-4.61,1.16-3.89,1.5-3.18,1.68-3.16,2.72c-.23.2-.47.38-.71.56l-4.67,3.34a10,10,0,0,1-5.82,1.86,10.32,10.32,0,0,1-1.66-.13L185,300a10,10,0,0,1-6.57-4.17l-4.4-6.36a9.92,9.92,0,0,1-1.35-2.87l-.2.63-1.21,5.69a10.06,10.06,0,0,1-.45,1.51l-2.19,5.71-2,5.75a10.08,10.08,0,0,1-.67,1.5l-3,5.56a11.27,11.27,0,0,1-1,1.44l-4,5a9.87,9.87,0,0,1-1.51,1.52l-4.94,4a10.41,10.41,0,0,1-2,1.25l-5.71,2.74a10.83,10.83,0,0,1-1.64.62l-6.08,1.69a9.56,9.56,0,0,1-1.85.33l-6.35.53a7.56,7.56,0,0,1-.83,0,10,10,0,0,1-2.76-.39L118,329.9a10.61,10.61,0,0,1-1.33-.49l-6-2.68a10,10,0,0,1-4.18-3.51l-3.65-5.39a10,10,0,0,1-1.43-3.2l-1.25-5.05a10,10,0,0,1-.24-3.45l.55-5.26c0-.23.07-.46.11-.68l-3.81,2.19-5.27,3.05-.21.12L86,308.48c-.25.14-.5.26-.75.37l-5.59,2.48a10.38,10.38,0,0,1-1.06.39l-5.28,1.66-5,2.27-.18.08-5.61,2.38-5.61,2.41-.37.15-5,1.91-4.61,2.65a10,10,0,0,1-1.09.54l-5.7,2.42a9.79,9.79,0,0,1-2.06.62l-4.73.88a9.37,9.37,0,0,1-1.83.17,10,10,0,0,1-4.39-1l-4.54-2.22a10,10,0,0,1-4.89-5.25l-1.92-4.78a9.89,9.89,0,0,1-.52-5.74l1.18-5.75.88-5.43L17.8,294a9.43,9.43,0,0,1,.3-1.67l1.54-5.74L21,280.77l.12-.46,1.71-5.85,1.72-5.81a9,9,0,0,1,.5-1.34l2.29-5L29,257.17l1.73-5.64,1.62-5.72.06-.23,1.75-5.69,1.63-5.72,0-.1,1.71-5.8,0-.06,1.68-5.61,1.48-5.68c.07-.28.16-.57.26-.85L43,210.33a9.82,9.82,0,0,1,1-2l3-4.75a9.85,9.85,0,0,1,1.81-2.1l-1.72-.38a10,10,0,0,1-2.42-.86l-5.9-3a9.92,9.92,0,0,1-3.43-2.87l-4-5.21a9.91,9.91,0,0,1-1-1.64l-2.83-5.73a9.84,9.84,0,0,1-.77-2.17l-1.47-6.35a10,10,0,0,1-.13-3.86l1.06-6.51.06-.36,1.29-6.42a10.44,10.44,0,0,1,.47-1.63l2.37-6.15a10.33,10.33,0,0,1,1.51-2.64l4.1-5.15a10.68,10.68,0,0,1,1.23-1.29L42.19,135a10,10,0,0,1,5.05-2.36l.44-.07-.55-.57c-.17-.18-.32-.36-.48-.54l-3.8-4.63a9.93,9.93,0,0,1-.84-1.2l-3.09-5.14c-.17-.29-.33-.59-.47-.89l-2.56-5.46a9.26,9.26,0,0,1-.6-1.62l-1.59-5.84a9.92,9.92,0,0,1-.35-2.59l0-6-.32-6a10.06,10.06,0,0,1,.19-2.57l1.26-6.09c0-.19.09-.37.14-.55l1.6-6a10.06,10.06,0,0,1,.48-1.4l2.47-5.69a9.45,9.45,0,0,1,.64-1.22L43,63.32a11,11,0,0,1,.69-1l3.86-4.9a10.35,10.35,0,0,1,2.3-2.13l5.19-3.45.16-.11,5.21-3.33A9.47,9.47,0,0,1,62,47.59l5.8-2.4a10.32,10.32,0,0,1,3.33-.74l6.27-.3h.21L83.4,44h.28a10.15,10.15,0,0,1,3.32.56l5.48,1.93.3.11,5.28,2.05,5.39,2a10,10,0,0,1,3.33,2.07l4.23,4a8.71,8.71,0,0,1,.78.83l3.72,4.38c.19.23.36.45.53.69l.09,0,5.1-2a9.87,9.87,0,0,1,3.6-.67,9.47,9.47,0,0,1,2.11.23l5.62,1.21a9.94,9.94,0,0,1,6.07,4l.51.72A9.75,9.75,0,0,1,140.7,65l4.92-2.89a8.3,8.3,0,0,1,.78-.41l5.16-2.45a10.11,10.11,0,0,1,1.77-.64l5.46-1.41L164,55.74l4.73-1.48,4.78-2.08a9.94,9.94,0,0,1,2.33-.7l5.59-.94,5.41-.93,5.71-1.22a10.63,10.63,0,0,1,1.13-.18l5.7-.55,5.21-.85,4.93-1.27,5.19-1.92a9.17,9.17,0,0,1,1.16-.36l4.83-1.15,4.47-2.17a9.85,9.85,0,0,1,3.8-1l5.51-.31a5.24,5.24,0,0,1,.56,0,10,10,0,0,1,4.12.89l.1-2.37a10,10,0,0,1,1.48-4.87l2.87-4.63a9.77,9.77,0,0,1,1.54-1.91L249.06,22a9.81,9.81,0,0,1,1.84-1.42l4.65-2.77a9.78,9.78,0,0,1,2.63-1.1l5.29-1.36A9.94,9.94,0,0,1,266,15M237.18,73l-.92.47a8.74,8.74,0,0,1-1.45.61L229,76l-5.78,1.87-.6.17-4.07,1,.05.46.41-.13.56-.16,6.3-1.56a9.84,9.84,0,0,1,2.42-.3,9.63,9.63,0,0,1,1.61.13l5.8,1c.27,0,.53.1.79.17l0-.73a9.4,9.4,0,0,1,.11-1.19l.57-3.73M77.31,109.62l4.17-.87.55-.1L86.3,108a10,10,0,0,1-1.65-3.42l-1.54-5.85a10.12,10.12,0,0,1-.18-4.31l1-5.61.78-5.43.2-2.2L84.77,81l-2-.94-3.76-.35-3.2.16-1.92,1.11-2.58,3-2.09,3.12-.73,3.6L68.12,96l-.07,4.16,1.09,3.08,2.2,3.32,1.73,1.73,2.1.94,2.14.43M183,94.17a10.64,10.64,0,0,1,1.34-1.71v-.15l-.18-6.1v-.37c-.21.06-.41.11-.62.15l-5.47,1.13-3.16,1,1.28.65A10.52,10.52,0,0,1,178.11,90l4.22,3.54c.24.2.47.42.69.64m-66.37,22.88,1.38-4.23a10.12,10.12,0,0,1,1.76-3.2l4-5,3.8-5.06q.18-.24.36-.45l3.91-4.62c-.15,0-.3.11-.45.15l-3.77,1-3,2.52a6.12,6.12,0,0,1-.5.39l-3.74,2.75-2.73,3.77a10.12,10.12,0,0,1-1.22,1.4L112,110.73a10.28,10.28,0,0,1-1.84,1.38l.62.26a10,10,0,0,1,2.88,1.89l3,2.79m108.57,43.81,1.34-.49c.4-.14.8-.26,1.21-.36l5.33-1.22,5.21-1.54.41-.11,5.58-1.39a6.85,6.85,0,0,1,.76-.16l5.7-1a10.33,10.33,0,0,1,1.66-.14,9.77,9.77,0,0,1,1.08.06l5.79.63,5.77.39a12.54,12.54,0,0,1,1.37.19l5.92,1.25a10.27,10.27,0,0,1,2.46.86l5.39,2.73.51.28,5.23,3a10.39,10.39,0,0,1,1.81,1.35l3.63,3.41c.06-.12.1-.25.16-.37l2.59-5.27a10,10,0,0,1,4.62-4.6L304,155.9a10,10,0,0,1,4.35-1l.68,0,5.49.38a9,9,0,0,1,1.26.16l5.24,1,.9.15,1.94-3.84a10,10,0,0,1,4.66-4.53l5.24-2.47a10.09,10.09,0,0,1,4.26-.95,10,10,0,0,1,4,.82l5.38,2.32a10,10,0,0,1,3.62,2.67l-.58-.87a10,10,0,0,1-1.52-7.41l.46-2.48L345.16,141l-6,1.53a10.7,10.7,0,0,1-2.25.31l-5.32.12-5.17,1-.15,0-5.63,1-5.92,1.57c-.22.06-.44.12-.66.16l-4.76.92-4.2,2.48-4.77,2.79-4.54,4a10,10,0,0,1-9.72,2l-6.68-2.21a10,10,0,0,1-6.77-8.11l-1.4-3.25a9.9,9.9,0,0,1-.8-3.34l-.23-3.81a10.27,10.27,0,0,1-1.6,1.63l-4.94,3.9a10,10,0,0,1-8.37,1.91l-5.54-1.23a10.06,10.06,0,0,1-5.7-3.6l-3.43-4.37a10.38,10.38,0,0,1-1.36-2.32l-2.25-5.41a9.83,9.83,0,0,1-.76-3.38l-.27-5.61-.51-5.18-.5-3.08c-.13,0-.25.1-.38.13l-5.46,1.34-5.27,1.28-2.49.71c0,.19,0,.38,0,.57L221,121l-.23,5.07.23,5.17a9.75,9.75,0,0,1-.05,1.62l-.62,5.22-.18,4.49.26,3.5,1.33,3.66,1.94,4.8a9.79,9.79,0,0,1,.52,1.67l1,4.71M76.05,144.72a9.77,9.77,0,0,1-1.08-.06L68.8,144l-.53-.07,1.1,4.68a10,10,0,0,1-2.09,8.74l-3,3.6-2.66,4.31L60.16,168l1.75-.07,3.34-.7L69,165.75l3.84-2.81a9.65,9.65,0,0,1,1.1-.69l4.26-2.34,2.91-2.52,3-3.92a9.19,9.19,0,0,1,.64-.76l3.8-4,2.65-3.18.91-2.14v-.44l0-.05-1.9.44a11,11,0,0,1-1.51.22l-5.46.38-5.92.73a9.82,9.82,0,0,1-1.21.07m73,6.95.29,0,2.31-1.46-4.88-1.84-.18-.07.11,1,1.26,1.61,1.09.75m204,2.43.05-.33-.75-1.12c0,.07.07.14.11.22l.59,1.23M162.54,183.93l.68-.17,4.24-1.63,4.78-1.95c.3-.12.6-.23.91-.32l5.06-1.51a9.94,9.94,0,0,1,5.16-.15l5.62,1.33a10,10,0,0,1,5.59,3.58l3.55,4.55a10,10,0,0,1,2.1,6.67l-.3,5.71,4.93-1.6,2.1-.86a10,10,0,0,1-2.72-2.46l-3.33-4.42a10,10,0,0,1-1.95-7.26l.69-5.5c0-.17,0-.33.08-.49-.2-.16-.41-.33-.6-.51L194.9,173a10,10,0,0,1-1.63-1.93L190,166a10.09,10.09,0,0,1-1.09-2.27l-1.12-3.39-2.68,4.37a8.23,8.23,0,0,1-.53.78l-3.74,5-.18.22-4,5A10.09,10.09,0,0,1,174,178l-5.45,3.29a9.87,9.87,0,0,1-1.38.69l-4.65,1.91m-51.87-7.17,2.9-3a10,10,0,0,1,5.49-2.87l-1.32-1.75c-.14-.19-.26-.38-.38-.58l-.3.38-3.72,4.55,0,.05-2.63,3.18M106.81,183l.26-.89a10,10,0,0,1,1.41-2.87l-3,2.79,1.3,1m34.79,5.22a9.91,9.91,0,0,1,3-.45H145l.61-.12a9.37,9.37,0,0,1,2-.22c.31,0,.62,0,.92.05l2.82-.58.9-.24c-.29,0-.59,0-.88,0s-.54,0-.81,0l-6.26-.51a10.69,10.69,0,0,1-1.85-.32l-1.27-.35.31,2.31c0,.13,0,.27,0,.4m-10.25,47.42a9.75,9.75,0,0,1,2.22-.25H134l5.7.24a10.07,10.07,0,0,1,5.69,2.09l.38-3.19v-5.38a8.51,8.51,0,0,1,.07-1.14l.57-5,0-.26-.72.08a10.51,10.51,0,0,1-1.12.06,10,10,0,0,1-7.2-3.06l-1.9-2-.06.89a9.46,9.46,0,0,1-.21,1.4l-1.25,5.77-1.22,5.77a9.85,9.85,0,0,1-.4,1.41l-1,2.56m113,12.95-.13-.09L242.53,247l-1,.8a9.93,9.93,0,0,1,2.84.8M108.79,287.76l1.29-1.25a10,10,0,0,1,3.45-2.2l5.31-2a10.25,10.25,0,0,1,3.54-.64,10,10,0,0,1,3.61.68l5.19,2a10.07,10.07,0,0,1,4.74,3.82l.73-2.82c0-.19.11-.38.17-.57l1.49-4.57.47-4.89a9.38,9.38,0,0,1,.3-1.65l1-3.88-5.52,1.57-5.33,1.77-5.35,2.25-.33.13-4.1,1.56L116.23,280a10.08,10.08,0,0,1-3.28,2l-4,1.45a10,10,0,0,1-.14,4.35m-52-4.62,4.65-1.68,5.17-2.12-3.68-3a10.07,10.07,0,0,1-2.56-3.18,9.42,9.42,0,0,1-.36.93l-2.15,4.71-1.07,4.34M266,0a25.15,25.15,0,0,0-6.23.79l-5.29,1.36a25.21,25.21,0,0,0-6.59,2.75L243.2,7.68a25,25,0,0,0-4.6,3.53L234.72,15a25.25,25.25,0,0,0-3.84,4.78L228.28,24h-.12a24.94,24.94,0,0,0-9.51,2.46l-3,1.46-3.25.77a26.26,26.26,0,0,0-2.9.89l-4.45,1.65-3.51.9-4.07.66-5.22.51a24.48,24.48,0,0,0-2.83.44L184,34.88l-5.1.88-5.55.93a25.11,25.11,0,0,0-5.83,1.74l-4,1.76-3.72,1.16-4.87,1.35-5.34,1.38a24.4,24.4,0,0,0-4.45,1.61l-5,2.39a24.26,24.26,0,0,0-4.36-1.37l-5.62-1.22a25.32,25.32,0,0,0-9.37-.23L117,41.79a24.8,24.8,0,0,0-8.32-5.18l-5.31-2-5.19-2-.75-.28L92,30.39A24.9,24.9,0,0,0,83.68,29H83l-5.77.16-.53,0-6.25.3a24.78,24.78,0,0,0-8.32,1.86l-5.81,2.39a25,25,0,0,0-3.94,2.05l-5.21,3.34-.45.29-5.14,3.43a24.9,24.9,0,0,0-5.76,5.32L31.92,53a25.87,25.87,0,0,0-1.71,2.47L27,60.81a23.47,23.47,0,0,0-1.59,3.07l-2.47,5.69a23.6,23.6,0,0,0-1.21,3.49L20.1,79c-.12.46-.23.92-.32,1.38l-1.27,6.09A25.16,25.16,0,0,0,18,92.93l.3,5.58,0,5.6a24.89,24.89,0,0,0,.88,6.49l1.59,5.84a26.14,26.14,0,0,0,1.48,4L24.87,126c.36.76.76,1.52,1.19,2.24l.41.67a24.29,24.29,0,0,0-2.16,2.38l-4.1,5.15A25.12,25.12,0,0,0,16.43,143l-2.36,6.15a25.27,25.27,0,0,0-1.19,4.07l-1.28,6.42c-.06.31-.12.6-.17.9l-1,6.52a24.83,24.83,0,0,0,.31,9.64L12.16,183a25.58,25.58,0,0,0,1.94,5.42l2.82,5.73a25.31,25.31,0,0,0,2.53,4.09l4,5.21a25,25,0,0,0,4.5,4.57l-1.06,3c-.25.71-.47,1.42-.66,2.14l-1.4,5.4-1.61,5.35-.05.15-1.7,5.78-.06.22-1.59,5.59-1.7,5.53c-.06.19-.12.38-.17.57l-1.57,5.56-1.65,5.38-1.34,4.2-1.92,4.18a25.86,25.86,0,0,0-1.25,3.35l-1.72,5.81L6.76,276.1c-.12.39-.22.78-.31,1.17L5.1,282.84l-1.49,5.55a25.46,25.46,0,0,0-.74,4.17l-.49,5.22-.75,4.62L.51,307.85a24.88,24.88,0,0,0,1.3,14.35L3.74,327A25,25,0,0,0,16,340.11l4.54,2.22a25.18,25.18,0,0,0,15.58,2.11l4.72-.89A25.33,25.33,0,0,0,46,342l5.69-2.42a23.27,23.27,0,0,0,2.74-1.36L58,336.16l3.87-1.48.91-.37,5.6-2.4,5.59-2.38.44-.19,4.26-1.91L83.05,326a25.53,25.53,0,0,0,2.64-1l3.2-1.41a25.59,25.59,0,0,0,1.55,2.61l3.65,5.39a24.87,24.87,0,0,0,10.47,8.79l6,2.68a24.39,24.39,0,0,0,3.32,1.21l6.28,1.81a25.11,25.11,0,0,0,6.9,1c.69,0,1.39,0,2.08-.09l6.35-.53a25,25,0,0,0,4.63-.83l6.08-1.7a24.89,24.89,0,0,0,4.09-1.54l5.71-2.74a24.58,24.58,0,0,0,4.93-3.12l4.95-4a25.56,25.56,0,0,0,3.77-3.8l4-5a25.33,25.33,0,0,0,2.4-3.6l3-5.56c.1-.18.2-.36.29-.55a25.43,25.43,0,0,0,3.13.74l5.45.92a25.17,25.17,0,0,0,4.15.34,24.86,24.86,0,0,0,14.54-4.66l4.67-3.34c.62-.44,1.21-.91,1.78-1.4l1.87-1.6.9-.48,2.21-.85,3.74-.94c.56-.14,1.14-.31,1.7-.5l5.51-1.81,5.08-1.59,4.64-1.27,5.2-1.13a25.07,25.07,0,0,0,11.56-6l1.41-1.3a25.1,25.1,0,0,0,9.95,10l5.12,2.82a25,25,0,0,0,21.52,1.23l5.54-2.27a24.83,24.83,0,0,0,13.49-13.26l.72-1.66A25,25,0,0,0,324.88,289a24.66,24.66,0,0,0,4.46-.4l5.94-1.07A25.08,25.08,0,0,0,352,276.23l3-4.82a24.94,24.94,0,0,0,3.42-17.75l-.37-2.08a25.17,25.17,0,0,0,10.56,2.65,25,25,0,0,0,13.4,11l5.88,2A25.06,25.06,0,0,0,410,264.41l5.32-3.57c.39-.26.78-.54,1.16-.83l3.14-.43.71-.11,6-1,6.13-.69a25,25,0,0,0,9-2.82l6-3.23a24.81,24.81,0,0,0,5.34-3.86l4.16-3.93a24.94,24.94,0,0,0,7.47-22.4l-1-5.95a25,25,0,0,0-11.28-16.89l-4.94-3.13a25,25,0,0,0-13.37-3.87h-1.7l.36-3.61a25.51,25.51,0,0,0,0-4.37l-.3-3.84.36-3.83a24.77,24.77,0,0,0,0-4.13l-.25-3.54.4-3.21.84-5.61a25.06,25.06,0,0,0-.47-9.72l-1.34-5.37a25.13,25.13,0,0,0-8.48-13.35l-4.28-3.49A25.08,25.08,0,0,0,403.34,122h-.43l-5.7.1a25.09,25.09,0,0,0-5.06.61l-.91-1.11a24.89,24.89,0,0,0-12.4-8.13l-1.06-.3a25.07,25.07,0,0,0-4.09-7.83l-2.82-3.63A24.93,24.93,0,0,0,373.49,91l.09-5.74a25.18,25.18,0,0,0-3.17-12.57,25,25,0,0,0,6.44-12.34L378,54.6a25.1,25.1,0,0,0-5.92-21.66l-3.87-4.3a25.19,25.19,0,0,0-13.62-7.79L349,19.72a24.29,24.29,0,0,0-5-.5,24.69,24.69,0,0,0-6.39.83l-5.51,1.45c-.54.15-1.09.31-1.63.49l-4.62,1.57-3.81,1-4.71.88c-.81.15-1.63.35-2.43.58l-5.49,1.61a25.33,25.33,0,0,0-3.19,1.17l-2.8,1.26-.47-2a24.8,24.8,0,0,0-3.61-8.22l-3-4.46a24.89,24.89,0,0,0-6.61-6.65l-4.45-3a24.78,24.78,0,0,0-7.77-3.55L272.29.81A25.09,25.09,0,0,0,266,0Z"/><polygon class="cls-2" points="56.12 155.05 59.63 150.89 58.38 145.54 54.41 141.62 48.78 142.5 43.86 146.81 39.77 151.96 37.4 158.12 36.11 164.54 35.05 171.04 36.52 177.4 39.35 183.13 43.31 188.35 49.22 191.35 55.66 192.74 61.49 192.47 67.37 192.56 72.85 190.42 78.41 188.69 83.37 185.61 88.74 183.24 93.19 179.44 97.64 175.69 101.88 171.69 105.6 167.2 109.32 162.65 112.82 157.88 115.04 152.39 116.46 146.7 116.95 140.88 116.11 135.37 113.9 130.25 110.98 125.44 106.83 121.56 101.62 119.32 96.23 117.53 89.82 117.58 83.54 118.53 77.34 119.84 72.1 118.77 67.31 116.64 63.55 112.88 60.11 107.69 58.03 101.76 58.13 95.48 58.63 89.32 59.86 83.19 63.37 77.95 67.43 73.16 72.95 69.96 79.27 69.65 85.55 70.22 91.69 73.2 95.18 78.7 94.64 84.54 93.81 90.39 92.78 96.18 94.32 102.03 99.21 105.83 105.11 103.48 109.6 99.22 113.25 94.17 118.26 90.5 123 86.54 128.92 84.99 133.29 81.28 133.69 75.78 130.44 71.14 124.83 69.93 119.73 71.89 114.64 73.93 110.28 77.67 109.51 72.77 107.88 68.38 104.16 63.99 99.93 60.02 94.48 57.97 89.16 55.9 83.68 53.98 77.88 54.14 71.61 54.44 65.81 56.83 60.6 60.17 55.41 63.62 51.55 68.52 48.33 73.82 45.86 79.51 44.26 85.5 42.99 91.59 43.33 97.8 43.35 104.03 44.94 109.87 47.5 115.33 50.58 120.47 54.38 125.09 58.55 129.49 63.92 132.31 69.88 134.05 76.05 134.72 82.22 133.97 87.94 133.56 93.56 132.29 98.55 134.92 102.03 139.46 102.14 145.33 99.81 150.78 96.03 155.32 92.01 159.58 88.38 164.29 83.91 168.17 78.7 171.02 73.79 174.61 68.09 176.8 63.14 177.83 58.09 178.04 53.12 177.02 49.73 171.92 50.03 165.73 52.88 160.29 56.12 155.05"/><path class="cls-2" d="M139.19,174.55l6,1.64,6.27.51,6.11-1.54,5.84-2.39,5.45-3.29,4-5,3.74-5,3.27-5.34,2.65-5.79.78-5.63-.17-5.65-.5-5.58-.9-5.52-.49-5.7-2.47-4.78-2.07-4.9,1.89-4.94-2.64-4.47-4.23-3.54-4.91-2.49-5.28-1.75-5.54.26-5.26,1.49-5.35,1.61-5.43,3.78-4.27,5-3.92,5.21-4.19,5.13-2.06,6.29-2.57,5.49-1,6-.28,6-.34,6,1,5.93,1,5.95,2.47,5.52,3.63,4.81,4.27,4.28Zm24.32-56.85.15-.37Zm-26.91,16,2.2-6.18,3.33-5.63,3.5-5.49,4.56-4.51-2.86,4.95-.55,5.79-.11,5.64,1,5.56,2.66,5.15,5.55,2.1,5-2.78,2.12-5-2.08-4.88.67-.62-.81-.73,1.24-4.78,1.72-3.11.53-.58,2.65,7.79,1.19,5.47.07,5.59L168,143l-1.72,6.06-4,4.84-4.44,4.19-5.23,3.31-6.29.49-5.27-3.63-4-5.08-.67-6.51-.37-6.47Z"/><polygon class="cls-2" points="153.01 85.92 158.79 84.03 164.12 81.14 169.83 79.18 175.61 77.42 181.53 76.2 187.3 74.4 193.1 73.93 193.97 79.77 194.18 85.89 194.35 92.02 194.99 98.15 191.44 99.53 188.39 105.08 190.37 110.82 196.06 113.43 195.5 118.45 195.64 124.5 195.97 130.58 194.93 136.62 195.12 142.7 195.85 148.73 196.47 154.79 198.39 160.58 201.68 165.69 205.91 169.59 211.53 168.09 215.67 164 214.44 158.24 212.42 153.27 210.56 148.14 210.16 142.69 210.38 137.25 211.03 131.65 210.78 126.01 211.04 120.4 211.41 114.77 210.94 107.94 215.95 106.01 221.35 104.47 226.8 103.14 232.25 101.81 237.04 98.9 237.78 93.02 234.07 88.37 228.28 87.42 221.97 88.99 215.77 90.92 209.43 92.64 209.11 87.14 208.77 81.75 208.18 76.36 208.1 70.82 214.24 69.89 220.13 68.38 225.91 66.5 231.69 64.6 237.09 61.82 240.25 57.35 239.42 51.97 235.07 48.63 229.56 48.94 224.12 51.58 218.22 52.99 212.54 55.1 206.67 56.6 200.7 57.58 194.67 58.16 188.76 59.43 183.16 60.39 177.53 61.34 172.26 63.64 166.85 65.33 161.38 66.85 155.84 68.28 150.69 70.72 145.77 73.61 142.47 77.81 143.49 83.05 147.4 87.35 153.01 85.92"/><polygon class="cls-2" points="257.5 135.81 262.44 131.91 264.1 126.58 262.41 121.39 260.84 120.27 259.74 114.32 259.54 108.31 260.37 102.34 260.06 96.32 261.01 90.39 261.75 84.44 261.64 78.42 261.9 72.45 259.71 67.43 254.58 64.94 249 66.96 247.38 72.45 246.5 78.26 246.31 84.08 246.29 89.93 245.78 95.73 244.68 101.5 244.48 107.35 245.43 113.16 246 118.93 246.28 124.79 248.53 130.2 251.96 134.57 257.5 135.81"/><polygon class="cls-2" points="86.19 279.65 81.1 282.76 76.07 286.03 70.6 288.52 65.04 290.8 59.4 292.83 53.53 294.35 47.85 296.44 42.4 299.02 43.82 293.13 45.64 287.34 46.92 281.4 48.38 275.5 50.91 269.94 52.07 263.92 54.33 258.28 55.93 252.41 58.58 246.9 59.71 240.88 61.79 235.17 64.06 229.51 65.63 223.64 66.47 217.59 66.14 211.8 61.26 208.41 55.46 208.96 52.45 213.7 50.4 219.44 48.88 225.3 47.13 231.09 45.42 236.9 43.77 242.73 41.98 248.52 40.34 254.36 38.56 260.15 36.71 265.93 34.17 271.47 32.45 277.29 30.75 283.11 29.33 289.01 27.76 294.88 27.19 300.95 26.22 306.92 25 312.87 26.93 317.65 31.47 319.86 36.19 318.98 41.89 316.57 47.17 313.52 52.88 311.33 58.5 308.92 64.13 306.53 69.73 304.02 75.57 302.18 81.16 299.71 86.51 296.78 91.78 293.73 97.12 290.65 99.11 285.27 96.98 280.02 91.64 277.49 86.19 279.65"/><polygon class="cls-2" points="76.68 228.02 74.33 233.57 73.19 239.45 72.09 245.33 70.71 251.15 69.71 257.04 68.97 262.99 69.26 268.6 73.87 272.36 79.51 271.13 83.33 266.95 84.71 261.13 85.86 255.26 86.43 249.29 87.9 243.49 89.03 237.62 90.92 231.94 90.68 226.05 85.62 223.08 80.07 223.73 76.68 228.02"/><polygon class="cls-2" points="133.57 245.37 127.48 247.64 121.09 249 114.92 251.94 117.49 246.28 119.63 240.84 120.88 235.09 122.92 229.59 124.14 223.78 125.4 217.98 125.84 212.05 126.64 206.17 128.23 200.44 129.85 194.75 131.66 189.13 130.91 183.53 126.36 180.38 120.72 180.78 116.66 184.94 114.89 190.86 113.95 196.96 112.05 202.85 111.82 209.06 109.93 214.97 109.63 221.18 108.31 227.21 106.4 232.89 104.61 238.59 102.48 244.17 100.54 249.81 99.13 255.59 97.35 261.29 96.98 267.24 99.16 272.14 104.19 274.5 109.55 272.56 114.2 268.38 120.04 266.16 125.75 263.76 131.65 261.8 137.65 260.1 141.96 256.16 142.01 250.53 139.28 245.61 133.57 245.37"/><polygon class="cls-2" points="428.12 216.69 421.67 219 414.83 220.42 407.85 220.68 402.58 222.37 403.87 216.08 404.94 209.92 406.24 203.8 406.73 197.56 407.1 191.61 407.68 185.65 407.22 179.68 407.78 173.71 407.35 167.72 408.09 161.77 408.97 155.87 407.63 150.5 403.34 147 397.64 147.1 394.89 151.95 393.14 158.09 392.99 164.44 392.86 170.77 393.1 177.1 392.68 183.43 392.21 189.74 392.24 196.09 390.92 201.76 390.46 207.55 389.66 213.29 388.02 218.88 387.61 224.67 387.1 230.43 387.27 236.21 390.21 241.62 396.09 243.66 401.4 240.09 405.46 236.47 410.86 235.55 416.23 234.81 422.92 233.69 429.7 232.93 435.72 229.7 439.88 225.76 438.86 219.81 433.92 216.69 428.12 216.69"/><polygon class="cls-2" points="185.1 202.64 189.94 199.6 190.24 193.81 186.69 189.26 181.07 187.93 176.01 189.44 171.14 191.43 166.24 193.31 161.1 194.59 153.76 196.62 148.59 197.68 147.69 197.42 144.83 198.02 144.55 197.75 139.99 202.26 140.23 208.38 144.54 212.85 149.6 212.28 154.64 211.97 156.84 211.2 156.02 217.2 156.44 223.19 155.76 229.12 155.77 235.12 155.06 241.05 154.41 246.99 152.76 252.78 152.56 258.79 151.55 264.67 150.29 270.51 148.73 276.28 148.16 282.26 146.33 287.88 144.84 293.57 142.46 298.96 138.87 303.72 133.51 305.7 128.03 307.33 125.76 306.05 127.49 304.05 130.09 298.96 127.56 293.68 122.38 291.66 117.06 293.67 113.26 297.38 110.43 301.91 109.88 307.17 111.14 312.22 114.79 317.61 120.75 320.29 127.03 322.09 133.38 321.56 139.45 319.86 145.16 317.12 150.1 313.12 154.07 308.16 157.12 302.6 159.19 296.7 161.44 290.86 162.74 284.74 164.59 278.73 165.1 272.46 165.93 266.26 167.52 260.17 168.53 254.34 169.11 248.45 169.29 242.52 170.47 236.7 170.49 230.76 171.26 224.89 171.49 218.98 171.89 213.08 171.64 207.16 171.68 206.58 178.4 204.57 185.1 202.64"/><path class="cls-2" d="M234.53,257.41l-5.21,2.14-5.4,1.53-5.66.55-5.4,1.53-5.18,2.29L202.29,267l-4.92,1.95.7-5.89,1.21-6.1-.41-.43.51-.36,5-3.61,5.15-3.38,5.82-2.07,5.91-1.7,5.81-2.08,5.94-1.57,4.45-3.56.32-5.65-3-5-5.85-.49-5.86,1.68-5.82,1.85-5.7,2.17L206,235l-5.55,2.13.8-4.34.18-6.65,5.72-2.3,5.5-2.37,5.56-2.27,5.87-1.35,5.64-2.05,4.23-4,1-5.57-3.5-4.76-5.63,0-6,1.73L214,205.5l-5.72,2.34-5.89,1.9-5.48,2.87-5.59,2.6L186,218.37l-4.55,4.17L178.86,227l1.74,5.21,4.63,2.62-.15,8.13,0,5.06-.13,5.07-.48,2.24-.32,2.92-2.07,6.2-.55,6.5-.26,6.45.88,6.38,4.4,6.36,5.46.91,4.67-3.33,4-3.47,4.71-2.48,5-1.93,5.2-1.3,5.67-1.87L227,274.9l5.73-1.56,5.84-1.27,4.23-3.87.41-5.63-2.95-4.88Zm-36.39-23,.11-.44.08.74Z"/><polygon class="cls-2" points="282.72 146.59 282.57 147.15 289.26 149.36 294.51 144.77 300.1 141.5 305.76 138.17 312.19 136.91 318.5 135.23 324.53 134.13 330.54 132.94 336.73 132.8 342.68 131.28 348.62 129.78 353.48 126.59 353.92 120.66 350.34 116.03 344.59 115.17 338.62 117.01 332.49 118.16 326.26 118.65 320.14 119.8 313.99 120.81 307.87 122.01 302 124.11 296.23 125.81 296.82 119.71 298.49 113.58 298.93 109.09 300.24 108.5 304.55 105.17 309.38 102.48 314.63 100.74 319.99 99.37 325.89 97.9 331.67 95.84 337.68 94.77 343.69 93.72 348.49 90.57 348.58 84.83 345.2 80.36 339.64 78.95 334.02 80.85 328.26 82.01 322.34 82.46 316.82 84.65 310.95 85.55 305.42 87.61 300.24 90.04 299.95 85.21 300.54 80.2 300.84 75.41 305.81 71.73 311.6 69.15 317.72 67.5 323.83 65.91 329.8 63.85 335.82 61.89 342.12 61.03 348.03 58.74 352.34 55.36 353.49 49.66 349.62 45.35 344.02 44.22 338.51 45.67 333.1 47.51 327.58 48.97 321.95 50.03 316.46 51.63 311.21 53.98 305.58 55.23 300.51 57.92 295.74 61.07 290.65 63.66 287.31 66.51 286.02 70.56 284.93 76.69 284.78 82.84 285.26 89.03 284.71 95.17 284.05 101.56 284 107.97 282.87 114.28 282.32 120.55 281.25 126.7 279.94 132.85 280.45 141.33 282.72 146.59"/><path class="cls-2" d="M289.44,220.24l1.87-5.48,2.13-5.4.69-5.77-.06-5.77-.42-5.78-2.24-5.33-2.68-5.06-3.41-5-4.41-4.14-5.23-3.05-5.39-2.73-5.91-1.24-6-.41-6-.65-5.69,1-5.59,1.39-5.51,1.63L230,169.76l-5.4,2L219,173.25l-5.41,2-4.06,3.95-.68,5.51,3.33,4.41,5.46.79,5.46-1.65,5.21-2.4,5.49-1.57,5.49-1.58,5.73-1.94,0,6.09,1.41,5.62,0,5.73-.47,5.74.55,5.71-.19,6.92-.41,6.91.74,6.88-.64,6.39,4.82,4.25,6.18-.29,6.15-2,6.15-2,6-2.36,6-3.22,4.08-5.44Zm-13.67-6.46-3.58,5-5.53,2.68-5.74,2.23-.18-5.63.7-5.54-.35-5.55,0-5.4.27-5.42-.18-5.41-.73-5.37-.47-5,5.58,1.14,5.57,2.53,4,4.59,3.41,5.66,1.05,6.65-1,6.7Z"/><path class="cls-2" d="M317.15,196.85l-3-4.38-5.41-.45-4.66,3.19-.82,5.54.07,1.7-.4.57L302.1,205l-1.81,3.1-1.91,4.6L295.8,217l-2.29,6.25-2.22,6.26-2.73,6.06-1.94,6.21L284,247.66l-2.59,5.93-2.31,6.06L277.8,266l-1,6.37,2.05,5,5.12,2.81,5.54-2.27,2.38-5.52,1.3-6.75,1.42-6.9,2,.41,6.72-1.52,6.58-2,6.77-1.52.21.53,3.62,5.47,4.38,3.87,5.93-1.07,3-4.82-.94-5.18-2.44-5.37-2.82-5.14L325.33,237l-1.28-5.74-1.88-5.57-.7-5.84-1.28-5.72-1.13-5.75-.57-5.84Zm-15.76,46.29,1.92-5.32,2.17-4.89,2.38-4.78,1.77,6.08,1.57,6.18-4.82,1.29Z"/><path class="cls-2" d="M375.23,216.62l.15-.08Z"/><path class="cls-2" d="M366,135.8l-6,1.92-1.22,6.51,3.67,5.48.64.6-.39.22.45.23.21,2.41-.82,5.08.52,5.07-.45,5-.64,5.19-5.7-1.57-5.6-1.28-5.93-.52.87-3.43.06-1.9.33-2.37-2.53-5.29L338,154.86l-5.24,2.47-2.6,5.14,0,5.26-5.53-.51-5.43-.88-5.41-1.07-5.49-.37-5.25,2.53-2.58,5.28,2.74,5,5.08,2.3,6.44,1.22,6.5.56,6.75.41-1.65,5.93-.64,5.86-.08,5.89.27,5.86,1.46,5.67,2.07,5.45,3.44,4.71,4.9,2.77,5.32-2.45,1.83-5.43-1.91-5.1-2.4-5.4,0-5.82.58-5.75,1.1-5.66.39-3.72,5.7.94,6,.67,5.4,2-.78,6.22.44,6.57-.57,6.5.77,6.68,1.48,6.47,3.43,5.57,4.72,2.61,5-2.44,2.95-5-2.14-5.55v0l.11.46,0-.57-.41-.34-.21-2.13-.49-.47.29-.56-.5-5.44.4-5.45-.2-7,1-6.9,1.33-8.15.05-5.93.64-6.35.78-6.31.45-6.36-.79-6.31-1.58-6.1-4-4.84Zm8.62,80.77.2.09-.19-.15Zm-11.86-67.81-.07-.16Zm-.1-.16v0Zm3.34,2.2-.67-.07Z"/><path class="cls-2" d="M256.43,54.16l.54.64.1.11.43-.28,0,.5,6.82.61,6.29-2.56L276,49.1l2.68-4.65,1.23-5.28-1.25-5.31-3-4.46-4.44-3L266,25l-5.28,1.36L256,29.14l-3.89,3.77-2.86,4.63L249,44l2.12,6.2Zm5.34-17.57,1.42-.5.79-.33.94-.73.68.32.09.11.87-.42.8.34.44.23.19.68.62.57.75,1,.47,2.81-4.36,3.91-4.57,1-2-1.54-.52-1.32.23-.22-.34-.26.68-.74.44-1.42Z"/><path class="cls-2" d="M103.17,212.26l2.2-4.92,1.46-5.17-1.46-5.2-2.69-4.61-4.38-3.24L93,187.68l-5.17,1.94-4.73,2.55-4.23,3.49-2.31,5L75.9,207l2.23,6.2L83.55,217l.52.64-.08.52.58-.69.09.32,6.61.47,6.48-1.83Zm-6.91-8.78-3.63,4.42-4.59.24-2-1.23-.42-1.26-.07-.16.39-.32-.76-.85.69-1.56L89,199.87l1-1.09.84-.37,1.24.16.41-.89.17.33.84.52,1-.59.34.56.5.46.23.89.49,1.08Z"/></g></g></svg>