<svg xmlns="http://www.w3.org/2000/svg" viewBox="0 0 392.03 99.22"><defs><style>.cls-1{fill:none;}.cls-2{fill:#34214f;}</style></defs><title>dark</title><g id="Layer_2" data-name="Layer 2"><g id="Layer_1-2" data-name="Layer 1"><path class="cls-1" d="M76.62,16.47c-3.53.57-7,1.27-10.33,2.09a46.16,46.16,0,0,0-8.46,13.27c3.81-.76,7.86-1.42,12.08-2A50.65,50.65,0,0,1,76.62,16.47Z"/><path class="cls-1" d="M94.13,71.22v-.08c-3.8-.09-7.54-.27-11.14-.52.13.64.28,1.26.43,1.88C87,72.13,90.55,71.7,94.13,71.22Z"/><path class="cls-1" d="M123.12,82.92a49.36,49.36,0,0,0,6.95-13.47c-3.24.4-6.59.73-10,1l-1.55.28A63.3,63.3,0,0,1,114.2,84C117.2,83.73,120.2,83.37,123.12,82.92Z"/><path class="cls-1" d="M87.39,84.07c2.71.23,5.47.38,8.21.46-.48-3-.89-6.47-1.22-10.2q-5.1.63-10.18,1.16A55.78,55.78,0,0,0,87.39,84.07Z"/><path class="cls-1" d="M104.39,84.56c.53-3.31,1-7.27,1.38-11.78q-5.3.8-10.63,1.46c.36,3.9.78,7.38,1.26,10.32C99,84.63,101.77,84.63,104.39,84.56Z"/><path class="cls-1" d="M86.59,84a57.49,57.49,0,0,1-3.11-8.44q-2.91.3-5.81.55l-4,.33a45.82,45.82,0,0,0,4,6.48C80.59,83.37,83.59,83.73,86.59,84Z"/><path class="cls-1" d="M113.4,84.07a62.76,62.76,0,0,0,4.36-13.21c-3.71.64-7.46,1.24-11.21,1.81-.35,4.36-.81,8.4-1.36,11.86C107.93,84.45,110.69,84.3,113.4,84.07Z"/><path class="cls-1" d="M130.38,68.49l-2,.39,1.92-.22Z"/><path class="cls-1" d="M113,84.85c-2.63.21-5.3.36-8,.44-.85,5-1.93,8.74-3.21,10.35C106.09,94.9,110,91,113,84.85Z"/><path class="cls-1" d="M87.77,84.85C90.83,91,94.7,94.9,98.94,95.64c-1.29-1.61-2.36-5.32-3.21-10.35C93.07,85.21,90.4,85.06,87.77,84.85Z"/><path class="cls-1" d="M122.49,83.77c-2.85.42-5.76.77-8.67,1-2.49,5.07-5.52,8.76-8.87,10.54C111.65,94,117.71,89.87,122.49,83.77Z"/><path class="cls-1" d="M87,84.79c-2.92-.25-5.82-.6-8.67-1C83.08,89.87,89.14,94,95.84,95.33,92.49,93.55,89.46,89.86,87,84.79Z"/><path class="cls-1" d="M72.87,76.51c-3.21.25-6.37.45-9.46.62.91,1.22,1.85,2.4,2.88,3.53,3.28.81,6.75,1.52,10.33,2.09A46.25,46.25,0,0,1,72.87,76.51Z"/><path class="cls-1" d="M77.27,83.62c-3.46-.54-6.82-1.2-10-2A46,46,0,0,0,91.58,94.88,32.87,32.87,0,0,1,77.27,83.62Z"/><path class="cls-1" d="M145.34,28.66c.42.91.83,1.83,1.2,2.77a4.42,4.42,0,0,0-2-.52h-.26l-.78,0-.79.05h0a46.2,46.2,0,0,0-8.11-12.46c-3.34-.83-6.81-1.53-10.33-2.09a50.65,50.65,0,0,1,6.71,13.4c3,.39,6,.84,8.79,1.35l-2.85.2-.25,0q-2.65-.42-5.43-.78c.17.52.33,1.06.48,1.6a3.74,3.74,0,0,0-.83-.21c-.15-.5-.31-1-.47-1.5-3.75-.48-7.64-.86-11.59-1.14.33,1.55.61,3.16.86,4.81a4,4,0,0,0-.61.91q-.42-3-1-5.78c-3.63-.25-7.42-.43-11.26-.52.14,1.91.25,3.87.35,5.87l-.75.11c-.1-2.08-.22-4.09-.36-6-3.6-.08-7.54-.08-11.13,0-.22,3-.39,6.14-.51,9.5a6.17,6.17,0,0,0-.73-.42c.11-3.1.27-6.14.48-9.06-3.85.09-7.63.27-11.26.52a96.24,96.24,0,0,0-1.75,13h.37c-.09.25-.15.51-.22.76h-.94l-2.76.08a3.94,3.94,0,0,0-.5-.73l3.3-.1a96.1,96.1,0,0,1,1.74-13c-3.94.28-7.83.66-11.58,1.14A59.63,59.63,0,0,0,68,42.2l-.78.18a61.23,61.23,0,0,1,2.48-11.71c-4.25.55-8.33,1.22-12.15,2a45.83,45.83,0,0,0-2.83,11c3.09-.23,6.39-.44,9.84-.62l-3.88,1q-3.14.18-6.06.41c-.08.72-.14,1.46-.19,2.19l-.05,0a4.71,4.71,0,0,0-.73-.22,4.19,4.19,0,0,0-.86-.09,4.4,4.4,0,0,0-.73.06,3.78,3.78,0,0,0-.46.1l-.67.2c0-.78.11-1.55.19-2.31-14.2,4.76-24.64,10-29.42,14.79-2.48,2.48-3.34,4.68-2.56,6.55,1.76,4.17,12.72,8.54,38.13,8.35-.56-1-1.09-2-1.58-3a6,6,0,0,0,.77-.37,6.4,6.4,0,0,0,2.29.5l.32,0,.52,0h.06c.51,1,1.06,1.9,1.63,2.81,3.31-.08,6.73-.23,10.23-.45-.47-1.12-.92-2.27-1.33-3.45l.76,0h0c.41,1.15.86,2.28,1.33,3.38,2.11-.14,4.24-.3,6.41-.49l4-.38c-.16-.66-.31-1.32-.46-2-2.74-.19-5.46-.44-8.12-.73l1.49-.16.26,0a4.59,4.59,0,0,0,1-.28c1.73.16,3.48.31,5.24.44-.06-.33-.13-.66-.19-1l.22-.07a4.36,4.36,0,0,0,.52.05l.21,1.07c3.64.26,7.42.43,11.26.53-.07-1-.14-2-.2-3.1l.75-.11c.06,1.1.13,2.18.21,3.22,1.5,0,3.08,0,4.67.06q3.27-.49,6.53-1c.09-1.41.18-2.86.26-4.36h.29c.15,0,.31,0,.46,0-.07,1.44-.16,2.86-.25,4.25q5.91-1,11.7-2.19c.29-1.69.56-3.4.76-5.18l0,0a4,4,0,0,0,.7.21c-.2,1.65-.45,3.25-.72,4.83,4.19-.87,8.31-1.81,12.33-2.81.34-1.45.64-2.94.88-4.45l.79-.2c-.23,1.52-.52,3-.86,4.45,4.42-1.11,8.71-2.29,12.82-3.54a43.31,43.31,0,0,0,.83-4.26h0l.79-.22.22-.06a4.33,4.33,0,0,0,2.2-1.43,3.84,3.84,0,0,0,.46.11c-.15,1.58-.39,3.14-.69,4.67A134.52,134.52,0,0,0,173,49.32a2,2,0,0,1-1.34-2.6l5.26-14.44C170.93,30.1,160.81,28.54,145.34,28.66ZM55.12,65a2.82,2.82,0,0,1-.69,1.34,1.85,1.85,0,0,1-1.32.58q-7.74.41-15.49.52a3.36,3.36,0,0,1,.14-.73q.14-.51.33-1c.12-.36.25-.68.37-1s.22-.43.28-.44q5.1-.47,10.22-1c.3,0,.43-.13.38-.3a2.18,2.18,0,0,0-.23-.53L49,62.21l-.1-.16a1.93,1.93,0,0,0-.35-.44.55.55,0,0,0-.47-.18l-6,.78a5,5,0,0,1-1.83-.13,9.21,9.21,0,0,1-1.8-.66A7.8,7.8,0,0,1,37,60.49a4.9,4.9,0,0,1-1-1,2.06,2.06,0,0,1-.39-1.18,3.63,3.63,0,0,1,.2-1.41,3.89,3.89,0,0,1,.78-1.34,3,3,0,0,1,1.35-.87q7.41-2.29,14.88-4.33a13.93,13.93,0,0,1-.45,2.3A17.84,17.84,0,0,1,51.45,55c-3.25.71-6.5,1.43-9.73,2.18a.41.41,0,0,0-.33.47,1,1,0,0,0,.13.6l.07.12s.08,0,.19.08l.26.09a1.63,1.63,0,0,0,.46.11l.3,0,5.63-1.09a3.75,3.75,0,0,1,1.88.11,6.23,6.23,0,0,1,1.74.89,9.35,9.35,0,0,1,1.46,1.35,8.38,8.38,0,0,1,1,1.44l.1.17a4.84,4.84,0,0,1,.54,1.7A5.16,5.16,0,0,1,55.12,65Zm5.52.8a2,2,0,0,1-.64.53,2.09,2.09,0,0,1-.87.24,2.59,2.59,0,0,1-2.45-1.35,1.94,1.94,0,0,1-.26-.71,2.25,2.25,0,0,1,.42-1.65A2,2,0,0,1,58.32,62a2.33,2.33,0,0,1,1.45.28,2.43,2.43,0,0,1,1,1A2.53,2.53,0,0,1,61,64.51,2,2,0,0,1,60.64,65.75Zm15.27-3.14A9.06,9.06,0,0,1,75,65.19l-2.41.24a18.4,18.4,0,0,1-3.85-.05,13.91,13.91,0,0,1-3.86-1,13,13,0,0,1-3.53-2.2,12.53,12.53,0,0,1-2.84-3.63l0-.07a9.05,9.05,0,0,1-1-3.13,8.19,8.19,0,0,1,.18-3.14A6.8,6.8,0,0,1,59,49.59,4.6,4.6,0,0,1,61.52,48q6.07-1.52,12.21-2.86c-.14,1-.31,2-.51,2.86a15.13,15.13,0,0,1-.82,2.6c-2.58.5-5.16,1-7.74,1.53a1.15,1.15,0,0,0-.67.44,2.76,2.76,0,0,0-.45.89,4.61,4.61,0,0,0-.2,1.16,4.76,4.76,0,0,0,.07,1.2,5.86,5.86,0,0,0,.45,1.38,5.47,5.47,0,0,0,1,1.28,11,11,0,0,0,1.43,1.2,9.73,9.73,0,0,0,1.54.88,2.55,2.55,0,0,0,1.27.27c2.39-.3,4.79-.62,7.18-.94A23.91,23.91,0,0,1,75.91,62.61Zm5.54,1.09a2,2,0,0,1-.62.64,2,2,0,0,1-.87.31,2.19,2.19,0,0,1-1.45-.33,2.92,2.92,0,0,1-1-1.19,2.5,2.5,0,0,1-.28-.85,3,3,0,0,1,.37-2,1.9,1.9,0,0,1,1.46-1,2,2,0,0,1,1.46.32,2.9,2.9,0,0,1,1,1.17,3.32,3.32,0,0,1,.3,1.45A2.67,2.67,0,0,1,81.45,63.7Zm21.31-21.54.14.76c-1.54,0-3.07,0-4.62,0a.86.86,0,0,0-.1-.16l-.09-.13-.33-.47ZM98.9,62.08l-2.63-4.2a4,4,0,0,1,0,.94c0,.47-.12,1-.2,1.5s-.18,1-.29,1.47a1.94,1.94,0,0,1-.33.82q-6.35,1-12.72,1.72a1.71,1.71,0,0,1-.07-.26.61.61,0,0,0,0-.12c.92-6.12,1.82-12.38,2.71-18.74a2.16,2.16,0,0,1,.07-.66,6,6,0,0,1,.24-.83,6.5,6.5,0,0,1,.33-.75c.12-.23.25-.35.39-.38l5-.92a1,1,0,0,1,.75.32,6,6,0,0,1,.91.95c.31.38.62.79.91,1.21l.75,1.08,9.58,16C102.46,61.5,100.68,61.8,98.9,62.08Zm9.45-2.42a2.15,2.15,0,0,1-.61.7,2,2,0,0,1-.85.38,2,2,0,0,1-1.45-.28,2.8,2.8,0,0,1-1-1.21,2.87,2.87,0,0,1-.29-.89,3.48,3.48,0,0,1,.34-2.11,2,2,0,0,1,2.91-.8,2.82,2.82,0,0,1,1,1.19,3.48,3.48,0,0,1,.31,1.49A3,3,0,0,1,108.35,59.66Zm19.46-3.16-1.89-10.9q-1.52,5.84-3,12l-2,.44c-2.27-3.44-4.55-7-6.85-10.56q1,5.77,2,11.55-2.85.57-5.72,1.1-1.78-10.44-3.59-20.88,3.65-.51,7.29-1c2.07,3.24,4.14,6.43,6.19,9.54q1.35-5.4,2.74-10.55,3.65-.37,7.31-.69,1.62,9.32,3.22,18.59C131.6,55.62,129.71,56.06,127.81,56.5Zm10.54-3.25a2.56,2.56,0,0,1-.61.67,2.38,2.38,0,0,1-.85.4,2,2,0,0,1-1.41-.11,2.18,2.18,0,0,1-1-1,2,2,0,0,1-.27-.77,2.89,2.89,0,0,1,.38-1.87,2.21,2.21,0,0,1,2.88-.87,2.22,2.22,0,0,1,1,.95,2.59,2.59,0,0,1,.27,1.25A2.51,2.51,0,0,1,138.35,53.25Zm15.23-18c2.45-.08,4.9-.13,7.36-.17q1,6,2.11,11.86-2.78.88-5.57,1.73l-1.35-7.56q-1.77,4.15-3.43,9l-2,.58c-2.09-2.38-4.22-5-6.38-7.81q.8,4.57,1.61,9.15l-5.64,1.5q-1.5-8.7-3-17.43,3.66-.26,7.34-.45,2.94,3.9,5.8,7.31C151.43,40.15,152.49,37.58,153.58,35.2Z"/><path class="cls-1" d="M87.39,15.15A62.61,62.61,0,0,0,83,28.6c3.59-.25,7.34-.42,11.14-.52.37-4.95.86-9.53,1.48-13.39C92.86,14.77,90.1,14.92,87.39,15.15Z"/><path class="cls-1" d="M77.67,16.3a49.23,49.23,0,0,0-7,13.47c3.73-.46,7.59-.84,11.5-1.12a64.36,64.36,0,0,1,4.37-13.43C83.53,15.5,80.53,15.86,77.67,16.3Z"/><path class="cls-1" d="M96.4,14.66c-.6,3.7-1.12,8.23-1.52,13.41,3.56-.08,7.45-.08,11,0-.39-5.18-.91-9.71-1.51-13.41C101.73,14.59,99.06,14.59,96.4,14.66Z"/><path class="cls-1" d="M105.19,14.69c.62,3.86,1.11,8.44,1.48,13.39,3.8.1,7.54.27,11.14.52a62.61,62.61,0,0,0-4.41-13.45C110.69,14.92,107.93,14.77,105.19,14.69Z"/><path class="cls-1" d="M109.21,94.88a46,46,0,0,0,24.35-13.23c-3.24.77-6.6,1.44-10,2A32.87,32.87,0,0,1,109.21,94.88Z"/><path class="cls-1" d="M89.63,57.64l.18.38,6.09-.94c-1.74-2.92-3.48-5.84-5.22-8.73Q90.16,53,89.63,57.64Z"/><path class="cls-1" d="M87.77,14.37c2.63-.21,5.3-.36,8-.44.85-5,1.92-8.74,3.21-10.35C94.7,4.32,90.83,8.25,87.77,14.37Z"/><path class="cls-1" d="M104.26,13.91C103.2,7.69,101.91,4,100.66,3.5h-.53c-1.25.46-2.54,4.19-3.6,10.41C99.1,13.85,101.69,13.85,104.26,13.91Z"/><path class="cls-1" d="M91.58,4.34A46,46,0,0,0,67.24,17.57c3.25-.78,6.61-1.44,10-2A32.87,32.87,0,0,1,91.58,4.34Z"/><path class="cls-1" d="M78.31,15.45c2.79-.42,5.69-.76,8.66-1,2.49-5.07,5.52-8.76,8.87-10.53C89.14,5.21,83.08,9.35,78.31,15.45Z"/><path class="cls-1" d="M113.82,14.43c2.93.26,5.83.61,8.67,1C117.71,9.35,111.65,5.21,105,3.9,108.3,5.67,111.33,9.36,113.82,14.43Z"/><path class="cls-1" d="M123.52,15.6c3.41.53,6.77,1.19,10,2A46,46,0,0,0,109.2,4.34,32.84,32.84,0,0,1,123.52,15.6Z"/><path class="cls-1" d="M114.2,15.23a64.26,64.26,0,0,1,4.37,13.42c3.91.28,7.77.66,11.5,1.12a49.23,49.23,0,0,0-6.95-13.47C120.21,15.85,117.21,15.5,114.2,15.23Z"/><path class="cls-1" d="M113,14.37c-3.06-6.12-6.93-10-11.17-10.79,1.28,1.61,2.36,5.32,3.21,10.35C107.72,14,110.39,14.16,113,14.37Z"/><path class="cls-1" d="M100.39,85.37c-1.29,0-2.59,0-3.86-.06,1.06,6.21,2.35,10,3.6,10.42h.53c1.25-.47,2.54-4.21,3.6-10.42C103,85.35,101.69,85.37,100.39,85.37Z"/><path class="cls-1" d="M289.45,81.07,291,78.42a6.57,6.57,0,0,1,1.13-1.17,2,2,0,0,1,1.28-.52h16.07a13.52,13.52,0,0,0,5.18-1.2,32.9,32.9,0,0,0,5.62-3.1,42.33,42.33,0,0,0,5.14-4.09,29.53,29.53,0,0,0,3.82-4.22,15.23,15.23,0,0,0,2-4,13.82,13.82,0,0,0,.68-4.21,7.68,7.68,0,0,0-1.17-4.34,4,4,0,0,0-3.65-1.77H291.54c-.75.75-1.55,1.57-2.41,2.45s-1.72,1.81-2.61,2.77S284.81,57,284,58s-1.43,1.91-2,2.77h32q.72,0,.72,1a3,3,0,0,1-.8,2.17l-.33.4q0,.09-.48.36c-.32.19-.59.34-.8.44-.38.22-.89.47-1.53.77a9.27,9.27,0,0,1-1,.44H294.51a12,12,0,0,0-4.81,1.24,33.06,33.06,0,0,0-5.39,3.14,50.52,50.52,0,0,0-5,4,28.33,28.33,0,0,0-3.61,3.94A18.13,18.13,0,0,0,273.47,83a12.59,12.59,0,0,0-.81,4.26,6.05,6.05,0,0,0,1.09,3.65,3.94,3.94,0,0,0,3.41,1.49h36.55a37.57,37.57,0,0,0,2.86-3.06l3-3.53c.93-1.12,2-2.52,3.33-4.18H290.34C289.75,81.63,289.45,81.45,289.45,81.07Z"/><path class="cls-1" d="M220.85,55.93a7.76,7.76,0,0,0-1.16-4.34A4.07,4.07,0,0,0,216,49.82H190.28a123.63,123.63,0,0,1-16.32,7c-.32.39-.64.77-.94,1.16a29.93,29.93,0,0,0-2,2.77h32q.72,0,.72,1a3,3,0,0,1-.8,2.17l-.32.4q0,.09-.48.36a8.94,8.94,0,0,1-.81.44c-.37.22-.88.47-1.52.77a9.82,9.82,0,0,1-1.05.44H183.5a12,12,0,0,0-4.82,1.24,33,33,0,0,0-5.38,3.14,49.37,49.37,0,0,0-5,4,28.48,28.48,0,0,0-3.62,3.94A18.89,18.89,0,0,0,162.45,83a12.81,12.81,0,0,0-.8,4.26,6,6,0,0,0,1.08,3.65,4,4,0,0,0,3.42,1.49H202.7a37.63,37.63,0,0,0,2.85-3.06c1-1.23,2-2.41,3-3.53s2-2.52,3.34-4.18H179.32c-.59,0-.88-.18-.88-.56L180,78.42a6.51,6.51,0,0,1,1.12-1.17,2.09,2.09,0,0,1,1.28-.52h16.07a13.52,13.52,0,0,0,5.18-1.2,33,33,0,0,0,5.63-3.1,43.12,43.12,0,0,0,5.14-4.09,28.82,28.82,0,0,0,3.81-4.22,14.93,14.93,0,0,0,2-4A13.82,13.82,0,0,0,220.85,55.93Z"/><path class="cls-1" d="M183.58,37c-.57-1.36-2.12-2.74-4.84-4L173.51,47.4h2.63A30.08,30.08,0,0,0,181,43.56C183.5,41.08,184.37,38.88,183.58,37Z"/><path class="cls-1" d="M256.72,64.72a9.71,9.71,0,0,0-1,0h-6.5a4.64,4.64,0,0,0-1.94.5,12.68,12.68,0,0,0-2.54,1.57A17.84,17.84,0,0,0,242.34,69a12.72,12.72,0,0,0-1.66,2.31c-.24.59-.46,1.14-.66,1.66a4,4,0,0,0-.28,1,3,3,0,0,1-.07.32h0v.49a6.8,6.8,0,0,0,.45,2.33,8.52,8.52,0,0,0,1.24,2.33l.06.07.32,0H247a4.35,4.35,0,0,0,1.62-.5,17.38,17.38,0,0,0,2.72-1.61,21.84,21.84,0,0,0,2.72-2.32,10.12,10.12,0,0,0,1.77-2.29l.09-.15a5.6,5.6,0,0,0,.63-1.17,2,2,0,0,1,.08-.26l.25-.64c0-.14.07-.29.11-.45.05-.37.08-.75.1-1.13s0-.87,0-1.29a11.89,11.89,0,0,0-.21-2.21A3.46,3.46,0,0,0,256.72,64.72Z"/><path class="cls-1" d="M124.17,82.75c3.55-.57,7-1.27,10.34-2.1A46,46,0,0,0,143,67.38c-3.79.76-7.84,1.43-12.08,2A50.5,50.5,0,0,1,124.17,82.75Z"/><path class="cls-1" d="M199.5,43.48a28.83,28.83,0,0,1-4.61,3.63l-.25.71h14.54l-7.58-7A14.05,14.05,0,0,1,199.5,43.48Z"/><path class="cls-1" d="M274.55,67.05a19.28,19.28,0,0,0,.12-2.13,15.31,15.31,0,0,0-1.44-6.9,12.33,12.33,0,0,0-4.06-4.7A17.84,17.84,0,0,0,263,50.67a34.58,34.58,0,0,0-8-.85h-10.6A18.36,18.36,0,0,0,236,52a31,31,0,0,0-7.64,5.5,33.69,33.69,0,0,0-5.78,7.47,22.88,22.88,0,0,0-2.89,8c-.11.75-.19,1.47-.24,2.17s-.08,1.36-.08,2a16,16,0,0,0,1.56,7.47,12.13,12.13,0,0,0,4.3,4.7,18.39,18.39,0,0,0,6.51,2.45,42.87,42.87,0,0,0,8.19.73h8a21.52,21.52,0,0,0,9.32-2.13,31.38,31.38,0,0,0,8.08-5.5,33.86,33.86,0,0,0,6-7.48,21.87,21.87,0,0,0,3-8C274.38,68.54,274.47,67.78,274.55,67.05Zm-15.42,2.09c0,.46-.07.9-.12,1.33h0s-.06.24-.16.73l-.32.8a6.52,6.52,0,0,1-.89,1.77,11.57,11.57,0,0,1-2.13,2.77,22.85,22.85,0,0,1-3,2.53,18,18,0,0,1-3,1.81,6.12,6.12,0,0,1-2.45.68h-5.3a5.08,5.08,0,0,1-2.73-.8,8.25,8.25,0,0,1-2.25-2.09,10.86,10.86,0,0,1-1.53-2.85,9,9,0,0,1-.56-3v-.49a1.12,1.12,0,0,1,.08-.56,6.48,6.48,0,0,1,.4-1.48c.21-.57.46-1.17.72-1.81a14.84,14.84,0,0,1,2-2.77,20,20,0,0,1,2.69-2.53,14.69,14.69,0,0,1,2.94-1.81,6.73,6.73,0,0,1,2.77-.68h6.5a7.56,7.56,0,0,1,3.26.6,5.05,5.05,0,0,1,2,1.61,5.52,5.52,0,0,1,1,2.29,13.89,13.89,0,0,1,.24,2.57C259.17,68.22,259.16,68.69,259.13,69.14Z"/><path class="cls-1" d="M324.87,81.63h1a2,2,0,0,1,2,1.76c.47-.58.93-1.13,1.37-1.65,1.23-1.43,1.92-2.11,3-2.11H342.7c-.1,0-.2-.08-.3-.14a15.19,15.19,0,0,1-2.76-1.89,2.56,2.56,0,0,1-.24-.11,15.81,15.81,0,0,1-3.94-3,17,17,0,0,1-3-4.08c-.16-.32-.3-.64-.43-1-.69.76-1.46,1.54-2.3,2.33a45.39,45.39,0,0,1-5.38,4.29,35.16,35.16,0,0,1-6,3.28c-.24.1-.47.17-.7.26h5.16A2,2,0,0,1,324.87,81.63Z"/><path class="cls-1" d="M381.12,10.57a26.43,26.43,0,0,0-.84-2.69,8.36,8.36,0,0,0-1.16-2.17,1.91,1.91,0,0,0-1.49-.88H364.14a2.62,2.62,0,0,0-1.41.6c-.56.4-1.12.86-1.69,1.36a21,21,0,0,0-1.56,1.57,6.16,6.16,0,0,0-1,1.29l-28.92,37v.24h0a5.51,5.51,0,0,0-.16.57h34a6.77,6.77,0,0,0,1.77-1.53c.8-.85,1.62-1.79,2.45-2.81s1.58-2,2.25-2.89A8.7,8.7,0,0,0,371,38.32l1.69,9.08H387l-5.3-34.46C381.57,12.3,381.37,11.51,381.12,10.57ZM354.74,36.64v-.81l13.49-18.07L371,36.64Z"/><path class="cls-1" d="M333.39,64c-.05.27-.09.52-.12.76s0,.5,0,.77a8.46,8.46,0,0,0,1,3.93,14.84,14.84,0,0,0,2.61,3.62,13.89,13.89,0,0,0,3.45,2.61,7.63,7.63,0,0,0,3.58,1H360a.9.9,0,0,1,.89.52,2.78,2.78,0,0,1,.24,1.17,4.63,4.63,0,0,1-1.61,3.21H332.19c-.16,0-.64.47-1.45,1.41s-1.67,2-2.61,3.21-1.82,2.4-2.65,3.58a22.79,22.79,0,0,0-1.65,2.57h41A7.69,7.69,0,0,0,369,91.07a14.63,14.63,0,0,0,3.62-3.33,18.34,18.34,0,0,0,2.52-4.38,11.75,11.75,0,0,0,1-4.46v-.32a12.65,12.65,0,0,0-.72-3.94,15.35,15.35,0,0,0-2.05-4,13.41,13.41,0,0,0-3.1-3.1,6.59,6.59,0,0,0-3.85-1.24H351.15a3.3,3.3,0,0,1-.69-.44,7.81,7.81,0,0,1-.92-.77l-.48-.44c-.22-.18-.32-.3-.32-.36v-.4l1.12-3.13h27.56c1.92-1.82,3.68-3.64,5.26-5.47a57.19,57.19,0,0,0,4.21-5.46H338.62Z"/><path class="cls-1" d="M335.9,51.4h-1.46a6,6,0,0,1,.93,1.09s.05.1.08.14Z"/><polygon class="cls-1" points="362.62 34.64 368.72 34.64 367.71 27.82 362.62 34.64"/><path class="cls-1" d="M282.46,56.74c.8-1,1.67-2.05,2.59-3.05s1.79-1.93,2.65-2.81,1.67-1.71,2.43-2.47a2,2,0,0,1,1.41-.59h6.67c-.43-.21-.84-.43-1.25-.67a19.32,19.32,0,0,1-2.46-1.72l-.54-.28a19.19,19.19,0,0,1-6.76-6.67,20.23,20.23,0,0,1-2.58-10.6,22.88,22.88,0,0,1,1.84-8.71c.23-.58.5-1.13.77-1.69l-.4.38c-1.39,1.27-2.4,1.81-3.4,1.81h-8.08l-5.44,14.89h8.6a2,2,0,0,1,2,2h1a2,2,0,0,1,2,2,2,2,0,0,1-.26,1,23.7,23.7,0,0,1-2,3.13c-.9,1.23-1.87,2.46-2.89,3.68a33.55,33.55,0,0,1-3.08,3.24c-1.38,1.27-2.4,1.81-3.4,1.81h-2l.44.27a12.39,12.39,0,0,1,1.13.9,16.39,16.39,0,0,1,1.87,1.1A14.45,14.45,0,0,1,278,59.12a17.34,17.34,0,0,1,1.65,7.8,20.82,20.82,0,0,1-.13,2.35c-.08.74-.18,1.52-.29,2.36,0,.2-.07.41-.11.61,1.28-1.12,2.61-2.2,4-3.2a34.14,34.14,0,0,1,5.72-3.32,16.83,16.83,0,0,1,2.64-1h-6.45a2,2,0,0,1-1.75-1,2.11,2.11,0,0,1-.24-1h-1a2,2,0,0,1-1.75-1,2,2,0,0,1,.06-2A35.33,35.33,0,0,1,282.46,56.74Z"/><path class="cls-1" d="M308.42,33.33a.6.6,0,0,0,.09.13.53.53,0,0,1,0-.13Z"/><path class="cls-1" d="M286.62,27.88a18.14,18.14,0,0,0,2.29,9.56,16.94,16.94,0,0,0,6.06,6,26.15,26.15,0,0,0,8.52,3.1,52.85,52.85,0,0,0,9.72.88h12l10-26.51H315.94a18.14,18.14,0,0,0-2.53,2.53c-.94,1.1-1.84,2.2-2.69,3.3s-1.6,2.08-2.21,3a12.67,12.67,0,0,0-1,1.56v.08h9.08l-1.85,5.23H310a5.4,5.4,0,0,1-2.93-1A13.13,13.13,0,0,1,302.32,30a8.05,8.05,0,0,1-.76-3.25,12,12,0,0,1,.64-3.3,16.68,16.68,0,0,1,1.29-2.77,14.37,14.37,0,0,1,1.8-2.53,8.92,8.92,0,0,1,2.21-1.81,5.08,5.08,0,0,1,2.49-.68h20.89a53.16,53.16,0,0,0,5.18-5.1c1.58-1.79,3.15-3.71,4.7-5.74H307.58a16.18,16.18,0,0,0-8,2.12,24.75,24.75,0,0,0-6.67,5.51,27.61,27.61,0,0,0-4.58,7.47A20.88,20.88,0,0,0,286.62,27.88Z"/><path class="cls-1" d="M309.79,21.49a13.28,13.28,0,0,0-1.57,2.19,16.09,16.09,0,0,0-1.12,2.41,9.67,9.67,0,0,0-.54,2.67c0,.06,0,.14,0,.21l.3-.42c.63-.91,1.37-1.92,2.27-3.06s1.78-2.24,2.75-3.37a22.54,22.54,0,0,1,2.39-2.45H313a3,3,0,0,0-1.5.42A6.75,6.75,0,0,0,309.79,21.49Z"/><path class="cls-1" d="M247.9,36.56h-9.64a15.45,15.45,0,0,0-2.69,2.37c-1,1.09-2.06,2.23-3,3.41s-1.85,2.25-2.57,3.21a8.87,8.87,0,0,0-1.17,1.77v.08h40.08c.43,0,1.12-.43,2.05-1.29a30.82,30.82,0,0,0,2.89-3c1-1.17,1.93-2.37,2.82-3.57a21.92,21.92,0,0,0,1.88-2.93H263.32L271,15.67h9.48c.43,0,1.11-.43,2.05-1.29a30.82,30.82,0,0,0,2.89-3.05q1.49-1.77,2.81-3.57a21.19,21.19,0,0,0,1.89-2.93H249.83a15.45,15.45,0,0,0-2.69,2.37q-1.57,1.63-3.06,3.41c-1,1.18-1.84,2.25-2.57,3.21a9.11,9.11,0,0,0-1.16,1.77v.08h15.18Z"/><path class="cls-1" d="M131.14,68.56c4.27-.56,8.35-1.23,12.15-2,.13-.32.23-.65.35-1q-6.07,1.44-12.43,2.74A2.17,2.17,0,0,1,131.14,68.56Z"/><path class="cls-1" d="M202.21,35.21a5.41,5.41,0,0,1,.24,3.68l9.22,8.51h15.11v-.08a2,2,0,0,1,.06-.48,3.25,3.25,0,0,1,.48-1l-14.2-14.57a61.68,61.68,0,0,0,6.86-.92,23.52,23.52,0,0,0,6.67-2.25,14.67,14.67,0,0,0,5-4.22,10.82,10.82,0,0,0,2-6.74,24.64,24.64,0,0,0-.36-4,13.21,13.21,0,0,0-1.33-4,8.39,8.39,0,0,0-2.69-3,7.65,7.65,0,0,0-4.46-1.2H189l-7.88,21.63C193,28.08,200.39,31.06,202.21,35.21ZM200.5,15.59h16.15c.64,0,1,.15,1.21.44a2.28,2.28,0,0,1,.24,1.09V18a4.5,4.5,0,0,1-.53,1.89A1.77,1.77,0,0,1,215.85,21H203l-7.06,7.15Z"/><path class="cls-1" d="M223.35,34.3c-1,.18-2,.35-2.95.49L229,43.56c.62-.79,1.28-1.62,2-2.51,1-1.2,2.07-2.38,3.14-3.5a17.49,17.49,0,0,1,3.06-2.68,2.05,2.05,0,0,1,1.08-.31h8.24l5.44-14.89h-8.59a2,2,0,0,1-2-2h-1a2,2,0,0,1-1.84-1.21,25,25,0,0,1,.17,2.66,12.87,12.87,0,0,1-2.41,8,16.71,16.71,0,0,1-5.7,4.78A25.62,25.62,0,0,1,223.35,34.3Z"/><path class="cls-1" d="M223.42,51.4a6.08,6.08,0,0,1,.94,1.09,9.48,9.48,0,0,1,1.45,4.7c.37-.39.73-.79,1.12-1.17a34,34,0,0,1,5.92-4.62h-9.43Z"/><path class="cls-2" d="M38.85,20.49c6.17.4,6.29.52,6.69,6.69a.5.5,0,0,0,1,0c.4-6.17.52-6.29,6.69-6.69a.51.51,0,0,0,.47-.5.5.5,0,0,0-.47-.5c-6.17-.4-6.29-.53-6.69-6.69a.5.5,0,0,0-1,0c-.4,6.16-.52,6.29-6.69,6.69a.49.49,0,0,0-.46.5A.5.5,0,0,0,38.85,20.49Z"/><path class="cls-2" d="M165.34,71.1a.5.5,0,0,0,0-1c-6.17-.4-6.29-.52-6.69-6.69a.5.5,0,0,0-1,0c-.4,6.17-.52,6.29-6.69,6.69a.5.5,0,0,0,0,1c6.17.4,6.29.52,6.69,6.69a.5.5,0,0,0,1,0C159.05,71.62,159.17,71.5,165.34,71.1Z"/><path class="cls-2" d="M98.18,42.76a.86.86,0,0,1,.1.16c1.55,0,3.08,0,4.62,0l-.14-.76h-5l.33.47Z"/><path class="cls-2" d="M54.63,61.53l-.1-.17a8.38,8.38,0,0,0-1-1.44,9.35,9.35,0,0,0-1.46-1.35,6.23,6.23,0,0,0-1.74-.89,3.75,3.75,0,0,0-1.88-.11L42.8,58.66l-.3,0a1.63,1.63,0,0,1-.46-.11l-.26-.09c-.11,0-.18-.06-.19-.08l-.07-.12a1,1,0,0,1-.13-.6.41.41,0,0,1,.33-.47C45,56.4,48.2,55.68,51.45,55a17.84,17.84,0,0,0,.84-2.34,13.93,13.93,0,0,0,.45-2.3q-7.47,2-14.88,4.33a3,3,0,0,0-1.35.87,3.89,3.89,0,0,0-.78,1.34,3.63,3.63,0,0,0-.2,1.41,2.06,2.06,0,0,0,.39,1.18,4.9,4.9,0,0,0,1,1,7.8,7.8,0,0,0,1.52.93,9.21,9.21,0,0,0,1.8.66,5,5,0,0,0,1.83.13l6-.78a.55.55,0,0,1,.47.18,1.93,1.93,0,0,1,.35.44l.1.16.09.17a2.18,2.18,0,0,1,.23.53c0,.17-.08.27-.38.3q-5.12.52-10.22,1c-.06,0-.15.16-.28.44s-.25.61-.37,1-.24.71-.33,1a3.36,3.36,0,0,0-.14.73q7.76-.12,15.49-.52a1.85,1.85,0,0,0,1.32-.58A2.82,2.82,0,0,0,55.12,65a5.16,5.16,0,0,0,.05-1.72A4.84,4.84,0,0,0,54.63,61.53Z"/><path class="cls-2" d="M67.81,60.59a9.73,9.73,0,0,1-1.54-.88,11,11,0,0,1-1.43-1.2,5.47,5.47,0,0,1-1-1.28,5.86,5.86,0,0,1-.45-1.38,4.76,4.76,0,0,1-.07-1.2,4.61,4.61,0,0,1,.2-1.16A2.76,2.76,0,0,1,64,52.6a1.15,1.15,0,0,1,.67-.44c2.58-.53,5.16-1,7.74-1.53a15.13,15.13,0,0,0,.82-2.6c.2-.9.37-1.85.51-2.86Q67.6,46.51,61.52,48A4.6,4.6,0,0,0,59,49.59a6.8,6.8,0,0,0-1.34,2.62,8.19,8.19,0,0,0-.18,3.14,9.05,9.05,0,0,0,1,3.13l0,.07a12.53,12.53,0,0,0,2.84,3.63,13,13,0,0,0,3.53,2.2,13.91,13.91,0,0,0,3.86,1,18.4,18.4,0,0,0,3.85.05L75,65.19a9.06,9.06,0,0,0,.89-2.58,23.91,23.91,0,0,0,.35-2.69c-2.39.32-4.79.64-7.18.94A2.55,2.55,0,0,1,67.81,60.59Z"/><path class="cls-2" d="M93.9,44.15c-.29-.42-.6-.83-.91-1.21a6,6,0,0,0-.91-.95,1,1,0,0,0-.75-.32l-5,.92c-.14,0-.27.15-.39.38a6.5,6.5,0,0,0-.33.75,6,6,0,0,0-.24.83,2.16,2.16,0,0,0-.07.66C84.4,51.57,83.5,57.83,82.58,64a.61.61,0,0,1,0,.12,1.71,1.71,0,0,0,.07.26q6.38-.77,12.72-1.72a1.94,1.94,0,0,0,.33-.82c.11-.45.2-.94.29-1.47s.15-1,.2-1.5a4,4,0,0,0,0-.94l2.63,4.2c1.78-.28,3.56-.58,5.33-.88l-9.58-16ZM89.81,58l-.18-.38q.53-4.62,1.05-9.29c1.74,2.89,3.48,5.81,5.22,8.73Z"/><path class="cls-2" d="M123,37.26q-1.39,5.15-2.74,10.55c-2-3.11-4.12-6.3-6.19-9.54q-3.65.45-7.29,1,1.8,10.44,3.59,20.88,2.86-.53,5.72-1.1-1-5.77-2-11.55c2.3,3.59,4.58,7.12,6.85,10.56l2-.44q1.45-6.13,3-12l1.89,10.9c1.9-.44,3.79-.88,5.68-1.34q-1.61-9.28-3.22-18.59Q126.61,36.89,123,37.26Z"/><path class="cls-2" d="M137.26,36q1.52,8.73,3,17.43l5.64-1.5q-.81-4.58-1.61-9.15c2.16,2.81,4.29,5.43,6.38,7.81l2-.58q1.67-4.82,3.43-9l1.35,7.56q2.79-.84,5.57-1.73Q162,41,160.94,35c-2.46,0-4.91.09-7.36.17-1.09,2.38-2.15,4.95-3.18,7.69q-2.86-3.41-5.8-7.31Q140.93,35.78,137.26,36Z"/><path class="cls-2" d="M59.77,62.24A2.33,2.33,0,0,0,58.32,62a2,2,0,0,0-1.48.85,2.25,2.25,0,0,0-.42,1.65,1.94,1.94,0,0,0,.26.71,2.59,2.59,0,0,0,2.45,1.35,2.09,2.09,0,0,0,.87-.24,2,2,0,0,0,.64-.53A2,2,0,0,0,61,64.51a2.53,2.53,0,0,0-.27-1.25A2.43,2.43,0,0,0,59.77,62.24Z"/><path class="cls-2" d="M80.49,59.63A2,2,0,0,0,79,59.31a1.9,1.9,0,0,0-1.46,1,3,3,0,0,0-.37,2,2.5,2.5,0,0,0,.28.85,2.92,2.92,0,0,0,1,1.19,2.19,2.19,0,0,0,1.45.33,2,2,0,0,0,.87-.31,2,2,0,0,0,.62-.64,2.67,2.67,0,0,0,.36-1.45,3.32,3.32,0,0,0-.3-1.45A2.9,2.9,0,0,0,80.49,59.63Z"/><path class="cls-2" d="M107.37,55.45a2,2,0,0,0-2.91.8,3.48,3.48,0,0,0-.34,2.11,2.87,2.87,0,0,0,.29.89,2.8,2.8,0,0,0,1,1.21,2,2,0,0,0,1.45.28,2,2,0,0,0,.85-.38,2.15,2.15,0,0,0,.61-.7,3,3,0,0,0,.35-1.53,3.48,3.48,0,0,0-.31-1.49A2.82,2.82,0,0,0,107.37,55.45Z"/><path class="cls-2" d="M137.47,49.71a2.21,2.21,0,0,0-2.88.87,2.89,2.89,0,0,0-.38,1.87,2,2,0,0,0,.27.77,2.18,2.18,0,0,0,1,1,2,2,0,0,0,1.41.11,2.38,2.38,0,0,0,.85-.4,2.56,2.56,0,0,0,.61-.67,2.51,2.51,0,0,0,.38-1.34,2.59,2.59,0,0,0-.27-1.25A2.22,2.22,0,0,0,137.47,49.71Z"/><path class="cls-2" d="M174,53.69c.74-.81,1.47-1.58,2.19-2.33a1.94,1.94,0,0,1-1.69-2h-1a2,2,0,0,1-.54-.08,134.52,134.52,0,0,1-23.9,9.87c.3-1.53.54-3.09.69-4.67a3.84,3.84,0,0,1-.46-.11,4.33,4.33,0,0,1-2.2,1.43l-.22.06-.79.22h0a43.31,43.31,0,0,1-.83,4.26c-4.11,1.25-8.4,2.43-12.82,3.54.34-1.45.63-2.93.86-4.45l-.79.2c-.24,1.51-.54,3-.88,4.45-4,1-8.14,1.94-12.33,2.81.27-1.58.52-3.18.72-4.83a4,4,0,0,1-.7-.21l0,0c-.2,1.78-.47,3.49-.76,5.18q-5.79,1.19-11.7,2.19c.09-1.39.18-2.81.25-4.25-.15,0-.31,0-.46,0h-.29c-.08,1.5-.17,3-.26,4.36q-3.25.54-6.53,1c-1.59,0-3.17,0-4.67-.06-.08-1-.15-2.12-.21-3.22l-.75.11c.06,1,.13,2.08.2,3.1-3.84-.1-7.62-.27-11.26-.53l-.21-1.07a4.36,4.36,0,0,1-.52-.05l-.22.07c.06.34.13.67.19,1-1.76-.13-3.51-.28-5.24-.44a4.59,4.59,0,0,1-1,.28l-.26,0-1.49.16c2.66.29,5.38.54,8.12.73.15.68.3,1.34.46,2l-4,.38c-2.17.19-4.3.35-6.41.49-.47-1.1-.92-2.23-1.33-3.38h0l-.76,0c.41,1.18.86,2.33,1.33,3.45-3.5.22-6.92.37-10.23.45-.57-.91-1.12-1.85-1.63-2.81h-.06l-.52,0-.32,0a6.4,6.4,0,0,1-2.29-.5,6,6,0,0,1-.77.37c.49,1,1,2,1.58,3-25.41.19-36.37-4.18-38.13-8.35-.78-1.87.08-4.07,2.56-6.55,4.78-4.78,15.22-10,29.42-14.79-.08.76-.14,1.53-.19,2.31l.67-.2a3.78,3.78,0,0,1,.46-.1,4.4,4.4,0,0,1,.73-.06,4.19,4.19,0,0,1,.86.09,4.71,4.71,0,0,1,.73.22l.05,0c0-.73.11-1.47.19-2.19q2.93-.22,6.06-.41l3.88-1c-3.45.18-6.75.39-9.84.62a45.83,45.83,0,0,1,2.83-11c3.82-.77,7.9-1.44,12.15-2a61.23,61.23,0,0,0-2.48,11.71L68,42.2a59.63,59.63,0,0,1,2.52-11.64c3.75-.48,7.64-.86,11.58-1.14a96.1,96.1,0,0,0-1.74,13l-3.3.1a3.94,3.94,0,0,1,.5.73l2.76-.08h.94c.07-.25.13-.51.22-.76h-.37a96.24,96.24,0,0,1,1.75-13c3.63-.25,7.41-.43,11.26-.52-.21,2.92-.37,6-.48,9.06a6.17,6.17,0,0,1,.73.42c.12-3.36.29-6.54.51-9.5,3.59-.08,7.53-.08,11.13,0,.14,1.91.26,3.92.36,6l.75-.11c-.1-2-.21-4-.35-5.87,3.84.09,7.63.27,11.26.52q.58,2.79,1,5.78a4,4,0,0,1,.61-.91c-.25-1.65-.53-3.26-.86-4.81,4,.28,7.84.66,11.59,1.14.16.5.32,1,.47,1.5a3.74,3.74,0,0,1,.83.21c-.15-.54-.31-1.08-.48-1.6q2.78.36,5.43.78l.25,0,2.85-.2c-2.82-.51-5.76-1-8.79-1.35a50.65,50.65,0,0,0-6.71-13.4c3.52.56,7,1.26,10.33,2.09A46.2,46.2,0,0,1,142.61,31h0l.79-.05.78,0h.26a4.42,4.42,0,0,1,2,.52c-.37-.94-.78-1.86-1.2-2.77,15.47-.12,25.59,1.44,31.55,3.62l2.21-6.07a226,226,0,0,0-34.79-.89h-.69A49.58,49.58,0,0,0,52,38.83l-.37.1C27.12,45.26,9.92,52.46,3.18,59.2.25,62.13-.66,64.91.47,67.48,3.32,74,20,77.62,45.82,77.62q6.16,0,13-.27l.45,0a49.58,49.58,0,0,0,88.4-12.71l.69-.17c8.13-2,15.55-4.19,22.12-6.41q.45-.63,1-1.29C172.25,55.71,173.12,54.69,174,53.69Zm-91.81-25c-3.91.28-7.77.66-11.5,1.12a49.23,49.23,0,0,1,7-13.47c2.86-.44,5.86-.8,8.92-1.08A64.36,64.36,0,0,0,82.22,28.65Zm11.9-.57c-3.8.1-7.55.27-11.14.52a62.61,62.61,0,0,1,4.41-13.45c2.71-.23,5.47-.38,8.21-.46C95,18.55,94.49,23.13,94.12,28.08Zm.76,0c.4-5.18.92-9.71,1.52-13.41,2.66-.07,5.33-.07,8,0,.6,3.7,1.12,8.23,1.51,13.41C102.33,28,98.44,28,94.88,28.07Zm11.79,0c-.37-4.95-.86-9.53-1.48-13.39,2.74.08,5.5.23,8.21.46a62.61,62.61,0,0,1,4.41,13.45C114.21,28.35,110.47,28.18,106.67,28.08Zm23.4,1.69c-3.73-.46-7.59-.84-11.5-1.12a64.26,64.26,0,0,0-4.37-13.42c3,.27,6,.62,8.92,1.07A49.23,49.23,0,0,1,130.07,29.77Zm3.48-12.2c-3.26-.78-6.62-1.44-10-2A32.84,32.84,0,0,0,109.2,4.34,46,46,0,0,1,133.55,17.57Zm-11.06-2.11c-2.84-.42-5.74-.77-8.67-1C111.33,9.36,108.3,5.67,105,3.9,111.65,5.21,117.71,9.35,122.49,15.46ZM113,14.37c-2.63-.21-5.3-.36-8-.44-.85-5-1.93-8.74-3.21-10.35C106.09,4.32,110,8.25,113,14.37ZM100.13,3.5h.53c1.25.46,2.54,4.19,3.6,10.41-2.57-.06-5.16-.06-7.73,0C97.59,7.69,98.88,4,100.13,3.5Zm-4.4,10.43c-2.66.08-5.33.23-8,.44,3.06-6.12,6.93-10,11.17-10.79C97.65,5.19,96.58,8.9,95.73,13.93Zm-8.76.5c-3,.26-5.87.6-8.66,1C83.08,9.35,89.14,5.21,95.84,3.9,92.49,5.67,89.46,9.36,87,14.43ZM91.58,4.34A32.87,32.87,0,0,0,77.27,15.6c-3.42.53-6.78,1.19-10,2A46,46,0,0,1,91.58,4.34ZM66.29,18.56c3.33-.82,6.8-1.52,10.33-2.09a50.65,50.65,0,0,0-6.71,13.4c-4.22.54-8.27,1.2-12.08,2A46.16,46.16,0,0,1,66.29,18.56Zm64.09,49.93-.06.17-1.92.22Zm-11.85,2.23,1.55-.28c3.4-.26,6.75-.59,10-1a49.36,49.36,0,0,1-6.95,13.47c-2.92.45-5.92.81-8.92,1.08A63.3,63.3,0,0,0,118.53,70.72Zm-12,2c3.75-.57,7.5-1.17,11.21-1.81a62.76,62.76,0,0,1-4.36,13.21c-2.71.23-5.47.38-8.21.46C105.74,81.07,106.2,77,106.55,72.67Zm-.78.11c-.37,4.51-.85,8.47-1.38,11.78-2.62.07-5.37.07-8,0-.48-2.94-.9-6.42-1.26-10.32Q100.47,73.57,105.77,72.78ZM95.6,84.53c-2.74-.08-5.5-.23-8.21-.46a55.78,55.78,0,0,1-3.19-8.58q5.08-.52,10.18-1.16C94.71,78.06,95.12,81.52,95.6,84.53ZM94.12,71.14v.08c-3.58.48-7.17.91-10.72,1.28-.15-.62-.3-1.24-.43-1.88C86.58,70.87,90.32,71.05,94.12,71.14Zm-16.45,5q2.89-.26,5.81-.55A57.49,57.49,0,0,0,86.59,84c-3-.27-6-.63-8.92-1.08a45.82,45.82,0,0,1-4-6.48Zm-14.26,1c3.09-.17,6.25-.37,9.46-.62a46.25,46.25,0,0,0,3.75,6.24c-3.58-.57-7.05-1.28-10.33-2.09C65.26,79.53,64.32,78.35,63.41,77.13Zm3.83,4.52c3.21.77,6.57,1.43,10,2A32.87,32.87,0,0,0,91.58,94.88,46,46,0,0,1,67.24,81.65ZM78.3,83.77c2.85.42,5.75.77,8.67,1,2.49,5.07,5.52,8.76,8.87,10.54C89.14,94,83.08,89.87,78.3,83.77Zm9.47,1.08c2.63.21,5.3.36,8,.44.85,5,1.92,8.74,3.21,10.35C94.7,94.9,90.83,91,87.77,84.85Zm12.89,10.88h-.53c-1.25-.47-2.54-4.21-3.6-10.42,1.27,0,2.57.06,3.86.06s2.6,0,3.87-.06C103.2,91.52,101.91,95.26,100.66,95.73Zm4.4-10.44c2.66-.08,5.33-.23,8-.44C110,91,106.09,94.9,101.85,95.64,103.13,94,104.21,90.32,105.06,85.29Zm8.76-.5c2.91-.25,5.82-.6,8.67-1C117.71,89.87,111.65,94,105,95.33,108.3,93.55,111.33,89.86,113.82,84.79Zm-4.61,10.09a32.87,32.87,0,0,0,14.31-11.26c3.44-.53,6.8-1.2,10-2A46,46,0,0,1,109.21,94.88Zm25.3-14.23c-3.32.83-6.79,1.53-10.34,2.1a50.5,50.5,0,0,0,6.71-13.4c4.24-.54,8.29-1.21,12.08-2A46,46,0,0,1,134.51,80.65Zm8.78-14.09c-3.8.77-7.88,1.44-12.15,2a2.17,2.17,0,0,0,.07-.24q6.34-1.3,12.43-2.74C143.52,65.91,143.42,66.24,143.29,66.56Z"/><path class="cls-2" d="M201.6,40.83l-3.32-3.06-3.39,9.34a28.83,28.83,0,0,0,4.61-3.63A14.05,14.05,0,0,0,201.6,40.83Z"/><path class="cls-2" d="M392,49.1,386.7,14.63l0-.18c-.16-.64-.37-1.44-.61-2.38a27.13,27.13,0,0,0-.91-2.89,10,10,0,0,0-1.45-2.69A3.86,3.86,0,0,0,381,4.84c-.08-.12-.16-.24-.25-.35a3.8,3.8,0,0,0-3.07-1.66H364.14a4.42,4.42,0,0,0-2.57,1,20.63,20.63,0,0,0-1.87,1.51c-.61.55-1.18,1.13-1.71,1.71a10.08,10.08,0,0,0-1.16,1.52l-21.4,27.35,4.66-12.29a2,2,0,0,0-1.87-2.71h-1a1.9,1.9,0,0,0-.34-1.13,2,2,0,0,0-1.38-.84,52.5,52.5,0,0,0,5.08-5c1.59-1.81,3.19-3.76,4.75-5.8a2,2,0,0,0-1.55-3.26h-1a2,2,0,0,0-2-2H307.58a18.18,18.18,0,0,0-9,2.38,26.32,26.32,0,0,0-3.74,2.56,2,2,0,0,0-1.75-2.94h-1a2,2,0,0,0-2-2H249.83a2,2,0,0,0-1.08.31,17.49,17.49,0,0,0-3.06,2.68c-1.06,1.11-2.12,2.29-3.14,3.5s-1.89,2.31-2.64,3.3a7.62,7.62,0,0,0-1.5,2.48,1.45,1.45,0,0,0,0,.29c0-.21,0-.41-.08-.62a15.43,15.43,0,0,0-1.52-4.61,10.47,10.47,0,0,0-3.32-3.77,8.48,8.48,0,0,0-1.64-.85,11.63,11.63,0,0,0-1.36-1.15,9.61,9.61,0,0,0-5.61-1.56H189a2,2,0,0,0-1.88,1.31l-8,22.07-2.21,6.07-5.26,14.44a2,2,0,0,0,1.34,2.6,2,2,0,0,0,.54.08h1a1.94,1.94,0,0,0,1.69,2c-.72.75-1.45,1.52-2.19,2.33-.91,1-1.78,2-2.59,3.05q-.51.66-1,1.29c-.42.57-.8,1.13-1.13,1.66a2,2,0,0,0,1.7,3.06h1a2,2,0,0,0,2,2h6.44a16.83,16.83,0,0,0-2.64,1A34.35,34.35,0,0,0,172.14,69,50.79,50.79,0,0,0,167,73.26a30.69,30.69,0,0,0-3.87,4.23,20.68,20.68,0,0,0-2.51,4.84,14.65,14.65,0,0,0-.92,4.93,8,8,0,0,0,1.47,4.83,5.47,5.47,0,0,0,3,2,5.85,5.85,0,0,0,5,2.26H205.7a2,2,0,0,0,1.37-.55,41.08,41.08,0,0,0,3-3.21c1-1.24,2-2.42,3-3.55s2.08-2.55,3.34-4.18a2,2,0,0,0,.46-1.28,2,2,0,0,0-2-2h-1a2,2,0,0,0-2-2H206.7c.24-.09.46-.16.7-.26a34.41,34.41,0,0,0,6-3.28,45.25,45.25,0,0,0,4.27-3.3c-.1.74-.18,1.44-.23,2.11s-.08,1.47-.08,2.15a18,18,0,0,0,1.79,8.41,14.21,14.21,0,0,0,5,5.45c.43.27.87.51,1.33.75a14.52,14.52,0,0,0,1.67,1.25,20.73,20.73,0,0,0,7.2,2.73,46.08,46.08,0,0,0,8.57.76h8a23.66,23.66,0,0,0,10.18-2.32,33.59,33.59,0,0,0,8.59-5.86c.34-.32.65-.66,1-1v0a8,8,0,0,0,1.47,4.83,5.51,5.51,0,0,0,3,2,5.88,5.88,0,0,0,5,2.26h36.55a2,2,0,0,0,1.37-.54,41.28,41.28,0,0,0,3-3.22l1-1.13a2,2,0,0,0,1.79,2.89h1a2,2,0,0,0,.29,1,2,2,0,0,0,1.7,1h41a9.72,9.72,0,0,0,5.31-1.65,16.86,16.86,0,0,0,4.1-3.78A20.45,20.45,0,0,0,380,86.11a13.8,13.8,0,0,0,1.11-5.21v-.32A14.58,14.58,0,0,0,380.3,76,16.86,16.86,0,0,0,378,71.46a15.42,15.42,0,0,0-3.56-3.56,9.77,9.77,0,0,0-1.64-.9c-.44-.39-.89-.76-1.36-1.1a8.52,8.52,0,0,0-2.27-1.15h11.27a2,2,0,0,0,1.37-.55c2-1.85,3.78-3.74,5.4-5.61A61.76,61.76,0,0,0,391.51,53a2,2,0,0,0,.39-1.19,2,2,0,0,0-.35-1.12A2,2,0,0,0,392,49.1ZM292.88,12.46A24.75,24.75,0,0,1,299.55,7a16.18,16.18,0,0,1,8-2.12h33.18c-1.55,2-3.12,3.95-4.7,5.74a53.16,53.16,0,0,1-5.18,5.1H310a5.08,5.08,0,0,0-2.49.68,8.92,8.92,0,0,0-2.21,1.81,14.37,14.37,0,0,0-1.8,2.53,16.68,16.68,0,0,0-1.29,2.77,12,12,0,0,0-.64,3.3,8.05,8.05,0,0,0,.76,3.25,13.13,13.13,0,0,0,4.74,5.58,5.4,5.4,0,0,0,2.93,1h4.74l1.85-5.23H307.5v-.08a12.67,12.67,0,0,1,1-1.56c.61-.89,1.35-1.88,2.21-3s1.75-2.2,2.69-3.3a18.14,18.14,0,0,1,2.53-2.53h19.28l-10,26.51h-12a52.85,52.85,0,0,1-9.72-.88,26.15,26.15,0,0,1-8.52-3.1,16.94,16.94,0,0,1-6.06-6,18.14,18.14,0,0,1-2.29-9.56,20.88,20.88,0,0,1,1.68-7.95A27.61,27.61,0,0,1,292.88,12.46Zm21.4,7.21a22.54,22.54,0,0,0-2.39,2.45c-1,1.13-1.89,2.26-2.75,3.37s-1.64,2.15-2.27,3.06l-.3.42c0-.07,0-.15,0-.21a9.67,9.67,0,0,1,.54-2.67,16.09,16.09,0,0,1,1.12-2.41,13.28,13.28,0,0,1,1.57-2.19,6.75,6.75,0,0,1,1.7-1.4,3,3,0,0,1,1.5-.42Zm-5.86,13.66h.08a.53.53,0,0,0,0,.13A.6.6,0,0,1,308.42,33.33ZM280.31,61.72a2,2,0,0,0,1.75,1h1a2.11,2.11,0,0,0,.24,1,2,2,0,0,0,1.75,1h6.45a16.83,16.83,0,0,0-2.64,1A34.14,34.14,0,0,0,283.15,69c-1.4,1-2.73,2.08-4,3.2,0-.2.08-.41.11-.61.11-.84.21-1.62.29-2.36a20.82,20.82,0,0,0,.13-2.35,17.34,17.34,0,0,0-1.65-7.8,14.45,14.45,0,0,0-4.71-5.45,16.39,16.39,0,0,0-1.87-1.1,12.39,12.39,0,0,0-1.13-.9l-.44-.27h2c1,0,2-.54,3.4-1.81a33.55,33.55,0,0,0,3.08-3.24c1-1.22,2-2.45,2.89-3.68a23.7,23.7,0,0,0,2-3.13,2,2,0,0,0,.26-1,2,2,0,0,0-2-2h-1a2,2,0,0,0-2-2h-8.6l5.44-14.89h8.08c1,0,2-.54,3.4-1.81l.4-.38c-.27.56-.54,1.11-.77,1.69a22.88,22.88,0,0,0-1.84,8.71,20.23,20.23,0,0,0,2.58,10.6A19.19,19.19,0,0,0,294,45.15l.54.28A19.32,19.32,0,0,0,297,47.15c.41.24.82.46,1.25.67h-6.67a2,2,0,0,0-1.41.59c-.76.76-1.57,1.58-2.43,2.47s-1.75,1.83-2.65,2.81-1.79,2-2.59,3.05a35.33,35.33,0,0,0-2.09,2.95A2,2,0,0,0,280.31,61.72Zm-40-46.13a9.11,9.11,0,0,1,1.16-1.77c.73-1,1.58-2,2.57-3.21s2-2.32,3.06-3.41a15.45,15.45,0,0,1,2.69-2.37h40.24a21.19,21.19,0,0,1-1.89,2.93q-1.32,1.8-2.81,3.57a30.82,30.82,0,0,1-2.89,3.05c-.94.86-1.62,1.29-2.05,1.29H271l-7.63,20.89H278.5a21.92,21.92,0,0,1-1.88,2.93c-.89,1.2-1.83,2.4-2.82,3.57a30.82,30.82,0,0,1-2.89,3c-.93.86-1.62,1.29-2.05,1.29H228.78v-.08A8.87,8.87,0,0,1,230,45.55c.72-1,1.57-2,2.57-3.21s2-2.32,3-3.41a15.45,15.45,0,0,1,2.69-2.37h9.64l7.63-20.89H240.35Zm-7.5,35.81A34,34,0,0,0,226.93,56c-.39.38-.75.78-1.12,1.17a9.48,9.48,0,0,0-1.45-4.7,6.08,6.08,0,0,0-.94-1.09h9.43Zm3.42-24.33a12.87,12.87,0,0,0,2.41-7.95,25,25,0,0,0-.17-2.66,2,2,0,0,0,1.84,1.21h1a2,2,0,0,0,2,2h8.59L246.5,34.56h-8.24a2.05,2.05,0,0,0-1.08.31,17.49,17.49,0,0,0-3.06,2.68c-1.07,1.12-2.13,2.3-3.14,3.5-.74.89-1.4,1.72-2,2.51l-8.56-8.77c1-.14,1.95-.31,2.95-.49a25.62,25.62,0,0,0,7.22-2.45A16.71,16.71,0,0,0,236.27,27.07ZM176.14,47.4h-2.63L178.74,33l2.4-6.58L189,4.83h35.82A7.65,7.65,0,0,1,229.3,6,8.39,8.39,0,0,1,232,9.08a13.21,13.21,0,0,1,1.33,4,24.64,24.64,0,0,1,.36,4,10.82,10.82,0,0,1-2,6.74,14.67,14.67,0,0,1-5,4.22A23.52,23.52,0,0,1,220,30.33a61.68,61.68,0,0,1-6.86.92l14.2,14.57a3.25,3.25,0,0,0-.48,1,2,2,0,0,0-.06.48v.08H211.67l-9.22-8.51-7.33-6.75-.88.64-5.3,14.62Zm33,.42H194.64l.25-.71,3.39-9.34,3.32,3.06Zm9,16.3a28.82,28.82,0,0,1-3.81,4.22,43.12,43.12,0,0,1-5.14,4.09,33,33,0,0,1-5.63,3.1,13.52,13.52,0,0,1-5.18,1.2H182.37a2.09,2.09,0,0,0-1.28.52A6.51,6.51,0,0,0,180,78.42l-1.53,2.65c0,.38.29.56.88.56h32.54c-1.29,1.66-2.4,3.06-3.34,4.18s-1.92,2.3-3,3.53a37.63,37.63,0,0,1-2.85,3.06H166.15a4,4,0,0,1-3.42-1.49,6,6,0,0,1-1.08-3.65,12.81,12.81,0,0,1,.8-4.26,18.89,18.89,0,0,1,2.25-4.34,28.48,28.48,0,0,1,3.62-3.94,49.37,49.37,0,0,1,5-4,33,33,0,0,1,5.38-3.14,12,12,0,0,1,4.82-1.24h15.26a9.82,9.82,0,0,0,1.05-.44c.64-.3,1.15-.55,1.52-.77a8.94,8.94,0,0,0,.81-.44q.48-.27.48-.36l.32-.4a3,3,0,0,0,.8-2.17q0-1-.72-1h-32A29.93,29.93,0,0,1,173,58c.3-.39.62-.77.94-1.16.5-.59,1-1.19,1.55-1.78.88-1,1.75-1.88,2.61-2.77s1.66-1.7,2.41-2.45H216a4.07,4.07,0,0,1,3.66,1.77,7.76,7.76,0,0,1,1.16,4.34,13.82,13.82,0,0,1-.68,4.21A14.93,14.93,0,0,1,218.2,64.12Zm53.1,13.17a33.86,33.86,0,0,1-6,7.48,31.38,31.38,0,0,1-8.08,5.5,21.52,21.52,0,0,1-9.32,2.13h-8a42.87,42.87,0,0,1-8.19-.73,18.39,18.39,0,0,1-6.51-2.45,12.13,12.13,0,0,1-4.3-4.7,16,16,0,0,1-1.56-7.47c0-.64,0-1.31.08-2s.13-1.42.24-2.17a22.88,22.88,0,0,1,2.89-8,33.69,33.69,0,0,1,5.78-7.47A31,31,0,0,1,236,52a18.36,18.36,0,0,1,8.43-2.13H255a34.58,34.58,0,0,1,8,.85,17.84,17.84,0,0,1,6.22,2.65,12.33,12.33,0,0,1,4.06,4.7,15.31,15.31,0,0,1,1.44,6.9,19.28,19.28,0,0,1-.12,2.13c-.08.73-.17,1.49-.28,2.29A21.87,21.87,0,0,1,271.3,77.29Zm48.24,8.52-3,3.53a37.57,37.57,0,0,1-2.86,3.06H277.16a3.94,3.94,0,0,1-3.41-1.49,6.05,6.05,0,0,1-1.09-3.65,12.59,12.59,0,0,1,.81-4.26,18.13,18.13,0,0,1,2.25-4.34,28.33,28.33,0,0,1,3.61-3.94,50.52,50.52,0,0,1,5-4,33.06,33.06,0,0,1,5.39-3.14,12,12,0,0,1,4.81-1.24h15.27a9.27,9.27,0,0,0,1-.44c.64-.3,1.15-.55,1.53-.77.21-.1.48-.25.8-.44s.48-.3.48-.36l.33-.4a3,3,0,0,0,.8-2.17q0-1-.72-1h-32c.54-.86,1.2-1.78,2-2.77s1.61-2,2.49-2.94,1.76-1.88,2.61-2.77,1.66-1.7,2.41-2.45h35.51a4,4,0,0,1,3.65,1.77,7.68,7.68,0,0,1,1.17,4.34,13.82,13.82,0,0,1-.68,4.21,15.23,15.23,0,0,1-2,4,29.53,29.53,0,0,1-3.82,4.22,42.33,42.33,0,0,1-5.14,4.09,32.9,32.9,0,0,1-5.62,3.1,13.52,13.52,0,0,1-5.18,1.2H293.39a2,2,0,0,0-1.28.52A6.57,6.57,0,0,0,291,78.42l-1.53,2.65c0,.38.3.56.89.56h32.53C321.59,83.29,320.47,84.69,319.54,85.81Zm3.34-6.18h-5.16c.23-.09.46-.16.7-.26a35.16,35.16,0,0,0,6-3.28,45.39,45.39,0,0,0,5.38-4.29c.84-.79,1.61-1.57,2.3-2.33.13.32.27.64.43,1a17,17,0,0,0,3,4.08,15.81,15.81,0,0,0,3.94,3,2.56,2.56,0,0,0,.24.11,15.19,15.19,0,0,0,2.76,1.89c.1.06.2.09.3.14H332.19c-1.05,0-1.74.68-3,2.11-.44.52-.9,1.07-1.37,1.65a2,2,0,0,0-2-1.76h-1A2,2,0,0,0,322.88,79.63Zm59.8-24.35c-1.58,1.83-3.34,3.65-5.26,5.47H349.86l-1.12,3.13v.4c0,.06.1.18.32.36l.48.44a7.81,7.81,0,0,0,.92.77,3.3,3.3,0,0,0,.69.44h15.26a6.59,6.59,0,0,1,3.85,1.24,13.41,13.41,0,0,1,3.1,3.1,15.35,15.35,0,0,1,2.05,4,12.65,12.65,0,0,1,.72,3.94v.32a11.75,11.75,0,0,1-1,4.46,18.34,18.34,0,0,1-2.52,4.38A14.63,14.63,0,0,1,369,91.07a7.69,7.69,0,0,1-4.22,1.33h-41a22.79,22.79,0,0,1,1.65-2.57q1.25-1.77,2.65-3.58T330.74,83c.81-.94,1.29-1.41,1.45-1.41H359.5a4.63,4.63,0,0,0,1.61-3.21,2.78,2.78,0,0,0-.24-1.17.9.9,0,0,0-.89-.52H343.92a7.63,7.63,0,0,1-3.58-1,13.89,13.89,0,0,1-3.45-2.61,14.84,14.84,0,0,1-2.61-3.62,8.46,8.46,0,0,1-1-3.93c0-.27,0-.53,0-.77s.07-.49.12-.76l5.23-14.22h48.27A57.19,57.19,0,0,1,382.68,55.28ZM334.44,51.4h1.46l-.45,1.23s-.05-.1-.08-.14A6,6,0,0,0,334.44,51.4Zm38.29-4L371,38.32a8.7,8.7,0,0,1-1.16,1.85c-.67.91-1.42,1.88-2.25,2.89s-1.65,2-2.45,2.81a6.77,6.77,0,0,1-1.77,1.53h-34a5.51,5.51,0,0,1,.16-.57h0V46.6L358.51,9.65a6.16,6.16,0,0,1,1-1.29A21,21,0,0,1,361,6.79c.57-.5,1.13-1,1.69-1.36a2.62,2.62,0,0,1,1.41-.6h13.49a1.91,1.91,0,0,1,1.49.88,8.36,8.36,0,0,1,1.16,2.17,26.43,26.43,0,0,1,.84,2.69c.25.94.45,1.73.61,2.37L387,47.4Z"/><path class="cls-2" d="M215.85,21a1.77,1.77,0,0,0,1.72-1.08A4.5,4.5,0,0,0,218.1,18v-.88a2.28,2.28,0,0,0-.24-1.09c-.16-.29-.57-.44-1.21-.44H200.5l-4.57,12.53L203,21Z"/><path class="cls-2" d="M354.74,35.83v.81H371l-2.81-18.88Zm7.88-1.19,5.09-6.82,1,6.82Z"/><path class="cls-2" d="M258,62.88a5.05,5.05,0,0,0-2-1.61,7.56,7.56,0,0,0-3.26-.6h-6.5a6.73,6.73,0,0,0-2.77.68,14.69,14.69,0,0,0-2.94,1.81,20,20,0,0,0-2.69,2.53,14.84,14.84,0,0,0-2,2.77c-.26.64-.51,1.24-.72,1.81a6.48,6.48,0,0,0-.4,1.48,1.12,1.12,0,0,0-.08.56v.49a9,9,0,0,0,.56,3,10.86,10.86,0,0,0,1.53,2.85A8.25,8.25,0,0,0,239,80.75a5.08,5.08,0,0,0,2.73.8H247a6.12,6.12,0,0,0,2.45-.68,18,18,0,0,0,3-1.81,22.85,22.85,0,0,0,3-2.53,11.57,11.57,0,0,0,2.13-2.77,6.52,6.52,0,0,0,.89-1.77l.32-.8c.1-.49.15-.73.16-.73h0c.05-.43.09-.87.12-1.33s0-.92,0-1.4a13.89,13.89,0,0,0-.24-2.57A5.52,5.52,0,0,0,258,62.88ZM257.13,69c0,.38-.05.76-.1,1.13,0,.16-.08.31-.11.45l-.25.64a2,2,0,0,0-.08.26,5.6,5.6,0,0,1-.63,1.17l-.09.15a10.12,10.12,0,0,1-1.77,2.29,21.84,21.84,0,0,1-2.72,2.32,17.38,17.38,0,0,1-2.72,1.61,4.35,4.35,0,0,1-1.62.5h-5.3l-.32,0-.06-.07a8.52,8.52,0,0,1-1.24-2.33,6.8,6.8,0,0,1-.45-2.33v-.49h0a3,3,0,0,0,.07-.32,4,4,0,0,1,.28-1c.2-.52.42-1.07.66-1.66A12.72,12.72,0,0,1,242.34,69a17.84,17.84,0,0,1,2.42-2.27,12.68,12.68,0,0,1,2.54-1.57,4.64,4.64,0,0,1,1.94-.5h6.5a9.71,9.71,0,0,1,1,0,3.46,3.46,0,0,1,.24.81,11.89,11.89,0,0,1,.21,2.21C257.17,68.16,257.16,68.6,257.13,69Z"/></g></g></svg>