<svg xmlns="http://www.w3.org/2000/svg" viewBox="0 0 202.67 99.22"><defs><style>.cls-1{fill:#fff;}.cls-2{fill:none;}</style></defs><title>scamm vit</title><g id="Layer_2" data-name="Layer 2"><g id="Layer_1-2" data-name="Layer 1"><circle class="cls-1" cx="46.04" cy="19.99" r="7.16"/><path class="cls-1" d="M46,27.64a.5.5,0,0,1-.5-.46c-.4-6.17-.52-6.29-6.69-6.69a.5.5,0,0,1-.46-.5.49.49,0,0,1,.46-.5c6.17-.4,6.29-.53,6.69-6.69a.5.5,0,0,1,1,0c.4,6.16.52,6.29,6.69,6.69a.5.5,0,0,1,.47.5.51.51,0,0,1-.47.5c-6.17.4-6.29.52-6.69,6.69A.5.5,0,0,1,46,27.64ZM43.09,20a3.5,3.5,0,0,1,2.95,3,3.51,3.51,0,0,1,3-3A3.52,3.52,0,0,1,46,17,3.51,3.51,0,0,1,43.09,20Z"/><circle class="cls-1" cx="158.15" cy="70.6" r="7.16"/><path class="cls-1" d="M158.15,78.26a.51.51,0,0,1-.5-.47c-.4-6.17-.52-6.29-6.69-6.69a.5.5,0,0,1,0-1c6.17-.4,6.29-.52,6.69-6.69a.51.51,0,0,1,.5-.47h0a.51.51,0,0,1,.5.47c.4,6.17.52,6.29,6.69,6.69a.5.5,0,0,1,0,1c-6.17.4-6.29.52-6.69,6.69A.51.51,0,0,1,158.15,78.26Zm-3-7.66a3.52,3.52,0,0,1,3,3,3.52,3.52,0,0,1,2.95-3,3.51,3.51,0,0,1-2.95-2.95A3.5,3.5,0,0,1,155.2,70.6Z"/><path class="cls-2" d="M104.26,13.91C103.2,7.69,101.91,4,100.66,3.5h-.53c-1.25.46-2.54,4.19-3.6,10.41C99.1,13.85,101.69,13.85,104.26,13.91Z"/><path class="cls-2" d="M76.62,16.47c-3.53.57-7,1.27-10.33,2.09a46.16,46.16,0,0,0-8.46,13.27c3.81-.76,7.86-1.42,12.08-2A50.65,50.65,0,0,1,76.62,16.47Z"/><path class="cls-2" d="M113.82,14.43c2.93.26,5.83.61,8.67,1C117.71,9.35,111.65,5.21,105,3.9,108.3,5.67,111.33,9.36,113.82,14.43Z"/><path class="cls-2" d="M87.77,14.37c2.63-.21,5.3-.36,8-.44.85-5,1.92-8.74,3.21-10.35C94.7,4.32,90.83,8.25,87.77,14.37Z"/><path class="cls-2" d="M91.58,4.34A46,46,0,0,0,67.24,17.57c3.25-.78,6.61-1.44,10-2A32.87,32.87,0,0,1,91.58,4.34Z"/><path class="cls-2" d="M78.31,15.45c2.79-.42,5.69-.76,8.66-1,2.49-5.07,5.52-8.76,8.87-10.53C89.14,5.21,83.08,9.35,78.31,15.45Z"/><path class="cls-2" d="M113,14.37c-3.06-6.12-6.93-10-11.17-10.79,1.28,1.61,2.36,5.32,3.21,10.35C107.72,14,110.39,14.16,113,14.37Z"/><path class="cls-2" d="M87.39,15.15A62.61,62.61,0,0,0,83,28.6c3.59-.25,7.34-.42,11.14-.52.37-4.95.86-9.53,1.48-13.39C92.86,14.77,90.1,14.92,87.39,15.15Z"/><path class="cls-2" d="M123.52,15.6c3.41.53,6.77,1.19,10,2A46,46,0,0,0,109.2,4.34,32.84,32.84,0,0,1,123.52,15.6Z"/><path class="cls-2" d="M77.67,16.3a49.23,49.23,0,0,0-7,13.47c3.73-.46,7.59-.84,11.5-1.12a64.36,64.36,0,0,1,4.37-13.43C83.53,15.5,80.53,15.86,77.67,16.3Z"/><path class="cls-2" d="M96.4,14.66c-.6,3.7-1.12,8.23-1.52,13.41,3.56-.08,7.45-.08,11,0-.39-5.18-.91-9.71-1.51-13.41C101.73,14.59,99.06,14.59,96.4,14.66Z"/><path class="cls-2" d="M114.2,15.23a64.26,64.26,0,0,1,4.37,13.42c3.91.28,7.77.66,11.5,1.12a49.23,49.23,0,0,0-6.95-13.47C120.21,15.85,117.21,15.5,114.2,15.23Z"/><path class="cls-2" d="M105.19,14.69c.62,3.86,1.11,8.44,1.48,13.39,3.8.1,7.54.27,11.14.52a62.61,62.61,0,0,0-4.41-13.45C110.69,14.92,107.93,14.77,105.19,14.69Z"/><path class="cls-2" d="M100.39,85.37c-1.29,0-2.59,0-3.86-.06,1.06,6.21,2.35,10,3.6,10.42h.53c1.25-.47,2.54-4.21,3.6-10.42C103,85.35,101.69,85.37,100.39,85.37Z"/><path class="cls-2" d="M87.77,84.85C90.83,91,94.7,94.9,98.94,95.64c-1.29-1.61-2.36-5.32-3.21-10.35C93.07,85.21,90.4,85.06,87.77,84.85Z"/><path class="cls-2" d="M113,84.85c-2.63.21-5.3.36-8,.44-.85,5-1.93,8.74-3.21,10.35C106.09,94.9,110,91,113,84.85Z"/><path class="cls-2" d="M122.49,83.77c-2.85.42-5.76.77-8.67,1-2.49,5.07-5.52,8.76-8.87,10.54C111.65,94,117.71,89.87,122.49,83.77Z"/><path class="cls-2" d="M87,84.79c-2.92-.25-5.82-.6-8.67-1C83.08,89.87,89.14,94,95.84,95.33,92.49,93.55,89.46,89.86,87,84.79Z"/><path class="cls-2" d="M109.21,94.88a46,46,0,0,0,24.35-13.23c-3.24.77-6.6,1.44-10,2A32.87,32.87,0,0,1,109.21,94.88Z"/><path class="cls-2" d="M124.17,82.75c3.55-.57,7-1.27,10.34-2.1A46,46,0,0,0,143,67.38c-3.79.76-7.84,1.43-12.08,2A50.5,50.5,0,0,1,124.17,82.75Z"/><path class="cls-2" d="M123.12,82.92a49.36,49.36,0,0,0,6.95-13.47c-3.72.47-7.58.84-11.5,1.12A64.36,64.36,0,0,1,114.2,84C117.2,83.73,120.2,83.37,123.12,82.92Z"/><path class="cls-2" d="M113.4,84.07a62.42,62.42,0,0,0,4.41-13.45c-3.61.25-7.35.43-11.14.52-.37,5-.86,9.53-1.48,13.39C107.93,84.45,110.69,84.3,113.4,84.07Z"/><path class="cls-2" d="M77.27,83.62c-3.46-.54-6.82-1.2-10-2A46,46,0,0,0,91.58,94.88,32.87,32.87,0,0,1,77.27,83.62Z"/><path class="cls-2" d="M104.39,84.56c.6-3.7,1.12-8.22,1.51-13.41-1.76,0-3.6.06-5.51.06s-3.75,0-5.51-.06c.4,5.19.92,9.71,1.52,13.41C99,84.63,101.77,84.63,104.39,84.56Z"/><path class="cls-2" d="M95.6,84.53c-.62-3.86-1.11-8.44-1.48-13.39-3.8-.09-7.54-.27-11.14-.52a62.42,62.42,0,0,0,4.41,13.45C90.1,84.3,92.86,84.45,95.6,84.53Z"/><path class="cls-1" d="M149.3,54.41a4.33,4.33,0,0,1-2.2,1.43l-.22.06-.79.22h0a45.53,45.53,0,0,1-2.76,10.43c-3.8.77-7.88,1.44-12.15,2a60.44,60.44,0,0,0,2.12-9.08l-.79.2a59.16,59.16,0,0,1-2.15,9c-3.74.48-7.63.86-11.59,1.15q.76-3.69,1.25-7.7a4,4,0,0,1-.7-.21l0,0c-.32,2.76-.75,5.42-1.27,7.94-3.64.26-7.42.43-11.26.53.12-1.75.23-3.53.32-5.35-.15,0-.31,0-.46,0h-.29c-.1,1.84-.2,3.63-.33,5.33-3.55.08-7.57.08-11.13,0-.08-1-.15-2.12-.21-3.22l-.75.11c.06,1,.13,2.08.2,3.1-3.84-.1-7.62-.27-11.26-.53l-.21-1.07a4.36,4.36,0,0,1-.52-.05l-.22.07c.06.34.13.67.19,1-1.76-.13-3.51-.28-5.24-.44a4.59,4.59,0,0,1-1,.28l-.26,0-1.49.16c2.66.29,5.38.54,8.12.73A64.36,64.36,0,0,0,86.59,84c-3-.27-6-.63-8.92-1.08a49.14,49.14,0,0,1-6.74-12.86h0l-.76,0a50.17,50.17,0,0,0,6.49,12.71c-3.58-.57-7.05-1.28-10.33-2.09a46.42,46.42,0,0,1-6.69-9.53h-.06l-.52,0-.32,0a6.4,6.4,0,0,1-2.29-.5,6,6,0,0,1-.77.37,49.61,49.61,0,0,0,94.12-16.49A3.84,3.84,0,0,1,149.3,54.41ZM118.57,70.57c3.92-.28,7.78-.65,11.5-1.12a49.36,49.36,0,0,1-6.95,13.47c-2.92.45-5.92.81-8.92,1.08A64.36,64.36,0,0,0,118.57,70.57Zm-11.9.57c3.79-.09,7.53-.27,11.14-.52a62.42,62.42,0,0,1-4.41,13.45c-2.71.23-5.47.38-8.21.46C105.81,80.67,106.3,76.09,106.67,71.14Zm-6.28.07c1.91,0,3.75,0,5.51-.06-.39,5.19-.91,9.71-1.51,13.41-2.62.07-5.37.07-8,0-.6-3.7-1.12-8.22-1.52-13.41C96.64,71.19,98.49,71.21,100.39,71.21ZM83,70.62c3.6.25,7.34.43,11.14.52.37,5,.86,9.53,1.48,13.39-2.74-.08-5.5-.23-8.21-.46A62.42,62.42,0,0,1,83,70.62Zm-15.74,11c3.21.77,6.57,1.43,10,2A32.87,32.87,0,0,0,91.58,94.88,46,46,0,0,1,67.24,81.65ZM78.3,83.77c2.85.42,5.75.77,8.67,1,2.49,5.07,5.52,8.76,8.87,10.54C89.14,94,83.08,89.87,78.3,83.77Zm9.47,1.08c2.63.21,5.3.36,8,.44.85,5,1.92,8.74,3.21,10.35C94.7,94.9,90.83,91,87.77,84.85Zm12.89,10.88h-.53c-1.25-.47-2.54-4.21-3.6-10.42,1.27,0,2.57.06,3.86.06s2.6,0,3.87-.06C103.2,91.52,101.91,95.26,100.66,95.73Zm4.4-10.44c2.66-.08,5.33-.23,8-.44C110,91,106.09,94.9,101.85,95.64,103.13,94,104.21,90.32,105.06,85.29Zm8.76-.5c2.91-.25,5.82-.6,8.67-1C117.71,89.87,111.65,94,105,95.33,108.3,93.55,111.33,89.86,113.82,84.79Zm-4.61,10.09a32.87,32.87,0,0,0,14.31-11.26c3.44-.53,6.8-1.2,10-2A46,46,0,0,1,109.21,94.88Zm25.3-14.23c-3.32.83-6.79,1.53-10.34,2.1a50.5,50.5,0,0,0,6.71-13.4c4.24-.54,8.29-1.21,12.08-2A46,46,0,0,1,134.51,80.65Z"/><path class="cls-1" d="M64.51,43c-3.45.18-6.75.39-9.84.62a45.83,45.83,0,0,1,2.83-11c3.82-.77,7.9-1.44,12.15-2a61.23,61.23,0,0,0-2.48,11.71L68,42.2a59.63,59.63,0,0,1,2.52-11.64c3.75-.48,7.64-.86,11.58-1.14a96.1,96.1,0,0,0-1.74,13l-3.3.1a3.94,3.94,0,0,1,.5.73l2.76-.08h.94c.07-.25.13-.51.22-.76h-.37a96.24,96.24,0,0,1,1.75-13c3.63-.25,7.41-.43,11.26-.52-.21,2.92-.37,6-.48,9.06a6.17,6.17,0,0,1,.73.42c.12-3.36.29-6.54.51-9.5,3.59-.08,7.53-.08,11.13,0,.14,1.91.26,3.92.36,6l.75-.11c-.1-2-.21-4-.35-5.87,3.84.09,7.63.27,11.26.52q.58,2.79,1,5.78a4,4,0,0,1,.61-.91c-.25-1.65-.53-3.26-.86-4.81,4,.28,7.84.66,11.59,1.14.16.5.32,1,.47,1.5a3.74,3.74,0,0,1,.83.21c-.15-.54-.31-1.08-.48-1.6q2.78.36,5.43.78l.25,0,2.85-.2c-2.82-.51-5.76-1-8.79-1.35a50.65,50.65,0,0,0-6.71-13.4c3.52.56,7,1.26,10.33,2.09A46.2,46.2,0,0,1,142.61,31h0l.79-.05.78,0h.26a4.42,4.42,0,0,1,2,.52A49.6,49.6,0,0,0,50.88,46.64l.67-.2a3.78,3.78,0,0,1,.46-.1,4.4,4.4,0,0,1,.73-.06,4.19,4.19,0,0,1,.86.09,4.71,4.71,0,0,1,.73.22l.05,0c0-.73.11-1.47.19-2.19q2.93-.22,6.06-.41ZM82.22,28.65c-3.91.28-7.77.66-11.5,1.12a49.23,49.23,0,0,1,7-13.47c2.86-.44,5.86-.8,8.92-1.08A64.36,64.36,0,0,0,82.22,28.65Zm11.9-.57c-3.8.1-7.55.27-11.14.52a62.61,62.61,0,0,1,4.41-13.45c2.71-.23,5.47-.38,8.21-.46C95,18.55,94.49,23.13,94.12,28.08Zm.76,0c.4-5.18.92-9.71,1.52-13.41,2.66-.07,5.33-.07,8,0,.6,3.7,1.12,8.23,1.51,13.41C102.33,28,98.44,28,94.88,28.07Zm11.79,0c-.37-4.95-.86-9.53-1.48-13.39,2.74.08,5.5.23,8.21.46a62.61,62.61,0,0,1,4.41,13.45C114.21,28.35,110.47,28.18,106.67,28.08Zm23.4,1.69c-3.73-.46-7.59-.84-11.5-1.12a64.26,64.26,0,0,0-4.37-13.42c3,.27,6,.62,8.92,1.07A49.23,49.23,0,0,1,130.07,29.77Zm3.48-12.2c-3.26-.78-6.62-1.44-10-2A32.84,32.84,0,0,0,109.2,4.34,46,46,0,0,1,133.55,17.57Zm-11.06-2.11c-2.84-.42-5.74-.77-8.67-1C111.33,9.36,108.3,5.67,105,3.9,111.65,5.21,117.71,9.35,122.49,15.46ZM113,14.37c-2.63-.21-5.3-.36-8-.44-.85-5-1.93-8.74-3.21-10.35C106.09,4.32,110,8.25,113,14.37ZM100.13,3.5h.53c1.25.46,2.54,4.19,3.6,10.41-2.57-.06-5.16-.06-7.73,0C97.59,7.69,98.88,4,100.13,3.5Zm-4.4,10.43c-2.66.08-5.33.23-8,.44,3.06-6.12,6.93-10,11.17-10.79C97.65,5.19,96.58,8.9,95.73,13.93Zm-8.76.5c-3,.26-5.87.6-8.66,1C83.08,9.35,89.14,5.21,95.84,3.9,92.49,5.67,89.46,9.36,87,14.43ZM91.58,4.34A32.87,32.87,0,0,0,77.27,15.6c-3.42.53-6.78,1.19-10,2A46,46,0,0,1,91.58,4.34ZM66.29,18.56c3.33-.82,6.8-1.52,10.33-2.09a50.65,50.65,0,0,0-6.71,13.4c-4.22.54-8.27,1.2-12.08,2A46.16,46.16,0,0,1,66.29,18.56Z"/><path class="cls-1" d="M98.09,42.63l.09.13a.86.86,0,0,1,.1.16c1.55,0,3.08,0,4.62,0l-.14-.76h-5Z"/><path class="cls-1" d="M49,62.21l-.1-.16a1.93,1.93,0,0,0-.35-.44.55.55,0,0,0-.47-.18l-6,.78a5,5,0,0,1-1.83-.13,9.21,9.21,0,0,1-1.8-.66A8.2,8.2,0,0,1,37,60.49a5.08,5.08,0,0,1-1-1,2.06,2.06,0,0,1-.39-1.18,3.63,3.63,0,0,1,.2-1.41,3.89,3.89,0,0,1,.78-1.34,3,3,0,0,1,1.35-.87q7.41-2.29,14.88-4.33a13.93,13.93,0,0,1-.45,2.3A17.84,17.84,0,0,1,51.45,55c-3.25.71-6.5,1.43-9.73,2.18a.41.41,0,0,0-.33.47,1,1,0,0,0,.13.6l.07.12s.08,0,.19.08l.26.09a1.63,1.63,0,0,0,.46.11l.3,0,5.63-1.09a3.75,3.75,0,0,1,1.88.11,6.23,6.23,0,0,1,1.74.89,9.35,9.35,0,0,1,1.46,1.35,8.38,8.38,0,0,1,1,1.44l.1.17a4.84,4.84,0,0,1,.54,1.7A5.16,5.16,0,0,1,55.12,65a2.82,2.82,0,0,1-.69,1.34,1.85,1.85,0,0,1-1.32.58q-7.74.41-15.49.52a3.36,3.36,0,0,1,.14-.73q.14-.51.33-1c.12-.36.25-.68.37-1s.22-.43.28-.44q5.1-.47,10.22-1c.3,0,.43-.13.38-.3a2.18,2.18,0,0,0-.23-.53Z"/><path class="cls-1" d="M58.5,58.48a9.05,9.05,0,0,1-1-3.13,8.19,8.19,0,0,1,.18-3.14A6.8,6.8,0,0,1,59,49.59,4.6,4.6,0,0,1,61.52,48q6.07-1.52,12.21-2.86c-.14,1-.31,2-.51,2.86a15.13,15.13,0,0,1-.82,2.6c-2.58.5-5.16,1-7.74,1.53a1.15,1.15,0,0,0-.67.44,2.76,2.76,0,0,0-.45.89,4.61,4.61,0,0,0-.2,1.16,4.76,4.76,0,0,0,.07,1.2,5.86,5.86,0,0,0,.45,1.38,5.47,5.47,0,0,0,1,1.28,11,11,0,0,0,1.43,1.2,9.73,9.73,0,0,0,1.54.88,2.55,2.55,0,0,0,1.27.27c2.39-.3,4.79-.62,7.18-.94a23.91,23.91,0,0,1-.35,2.69A9.06,9.06,0,0,1,75,65.19l-2.41.24a18.4,18.4,0,0,1-3.85-.05,13.91,13.91,0,0,1-3.86-1,13,13,0,0,1-3.53-2.2,12.53,12.53,0,0,1-2.84-3.63Z"/><path class="cls-1" d="M98.9,62.08l-2.63-4.2a4,4,0,0,1,0,.94c0,.47-.12,1-.2,1.5s-.18,1-.29,1.47a1.94,1.94,0,0,1-.33.82q-6.35,1-12.72,1.72a1.71,1.71,0,0,1-.07-.26.61.61,0,0,0,0-.12c.92-6.12,1.82-12.38,2.71-18.74a2.16,2.16,0,0,1,.07-.66,6,6,0,0,1,.24-.83,5.82,5.82,0,0,1,.33-.75c.12-.23.25-.35.39-.38l5-.92a1,1,0,0,1,.75.32,6,6,0,0,1,.91.95c.31.38.62.79.91,1.21l.75,1.08,9.58,16C102.46,61.5,100.68,61.8,98.9,62.08ZM89.81,58l6.09-.94c-1.74-2.92-3.48-5.84-5.22-8.73q-.53,4.66-1.05,9.29Z"/><path class="cls-1" d="M127.81,56.5l-1.89-10.9q-1.52,5.84-3,12l-2,.44c-2.27-3.44-4.55-7-6.85-10.56q1,5.77,2,11.55-2.85.57-5.72,1.1-1.78-10.44-3.59-20.88,3.65-.51,7.29-1c2.07,3.24,4.14,6.43,6.19,9.54q1.35-5.4,2.74-10.55,3.65-.37,7.31-.69,1.62,9.32,3.22,18.59C131.6,55.62,129.71,56.06,127.81,56.5Z"/><path class="cls-1" d="M157.48,48.62l-1.35-7.56q-1.77,4.15-3.43,9l-2,.58c-2.09-2.38-4.22-5-6.38-7.81q.8,4.57,1.61,9.15l-5.64,1.5q-1.5-8.7-3-17.43,3.66-.26,7.34-.45,2.94,3.9,5.8,7.31c1-2.74,2.09-5.31,3.18-7.69,2.45-.08,4.9-.13,7.36-.17q1,6,2.11,11.86Q160.27,47.77,157.48,48.62Z"/><path class="cls-1" d="M56.84,62.81A2,2,0,0,1,58.32,62a2.33,2.33,0,0,1,1.45.28,2.43,2.43,0,0,1,1,1A2.53,2.53,0,0,1,61,64.51a2,2,0,0,1-.39,1.24,2,2,0,0,1-.64.53,2.09,2.09,0,0,1-.87.24,2.59,2.59,0,0,1-2.45-1.35,1.94,1.94,0,0,1-.26-.71A2.25,2.25,0,0,1,56.84,62.81Z"/><path class="cls-1" d="M77.57,60.32a1.9,1.9,0,0,1,1.46-1,2,2,0,0,1,1.46.32,2.9,2.9,0,0,1,1,1.17,3.32,3.32,0,0,1,.3,1.45,2.67,2.67,0,0,1-.36,1.45,2,2,0,0,1-.62.64,1.9,1.9,0,0,1-.87.31,2.19,2.19,0,0,1-1.45-.33,2.92,2.92,0,0,1-1-1.19,2.5,2.5,0,0,1-.28-.85A3,3,0,0,1,77.57,60.32Z"/><path class="cls-1" d="M104.46,56.25a2,2,0,0,1,2.91-.8,2.82,2.82,0,0,1,1,1.19,3.48,3.48,0,0,1,.31,1.49,3,3,0,0,1-.35,1.53,2.15,2.15,0,0,1-.61.7,2,2,0,0,1-.85.38,2,2,0,0,1-1.45-.28,2.8,2.8,0,0,1-1-1.21,2.87,2.87,0,0,1-.29-.89A3.48,3.48,0,0,1,104.46,56.25Z"/><path class="cls-1" d="M134.59,50.58a2.21,2.21,0,0,1,2.88-.87,2.22,2.22,0,0,1,1,.95,2.59,2.59,0,0,1,.27,1.25,2.51,2.51,0,0,1-.38,1.34,2.56,2.56,0,0,1-.61.67,2.38,2.38,0,0,1-.85.4,2.05,2.05,0,0,1-1.41-.11,2.18,2.18,0,0,1-1-1,2,2,0,0,1-.27-.77A2.89,2.89,0,0,1,134.59,50.58Z"/><path class="cls-1" d="M202.21,35.21c-3.29-7.51-24.93-11.2-57.9-9.89h-1.66l.79,1.47c.23.43.45.87.66,1.31l.3.57H145c25.75-.23,36.8,4.16,38.56,8.35.79,1.87-.08,4.07-2.56,6.55-5.13,5.14-16.63,10.74-32.38,15.77-20.49,6.55-46,11.51-70,13.62C71.41,73.59,64.44,74,58,74,32,74.3,20.87,69.88,19.09,65.67c-.78-1.87.08-4.07,2.56-6.55,4.84-4.85,15.49-10.17,30-15l.6-.2.08-.62c.13-1,.31-2.13.53-3.23l.31-1.56-1.54.4C27.12,45.26,9.92,52.46,3.18,59.2.25,62.13-.66,64.91.47,67.48,3.32,74,20,77.62,45.82,77.62q6.16,0,13-.27c6-.25,12.37-.67,18.85-1.24a471.19,471.19,0,0,0,70.69-11.67c25.58-6.39,44.22-14,51.14-21C202.42,40.55,203.33,37.77,202.21,35.21Z"/></g></g></svg>