<svg xmlns="http://www.w3.org/2000/svg" viewBox="0 0 392.52 99.22"><defs><style>.cls-1{fill:none;}.cls-2{fill:#fff;}</style></defs><title>vit</title><g id="Layer_2" data-name="Layer 2"><g id="Layer_1-2" data-name="Layer 1"><path class="cls-1" d="M72.87,76.51c-3.21.25-6.37.45-9.46.62.91,1.22,1.85,2.4,2.88,3.53,3.28.81,6.75,1.52,10.33,2.09A46.25,46.25,0,0,1,72.87,76.51Z"/><path class="cls-1" d="M130.38,68.48l-2,.4,1.92-.22S130.36,68.54,130.38,68.48Z"/><path class="cls-1" d="M86.59,84a57.49,57.49,0,0,1-3.11-8.44q-2.91.3-5.81.55l-4,.33a45.82,45.82,0,0,0,4,6.48C80.59,83.37,83.59,83.73,86.59,84Z"/><path class="cls-1" d="M94.12,71.14c-3.8-.09-7.54-.27-11.14-.52.13.64.28,1.26.43,1.88,3.55-.37,7.14-.8,10.72-1.28Z"/><path class="cls-1" d="M117.76,70.86c-3.71.64-7.46,1.24-11.21,1.81-.35,4.36-.81,8.4-1.36,11.86,2.74-.08,5.5-.23,8.21-.46A62.76,62.76,0,0,0,117.76,70.86Z"/><path class="cls-1" d="M104.39,84.56c.53-3.31,1-7.27,1.38-11.78q-5.3.8-10.63,1.46c.36,3.9.78,7.38,1.26,10.32C99,84.63,101.77,84.63,104.39,84.56Z"/><path class="cls-1" d="M124.17,82.75c3.55-.57,7-1.27,10.34-2.1A46,46,0,0,0,143,67.38c-3.79.76-7.84,1.43-12.08,2A50.5,50.5,0,0,1,124.17,82.75Z"/><path class="cls-1" d="M130.07,69.45c-3.24.4-6.59.73-10,1l-1.55.28A63.3,63.3,0,0,1,114.2,84c3-.27,6-.63,8.92-1.08A49.36,49.36,0,0,0,130.07,69.45Z"/><path class="cls-1" d="M113,84.85c-2.63.21-5.3.36-8,.44-.85,5-1.93,8.74-3.21,10.35C106.09,94.9,110,91,113,84.85Z"/><path class="cls-1" d="M122.49,83.77c-2.85.42-5.76.77-8.67,1-2.49,5.07-5.52,8.76-8.87,10.54C111.65,94,117.71,89.87,122.49,83.77Z"/><path class="cls-1" d="M109.21,94.88a46,46,0,0,0,24.35-13.23c-3.24.77-6.6,1.44-10,2A32.87,32.87,0,0,1,109.21,94.88Z"/><path class="cls-1" d="M87.77,84.85C90.83,91,94.7,94.9,98.94,95.64c-1.29-1.61-2.36-5.32-3.21-10.35C93.07,85.21,90.4,85.06,87.77,84.85Z"/><path class="cls-1" d="M100.39,85.37c-1.29,0-2.59,0-3.86-.06,1.06,6.21,2.35,10,3.6,10.42h.53c1.25-.47,2.54-4.21,3.6-10.42C103,85.35,101.69,85.37,100.39,85.37Z"/><path class="cls-1" d="M87,84.79c-2.92-.25-5.82-.6-8.67-1C83.08,89.87,89.14,94,95.84,95.33,92.49,93.55,89.46,89.86,87,84.79Z"/><path class="cls-1" d="M77.27,83.62c-3.46-.54-6.82-1.2-10-2A46,46,0,0,0,91.58,94.88,32.87,32.87,0,0,1,77.27,83.62Z"/><path class="cls-1" d="M84.2,75.49a55.78,55.78,0,0,0,3.19,8.58c2.71.23,5.47.38,8.21.46-.48-3-.89-6.47-1.22-10.2Q89.28,75,84.2,75.49Z"/><path class="cls-1" d="M87.39,15.15A62.61,62.61,0,0,0,83,28.6c3.59-.25,7.34-.42,11.14-.52.37-4.95.86-9.53,1.48-13.39C92.86,14.77,90.1,14.92,87.39,15.15Z"/><path class="cls-1" d="M96.4,14.66c-.6,3.7-1.12,8.23-1.52,13.41,3.56-.08,7.45-.08,11,0-.39-5.18-.91-9.71-1.51-13.41C101.73,14.59,99.06,14.59,96.4,14.66Z"/><path class="cls-1" d="M105.19,14.69c.62,3.86,1.11,8.44,1.48,13.39,3.8.1,7.54.27,11.14.52a62.61,62.61,0,0,0-4.41-13.45C110.69,14.92,107.93,14.77,105.19,14.69Z"/><path class="cls-1" d="M370.53,35.14,369.17,26l-1.45-9.75-13.5,18.07v.81h16.31Zm-4.4-12.58.57,3.82.37,2.45-2.84,3.81h-5.62Z"/><path class="cls-1" d="M114.2,15.23a64.26,64.26,0,0,1,4.37,13.42c3.91.28,7.77.66,11.5,1.12a49.23,49.23,0,0,0-6.95-13.47C120.21,15.85,117.21,15.5,114.2,15.23Z"/><path class="cls-1" d="M205.25,19.47h10.08a1.89,1.89,0,0,0,1.17-.38,2,2,0,0,0,.56-.7,4.47,4.47,0,0,0,.52-1.89v-.88a2.28,2.28,0,0,0-.24-1.09c-.16-.29-.56-.44-1.2-.44H200l-4.58,12.53,7.07-7.15Zm-3.51-2.88h13.33A1.87,1.87,0,0,1,215,17H202.48a2.56,2.56,0,0,0-.95.19Z"/><path class="cls-1" d="M77.67,16.3a49.23,49.23,0,0,0-7,13.47c3.73-.46,7.59-.84,11.5-1.12a64.36,64.36,0,0,1,4.37-13.43C83.53,15.5,80.53,15.86,77.67,16.3Z"/><path class="cls-1" d="M78.31,15.45c2.79-.42,5.69-.76,8.66-1,2.49-5.07,5.52-8.76,8.87-10.53C89.14,5.21,83.08,9.35,78.31,15.45Z"/><path class="cls-1" d="M76.62,16.47c-3.53.57-7,1.27-10.33,2.09a46.16,46.16,0,0,0-8.46,13.27c3.81-.76,7.86-1.42,12.08-2A50.65,50.65,0,0,1,76.62,16.47Z"/><path class="cls-1" d="M91.58,4.34A46,46,0,0,0,67.24,17.57c3.25-.78,6.61-1.44,10-2A32.87,32.87,0,0,1,91.58,4.34Z"/><path class="cls-1" d="M87.77,14.37c2.63-.21,5.3-.36,8-.44.85-5,1.92-8.74,3.21-10.35C94.7,4.32,90.83,8.25,87.77,14.37Z"/><path class="cls-1" d="M113.82,14.43c2.93.26,5.83.61,8.67,1C117.71,9.35,111.65,5.21,105,3.9,108.3,5.67,111.33,9.36,113.82,14.43Z"/><path class="cls-1" d="M123.52,15.6c3.41.53,6.77,1.19,10,2A46,46,0,0,0,109.2,4.34,32.84,32.84,0,0,1,123.52,15.6Z"/><path class="cls-1" d="M104.26,13.91C103.2,7.69,101.91,4,100.66,3.5h-.53c-1.25.46-2.54,4.19-3.6,10.41C99.1,13.85,101.69,13.85,104.26,13.91Z"/><path class="cls-1" d="M113,14.37c-3.06-6.12-6.93-10-11.17-10.79,1.28,1.61,2.36,5.32,3.21,10.35C107.72,14,110.39,14.16,113,14.37Z"/><path class="cls-1" d="M258.42,63.67a5.52,5.52,0,0,0-1-2.29,5.13,5.13,0,0,0-2-1.61,7.59,7.59,0,0,0-3.26-.6h-6.51a6.61,6.61,0,0,0-2.77.68A14.91,14.91,0,0,0,240,61.66a20,20,0,0,0-2.69,2.53,14.09,14.09,0,0,0-2,2.77c-.27.64-.51,1.24-.72,1.81a6,6,0,0,0-.4,1.48c-.06.06-.08.24-.08.56v.49a8.8,8.8,0,0,0,.56,3,10.57,10.57,0,0,0,1.53,2.85,8.36,8.36,0,0,0,2.24,2.09,5.13,5.13,0,0,0,2.74.8h5.3a6.29,6.29,0,0,0,2.45-.68A18,18,0,0,0,252,77.56,22.85,22.85,0,0,0,255,75a11.57,11.57,0,0,0,2.13-2.77,6.43,6.43,0,0,0,.88-1.77l.33-.8a5.24,5.24,0,0,1,.16-.73h0c.05-.43.09-.87.12-1.33s0-.92,0-1.4a13.88,13.88,0,0,0-.12-1.7C258.5,64.25,258.47,64,258.42,63.67Zm-8.7.5a4.6,4.6,0,0,0-1.93.5,12.68,12.68,0,0,0-2.54,1.57,17.84,17.84,0,0,0-2.42,2.27,12.25,12.25,0,0,0-1.66,2.31c-.24.59-.46,1.14-.66,1.66a4.2,4.2,0,0,0-.29,1,1.65,1.65,0,0,1-.06.32h0v.49a7,7,0,0,0,.44,2.33c.12.32.26.61.4.91a2.7,2.7,0,0,1-1.18-.41,5.9,5.9,0,0,1-1.57-1.47,8.39,8.39,0,0,1-1.18-2.19,6.62,6.62,0,0,1-.41-2.17v-.42a2,2,0,0,0,.06-.32,3.9,3.9,0,0,1,.25-.9c.2-.51.41-1,.65-1.63a12.81,12.81,0,0,1,1.58-2.19,18.19,18.19,0,0,1,2.36-2.21A12.15,12.15,0,0,1,244,62.12a4.27,4.27,0,0,1,1.72-.45h6.51a5.13,5.13,0,0,1,2.17.35,2.59,2.59,0,0,1,1,.82,3.07,3.07,0,0,1,.54,1.28v0Z"/><path class="cls-1" d="M89.63,57.64l.18.38,6.09-.94c-1.74-2.92-3.48-5.84-5.22-8.73Q90.16,53,89.63,57.64Z"/><path class="cls-1" d="M131.14,68.56c4.27-.56,8.35-1.23,12.15-2,.13-.32.23-.65.35-1q-6.07,1.44-12.43,2.74A2.17,2.17,0,0,1,131.14,68.56Z"/><path class="cls-2" d="M38.85,20.49c6.17.4,6.29.52,6.69,6.69a.5.5,0,0,0,1,0c.4-6.17.52-6.29,6.69-6.69a.51.51,0,0,0,.47-.5.5.5,0,0,0-.47-.5c-6.17-.4-6.29-.53-6.69-6.69a.5.5,0,0,0-1,0c-.4,6.16-.52,6.29-6.69,6.69a.49.49,0,0,0-.46.5A.5.5,0,0,0,38.85,20.49Z"/><path class="cls-2" d="M165.81,70.6a.51.51,0,0,0-.47-.5c-6.17-.4-6.29-.52-6.69-6.69a.5.5,0,0,0-1,0c-.4,6.17-.52,6.29-6.69,6.69a.5.5,0,0,0,0,1c6.17.4,6.29.52,6.69,6.69a.5.5,0,0,0,1,0c.4-6.17.52-6.29,6.69-6.69A.51.51,0,0,0,165.81,70.6Z"/><path class="cls-2" d="M98.28,42.92c1.55,0,3.08,0,4.62,0l-.14-.76h-5l.33.47.09.13A.86.86,0,0,1,98.28,42.92Z"/><path class="cls-2" d="M49,63.21q-5.12.52-10.22,1c-.06,0-.15.16-.28.44s-.25.61-.37,1-.24.71-.33,1a3.36,3.36,0,0,0-.14.73q7.76-.12,15.49-.52a1.85,1.85,0,0,0,1.32-.58A2.82,2.82,0,0,0,55.12,65a5.16,5.16,0,0,0,.05-1.72,4.84,4.84,0,0,0-.54-1.7l-.1-.17a8.38,8.38,0,0,0-1-1.44,9.35,9.35,0,0,0-1.46-1.35,6.23,6.23,0,0,0-1.74-.89,3.75,3.75,0,0,0-1.88-.11L42.8,58.66l-.3,0a1.63,1.63,0,0,1-.46-.11l-.26-.09c-.11,0-.18-.06-.19-.08l-.07-.12a1,1,0,0,1-.13-.6.41.41,0,0,1,.33-.47C45,56.4,48.2,55.68,51.45,55a17.84,17.84,0,0,0,.84-2.34,13.93,13.93,0,0,0,.45-2.3q-7.47,2-14.88,4.33a3,3,0,0,0-1.35.87,3.94,3.94,0,0,0-.78,1.33,3.7,3.7,0,0,0-.2,1.42,2.06,2.06,0,0,0,.39,1.18,5.08,5.08,0,0,0,1,1,8.2,8.2,0,0,0,1.53.93,9.21,9.21,0,0,0,1.8.66,5,5,0,0,0,1.83.13l6-.78a.55.55,0,0,1,.47.18,1.93,1.93,0,0,1,.35.44l.1.16.09.17a2.18,2.18,0,0,1,.23.53C49.39,63.08,49.26,63.18,49,63.21Z"/><path class="cls-2" d="M64.9,64.38a13.91,13.91,0,0,0,3.86,1,18.4,18.4,0,0,0,3.85.05L75,65.19a9.06,9.06,0,0,0,.89-2.58,23.91,23.91,0,0,0,.35-2.69c-2.39.32-4.79.64-7.18.94a2.55,2.55,0,0,1-1.27-.27,9.73,9.73,0,0,1-1.54-.88,11,11,0,0,1-1.43-1.2,5.47,5.47,0,0,1-1-1.28,5.86,5.86,0,0,1-.45-1.38,4.79,4.79,0,0,1-.07-1.2,4.61,4.61,0,0,1,.2-1.16A2.76,2.76,0,0,1,64,52.6a1.15,1.15,0,0,1,.67-.44c2.58-.53,5.16-1,7.74-1.53a15.13,15.13,0,0,0,.82-2.6c.2-.9.37-1.85.51-2.86Q67.6,46.51,61.52,48A4.6,4.6,0,0,0,59,49.59a6.8,6.8,0,0,0-1.34,2.62,8.19,8.19,0,0,0-.18,3.14,9.05,9.05,0,0,0,1,3.13l0,.07a12.53,12.53,0,0,0,2.84,3.63A13,13,0,0,0,64.9,64.38Z"/><path class="cls-2" d="M104.23,61.2l-9.58-16-.75-1.08c-.29-.42-.6-.83-.91-1.21a6,6,0,0,0-.91-.95,1,1,0,0,0-.75-.32l-5,.92c-.14,0-.27.15-.39.38a5.82,5.82,0,0,0-.33.75,6,6,0,0,0-.24.83,2.16,2.16,0,0,0-.07.66C84.4,51.57,83.5,57.83,82.58,64a.61.61,0,0,1,0,.12,1.71,1.71,0,0,0,.07.26q6.38-.77,12.72-1.72a1.94,1.94,0,0,0,.33-.82c.11-.45.2-.94.29-1.47s.15-1,.2-1.5a4,4,0,0,0,0-.94l2.63,4.2ZM89.81,58l-.18-.38q.53-4.62,1.05-9.29c1.74,2.89,3.48,5.81,5.22,8.73Z"/><path class="cls-2" d="M123,57.58q1.45-6.13,3-12l1.89,10.9c1.9-.44,3.79-.88,5.68-1.34q-1.61-9.28-3.22-18.59-3.66.32-7.31.69-1.39,5.15-2.74,10.55c-2-3.11-4.12-6.3-6.19-9.54q-3.65.45-7.29,1,1.8,10.44,3.59,20.88,2.86-.53,5.72-1.1-1-5.77-2-11.55c2.3,3.59,4.58,7.12,6.85,10.56Z"/><path class="cls-2" d="M152.7,50q1.67-4.82,3.43-9l1.35,7.56q2.79-.84,5.57-1.73Q162,41,160.94,35c-2.46,0-4.91.09-7.36.17-1.09,2.38-2.15,4.95-3.18,7.69q-2.86-3.41-5.8-7.31-3.67.2-7.34.45,1.52,8.73,3,17.43l5.64-1.5q-.81-4.58-1.61-9.15,3.24,4.21,6.38,7.81Z"/><path class="cls-2" d="M59.77,62.24A2.33,2.33,0,0,0,58.32,62a2,2,0,0,0-1.48.85,2.25,2.25,0,0,0-.42,1.65,1.94,1.94,0,0,0,.26.71,2.59,2.59,0,0,0,2.45,1.35,2.09,2.09,0,0,0,.87-.24,2,2,0,0,0,.64-.53A2,2,0,0,0,61,64.51a2.53,2.53,0,0,0-.27-1.25A2.43,2.43,0,0,0,59.77,62.24Z"/><path class="cls-2" d="M80.49,59.63A2,2,0,0,0,79,59.31a1.9,1.9,0,0,0-1.46,1,3,3,0,0,0-.37,2,2.5,2.5,0,0,0,.28.85,2.83,2.83,0,0,0,1,1.18,2.14,2.14,0,0,0,1.45.34,2,2,0,0,0,.87-.31,2,2,0,0,0,.62-.64,2.67,2.67,0,0,0,.36-1.45,3.32,3.32,0,0,0-.3-1.45A2.9,2.9,0,0,0,80.49,59.63Z"/><path class="cls-2" d="M105.44,60.46a2,2,0,0,0,1.45.28,2,2,0,0,0,.85-.38,2.15,2.15,0,0,0,.61-.7,3,3,0,0,0,.35-1.53,3.44,3.44,0,0,0-.31-1.49,2.82,2.82,0,0,0-1-1.19,2,2,0,0,0-2.91.8,3.48,3.48,0,0,0-.34,2.11,2.87,2.87,0,0,0,.29.89A2.8,2.8,0,0,0,105.44,60.46Z"/><path class="cls-2" d="M137.47,49.71a2.21,2.21,0,0,0-2.88.87,2.89,2.89,0,0,0-.38,1.87,2,2,0,0,0,.27.77,2.18,2.18,0,0,0,1,1,2.05,2.05,0,0,0,1.41.11,2.38,2.38,0,0,0,.85-.4,2.56,2.56,0,0,0,.61-.67,2.51,2.51,0,0,0,.38-1.34,2.59,2.59,0,0,0-.27-1.25A2.22,2.22,0,0,0,137.47,49.71Z"/><path class="cls-2" d="M177.83,47.57c-6.06,3.9-17.22,7.91-28.76,11.62.3-1.53.54-3.09.69-4.67a3.84,3.84,0,0,1-.46-.11,4.33,4.33,0,0,1-2.2,1.43l-.22.06-.79.22h0a43.31,43.31,0,0,1-.83,4.26c-4.11,1.25-8.4,2.43-12.82,3.54.34-1.45.63-2.93.86-4.45l-.79.2c-.24,1.51-.54,3-.88,4.45-4,1-8.14,1.94-12.33,2.81.27-1.58.52-3.18.72-4.83a4,4,0,0,1-.7-.21l0,0c-.2,1.78-.47,3.49-.76,5.18q-5.79,1.19-11.7,2.19c.09-1.39.18-2.81.25-4.25-.15,0-.31,0-.46,0h-.29c-.08,1.5-.17,3-.26,4.36q-3.25.54-6.53,1c-1.59,0-3.17,0-4.67-.06-.08-1-.15-2.12-.21-3.22l-.75.11c.06,1,.13,2.08.2,3.1-3.84-.1-7.62-.27-11.26-.53l-.21-1.07a4.36,4.36,0,0,1-.52-.05l-.22.07c.06.34.13.67.19,1-1.76-.13-3.51-.28-5.24-.44a4.59,4.59,0,0,1-1,.28l-.26,0-1.49.16c2.66.29,5.38.54,8.12.73.15.68.3,1.34.46,2l-4,.38c-2.17.19-4.3.35-6.41.49-.47-1.1-.92-2.23-1.33-3.38h0l-.76,0c.41,1.18.86,2.33,1.33,3.45-3.5.22-6.92.37-10.23.45-.57-.91-1.12-1.85-1.63-2.81h-.06l-.52,0-.32,0a6.4,6.4,0,0,1-2.29-.5,6,6,0,0,1-.77.37c.49,1,1,2,1.58,3-25.41.19-36.37-4.18-38.13-8.35-.78-1.87.08-4.07,2.56-6.55,4.78-4.78,15.22-10,29.42-14.79-.08.76-.14,1.53-.19,2.31l.67-.2a3.78,3.78,0,0,1,.46-.1,4.4,4.4,0,0,1,.73-.06,4.19,4.19,0,0,1,.86.09,4.71,4.71,0,0,1,.73.22l.05,0c0-.73.11-1.47.19-2.19q2.93-.22,6.06-.41l3.88-1c-3.45.18-6.75.39-9.84.62a45.83,45.83,0,0,1,2.83-11c3.82-.77,7.9-1.44,12.15-2a61.23,61.23,0,0,0-2.48,11.71L68,42.2a59.63,59.63,0,0,1,2.52-11.64c3.75-.48,7.64-.86,11.58-1.14a96.1,96.1,0,0,0-1.74,13l-3.3.1a3.94,3.94,0,0,1,.5.73l2.76-.08h.94c.07-.25.13-.51.22-.76h-.37a96.24,96.24,0,0,1,1.75-13c3.63-.25,7.41-.43,11.26-.52-.21,2.92-.37,6-.48,9.06a6.17,6.17,0,0,1,.73.42c.12-3.36.29-6.54.51-9.5,3.59-.08,7.53-.08,11.13,0,.14,1.91.26,3.92.36,6l.75-.11c-.1-2-.21-4-.35-5.87,3.84.09,7.63.27,11.26.52q.58,2.79,1,5.78a4,4,0,0,1,.61-.91c-.25-1.65-.53-3.26-.86-4.81,4,.28,7.84.66,11.59,1.14.16.5.32,1,.47,1.5a3.74,3.74,0,0,1,.83.21c-.15-.54-.31-1.08-.48-1.6q2.78.36,5.43.78l.25,0,2.85-.2c-2.82-.51-5.76-1-8.79-1.35a50.65,50.65,0,0,0-6.71-13.4c3.52.56,7,1.26,10.33,2.09A46.2,46.2,0,0,1,142.61,31h0l.79-.05.78,0h.26a4.42,4.42,0,0,1,2,.52c-.37-.94-.78-1.86-1.2-2.77,16.31-.12,26.67,1.62,32.49,4l2.3-6.31c-9.45-1.21-21.58-1.58-35.82-1h-.69A49.58,49.58,0,0,0,52,38.83l-.37.1C27.12,45.26,9.92,52.46,3.18,59.2.25,62.13-.66,64.91.47,67.48,3.32,74,20,77.62,45.82,77.62q6.16,0,13-.27l.45,0a49.58,49.58,0,0,0,88.4-12.71l.69-.17c7.88-2,13.77-4.06,20.2-6.21ZM82.22,28.65c-3.91.28-7.77.66-11.5,1.12a49.23,49.23,0,0,1,7-13.47c2.86-.44,5.86-.8,8.92-1.08A64.36,64.36,0,0,0,82.22,28.65Zm11.9-.57c-3.8.1-7.55.27-11.14.52a62.61,62.61,0,0,1,4.41-13.45c2.71-.23,5.47-.38,8.21-.46C95,18.55,94.49,23.13,94.12,28.08Zm.76,0c.4-5.18.92-9.71,1.52-13.41,2.66-.07,5.33-.07,8,0,.6,3.7,1.12,8.23,1.51,13.41C102.33,28,98.44,28,94.88,28.07Zm11.79,0c-.37-4.95-.86-9.53-1.48-13.39,2.74.08,5.5.23,8.21.46a62.61,62.61,0,0,1,4.41,13.45C114.21,28.35,110.47,28.18,106.67,28.08Zm23.4,1.69c-3.73-.46-7.59-.84-11.5-1.12a64.26,64.26,0,0,0-4.37-13.42c3,.27,6,.62,8.92,1.07A49.23,49.23,0,0,1,130.07,29.77Zm3.48-12.2c-3.26-.78-6.62-1.44-10-2A32.84,32.84,0,0,0,109.2,4.34,46,46,0,0,1,133.55,17.57Zm-11.06-2.11c-2.84-.42-5.74-.77-8.67-1C111.33,9.36,108.3,5.67,105,3.9,111.65,5.21,117.71,9.35,122.49,15.46ZM113,14.37c-2.63-.21-5.3-.36-8-.44-.85-5-1.93-8.74-3.21-10.35C106.09,4.32,110,8.25,113,14.37ZM100.13,3.5h.53c1.25.46,2.54,4.19,3.6,10.41-2.57-.06-5.16-.06-7.73,0C97.59,7.69,98.88,4,100.13,3.5Zm-4.4,10.43c-2.66.08-5.33.23-8,.44,3.06-6.12,6.93-10,11.17-10.79C97.65,5.19,96.58,8.9,95.73,13.93Zm-8.76.5c-3,.26-5.87.6-8.66,1C83.08,9.35,89.14,5.21,95.84,3.9,92.49,5.67,89.46,9.36,87,14.43ZM91.58,4.34A32.87,32.87,0,0,0,77.27,15.6c-3.42.53-6.78,1.19-10,2A46,46,0,0,1,91.58,4.34ZM66.29,18.56c3.33-.82,6.8-1.52,10.33-2.09a50.65,50.65,0,0,0-6.71,13.4c-4.22.54-8.27,1.2-12.08,2A46.16,46.16,0,0,1,66.29,18.56Zm64.09,49.92c0,.06,0,.13-.06.18l-1.92.22ZM95.14,74.24q5.33-.67,10.63-1.46c-.37,4.51-.85,8.47-1.38,11.78-2.62.07-5.37.07-8,0C95.92,81.62,95.5,78.14,95.14,74.24Zm.46,10.29c-2.74-.08-5.5-.23-8.21-.46a55.78,55.78,0,0,1-3.19-8.58q5.08-.52,10.18-1.16C94.71,78.06,95.12,81.52,95.6,84.53Zm11-11.86c3.75-.57,7.5-1.17,11.21-1.81a62.76,62.76,0,0,1-4.36,13.21c-2.71.23-5.47.38-8.21.46C105.74,81.07,106.2,77,106.55,72.67Zm12-2,1.55-.28c3.4-.26,6.75-.59,10-1a49.36,49.36,0,0,1-6.95,13.47c-2.92.45-5.92.81-8.92,1.08A63.3,63.3,0,0,0,118.53,70.72ZM83,70.62c3.6.25,7.34.43,11.14.52v.08c-3.58.48-7.17.91-10.72,1.28C83.26,71.88,83.11,71.26,83,70.62Zm-5.31,5.49q2.89-.26,5.81-.55A57.49,57.49,0,0,0,86.59,84c-3-.27-6-.63-8.92-1.08a45.82,45.82,0,0,1-4-6.48Zm-14.26,1c3.09-.17,6.25-.37,9.46-.62a46.25,46.25,0,0,0,3.75,6.24c-3.58-.57-7.05-1.28-10.33-2.09C65.26,79.53,64.32,78.35,63.41,77.13Zm3.83,4.52c3.21.77,6.57,1.43,10,2A32.87,32.87,0,0,0,91.58,94.88,46,46,0,0,1,67.24,81.65ZM78.3,83.77c2.85.42,5.75.77,8.67,1,2.49,5.07,5.52,8.76,8.87,10.54C89.14,94,83.08,89.87,78.3,83.77Zm9.47,1.08c2.63.21,5.3.36,8,.44.85,5,1.92,8.74,3.21,10.35C94.7,94.9,90.83,91,87.77,84.85Zm12.89,10.88h-.53c-1.25-.47-2.54-4.21-3.6-10.42,1.27,0,2.57.06,3.86.06s2.6,0,3.87-.06C103.2,91.52,101.91,95.26,100.66,95.73Zm4.4-10.44c2.66-.08,5.33-.23,8-.44C110,91,106.09,94.9,101.85,95.64,103.13,94,104.21,90.32,105.06,85.29Zm8.76-.5c2.91-.25,5.82-.6,8.67-1C117.71,89.87,111.65,94,105,95.33,108.3,93.55,111.33,89.86,113.82,84.79Zm-4.61,10.09a32.87,32.87,0,0,0,14.31-11.26c3.44-.53,6.8-1.2,10-2A46,46,0,0,1,109.21,94.88Zm25.3-14.23c-3.32.83-6.79,1.53-10.34,2.1a50.5,50.5,0,0,0,6.71-13.4c4.24-.54,8.29-1.21,12.08-2A46,46,0,0,1,134.51,80.65Zm8.78-14.09c-3.8.77-7.88,1.44-12.15,2a2.17,2.17,0,0,0,.07-.24q6.34-1.3,12.43-2.74C143.52,65.91,143.42,66.24,143.29,66.56Z"/><path class="cls-2" d="M196.74,45.82a26.29,26.29,0,0,0,2.76-2.34,13.43,13.43,0,0,0,2.23-2.88l-3.12-2.88-2.94,8.1Z"/><path class="cls-2" d="M285.55,64.25h1.6c.33-.17.66-.34,1-.49A14.14,14.14,0,0,1,294,62.29h14.79l.48-.22.07,0,.13-.06.49-.23H283.62a2,2,0,0,0,.18,1.47A2,2,0,0,0,285.55,64.25Z"/><path class="cls-2" d="M332,16.07a2.48,2.48,0,0,1-1.62.6H309.48a2.55,2.55,0,0,0-1.26.36,6.27,6.27,0,0,0-1.57,1.29,12.89,12.89,0,0,0-1.51,2.11,15,15,0,0,0-1.08,2.32,9.12,9.12,0,0,0-.51,2.51,5.59,5.59,0,0,0,.55,2.24,11.36,11.36,0,0,0,.62,1.2,5.66,5.66,0,0,1,.34-.62c.2-.32.49-.75.88-1.32.64-.91,1.39-1.92,2.29-3.08.26-.34.54-.68.81-1A12.76,12.76,0,0,1,310.27,21a8,8,0,0,1,.73-.7,20.19,20.19,0,0,1,2.88-2.86,2.5,2.5,0,0,1,1.55-.54H334.7a2.53,2.53,0,0,1,1.94.94,54.28,54.28,0,0,0,4.41-4.44c1.59-1.81,3.19-3.76,4.74-5.8a1.93,1.93,0,0,0,.46-1.26,2,2,0,0,0-2-2h-1.72a2.49,2.49,0,0,1-.35.58c-.14.19-.29.38-.44.56l-.31.39c-1.44,1.85-2.75,3.44-4,4.86A55.06,55.06,0,0,1,332,16.07Z"/><path class="cls-2" d="M308.53,32.33l0,0v0Z"/><polygon class="cls-2" points="364.23 32.64 367.06 28.83 366.7 26.38 366.13 22.56 358.61 32.64 362.36 32.64 364.23 32.64"/><path class="cls-2" d="M330.26,64.7a33.47,33.47,0,0,1-3.67,4A45.43,45.43,0,0,1,321.16,73a35.84,35.84,0,0,1-6.06,3.33,17.68,17.68,0,0,1-4.62,1.3h11a36.26,36.26,0,0,0,3.39-2,44.6,44.6,0,0,0,5.38-4.29c.58-.54,1.11-1.07,1.62-1.6-.11-.18-.23-.36-.32-.54a3.3,3.3,0,0,1-.17-.37A11,11,0,0,1,330.26,64.7Z"/><path class="cls-2" d="M340.57,23.1a2,2,0,0,0-1.87-2.71H337l-.34.89L329.27,40.8l4-5.07,4.94-6.32Z"/><path class="cls-2" d="M369.05,43.14c-.78,1-1.56,1.86-2.32,2.68h2.93L369.14,43Z"/><path class="cls-2" d="M332.05,48.4l.23.31a9.68,9.68,0,0,1,1.48,4.18l.29-.79.76-2.06.6-1.64h-3.36Z"/><path class="cls-2" d="M378.47,71a15.42,15.42,0,0,0-3.56-3.56l-.45-.27c.14.18.28.35.42.54a17.84,17.84,0,0,1,2.39,4.68,15.29,15.29,0,0,1,.85,4.73v.32A14.42,14.42,0,0,1,377,82.8a20.78,20.78,0,0,1-2.88,5,17.28,17.28,0,0,1-4.22,3.89,10.14,10.14,0,0,1-5.58,1.73H325.4a2,2,0,0,0,.22,1.55,2,2,0,0,0,1.7,1h41a9.66,9.66,0,0,0,5.3-1.65,16.72,16.72,0,0,0,4.11-3.78,20.45,20.45,0,0,0,2.81-4.86,14,14,0,0,0,1.11-5.21v-.32a14.58,14.58,0,0,0-.83-4.57A16.86,16.86,0,0,0,378.47,71Z"/><path class="cls-2" d="M322.93,86.89c.64-.91,1.36-1.89,2.2-3l.19-.25.33-.42.21-.27.13-.17c.41-.52.8-1,1.18-1.47a2,2,0,0,0-.81-.18h-1.72a2.3,2.3,0,0,1-.35.59l-.74,1c-1,1.24-1.84,2.33-2.6,3.24q-1.41,1.7-3,3.55a40.53,40.53,0,0,1-3,3.26,2.51,2.51,0,0,1-1.71.68H276.65a7.9,7.9,0,0,1-1.21-.1c.06.09.11.2.18.29a5.87,5.87,0,0,0,5,2.31H317.2a2,2,0,0,0,1.37-.54,37.92,37.92,0,0,0,2.78-3c-.05-.06-.11-.12-.16-.19a2.5,2.5,0,0,1-.1-2.43A24.23,24.23,0,0,1,322.93,86.89Z"/><path class="cls-2" d="M392.49,48.6l-5.3-34.47,0-.18c-.17-.64-.37-1.44-.61-2.38a27.13,27.13,0,0,0-.91-2.89A10.25,10.25,0,0,0,384.19,6a3.92,3.92,0,0,0-2.59-1.63c.18.37.36.74.51,1.14A29.64,29.64,0,0,1,383,8.44c.25,1,.45,1.74.61,2.39,0,.08,0,.15.05.23L389,45.52a2.51,2.51,0,0,1-.37,1.71,2.5,2.5,0,0,1,.26,1.09,2.54,2.54,0,0,1-.48,1.48,59.54,59.54,0,0,1-4.35,5.62c-1.63,1.88-3.46,3.78-5.43,5.64a2.5,2.5,0,0,1-1.72.69H351.11L351,62l.36.28H365.9a9,9,0,0,1,4.75,1.37l.08,0a4.43,4.43,0,0,1,.46.29,4.19,4.19,0,0,1,.33.26h9.38a2,2,0,0,0,1.38-.55c2-1.85,3.77-3.74,5.39-5.61A60,60,0,0,0,392,52.51a2,2,0,0,0,.39-1.19A2,2,0,0,0,392,50.2,2,2,0,0,0,392.49,48.6Z"/><path class="cls-2" d="M174.54,64.25h1.59c.33-.17.67-.34,1-.49A14.18,14.18,0,0,1,183,62.29h14.79l.47-.22.07,0,.13-.06.49-.23H172.61a1.94,1.94,0,0,0,.18,1.47A2,2,0,0,0,174.54,64.25Z"/><path class="cls-2" d="M250.53,19.17l.31-.86.6-1.64h-9.55a2,2,0,0,0-.06.42v.08a2,2,0,0,0,2,2Z"/><path class="cls-2" d="M283.66,14.73c-1.49,1.36-2.61,1.94-3.74,1.94h-7.73l-5.81,15.89H271l4.89-13.39h8.08a2.81,2.81,0,0,0,1-.19c.17-.5.35-1,.56-1.5a29.77,29.77,0,0,1,1.66-3.37,31,31,0,0,1,3.33-4.78,29.27,29.27,0,0,1,2.16-2.23,27.83,27.83,0,0,1,2.46-2,2,2,0,0,0-1.53-.72h-1.72a.49.49,0,0,0,0,.11,12,12,0,0,1-.69,1.2c-.4.65-.86,1.34-1.42,2.1-.92,1.25-1.9,2.49-2.92,3.7A33.38,33.38,0,0,1,283.66,14.73Z"/><path class="cls-2" d="M283.74,39a2,2,0,0,0,.25-1,2,2,0,0,0-2-2h-1.73s0,.08,0,.11c-.17.35-.39.73-.68,1.2-.41.65-.87,1.34-1.43,2.09-.9,1.24-1.89,2.49-2.91,3.71a37.22,37.22,0,0,1-3.12,3.29c-1.49,1.36-2.61,1.94-3.74,1.94h-.65a17.74,17.74,0,0,1,2.38,1.36,14.54,14.54,0,0,1,1.45,1.14h.82c1,0,2-.54,3.4-1.81a33.52,33.52,0,0,0,3.07-3.24q1.55-1.83,2.9-3.68A26,26,0,0,0,283.74,39Z"/><path class="cls-2" d="M215.58,68.66A45.81,45.81,0,0,1,210.14,73a35.46,35.46,0,0,1-6.06,3.33,17.51,17.51,0,0,1-4.61,1.3h11a35.15,35.15,0,0,0,3.4-2c.87-.59,1.71-1.21,2.52-1.85,0-.13,0-.25,0-.38.06-.72.14-1.49.25-2.28a.13.13,0,0,0,0-.06,22.84,22.84,0,0,1,1.25-4.71C217.21,67.08,216.43,67.87,215.58,68.66Z"/><polygon class="cls-2" points="191.11 45.82 194.76 45.82 195.67 45.82 198.6 37.72 195.19 34.57 191.11 45.82"/><path class="cls-2" d="M266.52,85.08a33.93,33.93,0,0,1-8.72,6,24.16,24.16,0,0,1-10.39,2.37h-8a46.38,46.38,0,0,1-8.67-.77A23.32,23.32,0,0,1,226,91.18a13.34,13.34,0,0,0,1.65,1.23,20.66,20.66,0,0,0,7.2,2.73,46.08,46.08,0,0,0,8.57.76h8a23.66,23.66,0,0,0,10.18-2.32A33.56,33.56,0,0,0,269.92,88a9.73,9.73,0,0,1-.27-2.19.76.76,0,0,1,0-.15,15,15,0,0,1,.94-5c0-.11.09-.21.12-.31A36.65,36.65,0,0,1,266.52,85.08Z"/><path class="cls-2" d="M276.23,68.2a22.52,22.52,0,0,1-1.77,5.92,33.44,33.44,0,0,1,2.66-2.72,5.3,5.3,0,0,1,.43-.38l.22-.19c.75-.68,1.5-1.32,2.24-1.92,0,0,0-.09,0-.14a20.82,20.82,0,0,0,.13-2.35,17.34,17.34,0,0,0-1.66-7.8,14.34,14.34,0,0,0-4.7-5.45l-.46-.29A15.21,15.21,0,0,1,275,55.4a17.74,17.74,0,0,1,1.71,8,21.88,21.88,0,0,1-.13,2.41C276.44,66.57,276.35,67.35,276.23,68.2Z"/><path class="cls-2" d="M233.44,48.71l.26-.15.29-.16H221c.08.11.17.21.23.31a10.18,10.18,0,0,1,1.58,5.72,16.29,16.29,0,0,1-.54,4c.68-.91,1.41-1.81,2.19-2.67.52-.57,1-1.05,1.42-1.49A9,9,0,0,0,224.85,52a6.08,6.08,0,0,0-.94-1.09H230A35.41,35.41,0,0,1,233.44,48.71Z"/><path class="cls-2" d="M235.27,11.19a26.29,26.29,0,0,1,.4,4.43,13.32,13.32,0,0,1-2.52,8.25,17.27,17.27,0,0,1-5.86,4.93,26.61,26.61,0,0,1-7.36,2.49c-.67.12-1.34.24-2,.34l10,10.27.17-.21-7.22-7.4c1-.14,2-.31,3-.49a25.62,25.62,0,0,0,7.22-2.45,16.58,16.58,0,0,0,5.69-4.78,12.81,12.81,0,0,0,2.42-7.95c0-.67,0-1.36-.1-2.08a2.51,2.51,0,0,1-1.74-2.37v-.08a2.55,2.55,0,0,1,.08-.61,4.69,4.69,0,0,1,.79-1.55,14.64,14.64,0,0,0-.94-2.27,10.56,10.56,0,0,0-3.32-3.77,7.32,7.32,0,0,0-.86-.49,11.71,11.71,0,0,1,.62,1A15.87,15.87,0,0,1,235.27,11.19Z"/><path class="cls-2" d="M255.42,62.84a2.59,2.59,0,0,0-1-.82,5.13,5.13,0,0,0-2.17-.35h-6.51a4.27,4.27,0,0,0-1.72.45,12.15,12.15,0,0,0-2.44,1.51,18.19,18.19,0,0,0-2.36,2.21A12.81,12.81,0,0,0,237.62,68c-.24.58-.45,1.12-.65,1.63a3.9,3.9,0,0,0-.25.9,2,2,0,0,1-.06.32v.42a6.62,6.62,0,0,0,.41,2.17,8.39,8.39,0,0,0,1.18,2.19,5.9,5.9,0,0,0,1.57,1.47,2.7,2.7,0,0,0,1.18.41c-.14-.3-.28-.59-.4-.91a7,7,0,0,1-.44-2.33v-.49h0a1.65,1.65,0,0,0,.06-.32,4.2,4.2,0,0,1,.29-1c.2-.52.42-1.07.66-1.66a12.25,12.25,0,0,1,1.66-2.31,17.84,17.84,0,0,1,2.42-2.27,12.68,12.68,0,0,1,2.54-1.57,4.6,4.6,0,0,1,1.93-.5H256v0A3.07,3.07,0,0,0,255.42,62.84Z"/><path class="cls-2" d="M215.35,81.13h-1.73a2.13,2.13,0,0,1-.3.53c-.27.35-.53.69-.79,1-1,1.25-1.85,2.34-2.6,3.24C209,87,208,88.22,207,89.46a42.42,42.42,0,0,1-3,3.26,2.53,2.53,0,0,1-1.71.68H165.64a8,8,0,0,1-1.22-.1c.06.09.12.2.19.29a5.85,5.85,0,0,0,5,2.31h36.55a2,2,0,0,0,1.37-.55,41.14,41.14,0,0,0,3-3.21q1.58-1.86,3-3.55c.95-1.15,2.08-2.55,3.33-4.18a2,2,0,0,0-1.53-3.28Z"/><path class="cls-2" d="M205.25,17H215a1.87,1.87,0,0,0,.12-.38H201.74l-.21.57a2.56,2.56,0,0,1,.95-.19Z"/><path class="cls-2" d="M173,45.9h6.43a2.25,2.25,0,0,1,.58-.08h8.44l5.28-14.54.88-.64,8,7.39,8.45,7.79h4.45a8.45,8.45,0,0,1,1.16.08h9.09v-.08a2.59,2.59,0,0,1,.09-.68,4.44,4.44,0,0,1,.58-1.19L212.6,29.75a62.15,62.15,0,0,0,6.87-.92,23.52,23.52,0,0,0,6.67-2.25,14.67,14.67,0,0,0,5-4.22,10.82,10.82,0,0,0,2-6.74,24.64,24.64,0,0,0-.36-4,13.49,13.49,0,0,0-1.33-4,8.39,8.39,0,0,0-2.69-3,4,4,0,0,0-.35-.2,7.84,7.84,0,0,0-4.11-1H188.5l-8.37,23-2.3,6.31Zm27-31.81h16.15c.64,0,1,.15,1.2.44a2.28,2.28,0,0,1,.24,1.09v.88a4.47,4.47,0,0,1-.52,1.89,2,2,0,0,1-.56.7,1.89,1.89,0,0,1-1.17.38H202.48l-7.07,7.15Z"/><path class="cls-2" d="M255,14.17l-1.83,5-5.8,15.89h-9.64a15.45,15.45,0,0,0-2.69,2.37q-1.58,1.64-3.06,3.41c-.81,1-1.5,1.83-2.13,2.65-.14.19-.3.39-.44.56a8.51,8.51,0,0,0-1.16,1.77h0v.08h14c.55,0,1.09-.08,1.64-.08h10.6c.86,0,1.7,0,2.53.08h11.34c.43,0,1.11-.43,2-1.29a30.82,30.82,0,0,0,2.89-3c1-1.17,1.93-2.37,2.81-3.57.54-.73,1-1.37,1.32-1.93.23-.37.42-.71.57-1H262.81l7.63-20.89h9.48c.43,0,1.11-.43,2.05-1.29a32,32,0,0,0,2.89-3.05q1.49-1.77,2.81-3.57c.54-.73,1-1.37,1.32-1.93.22-.37.42-.71.57-1H249.31a15.82,15.82,0,0,0-2.69,2.37q-1.56,1.63-3.05,3.41c-1,1.18-1.85,2.25-2.57,3.21a10,10,0,0,0-1.17,1.77v.08H255Z"/><path class="cls-2" d="M292.37,11a27.27,27.27,0,0,0-3.05,4.38,26.88,26.88,0,0,0-1.53,3.09,20.88,20.88,0,0,0-1.68,8,18.24,18.24,0,0,0,2.28,9.56c.34.55.71,1.07,1.1,1.58a16.91,16.91,0,0,0,5,4.4A26.09,26.09,0,0,0,303,45a52.56,52.56,0,0,0,6.91.8h14.81l9.63-25.43.38-1H315.43a17.62,17.62,0,0,0-2.53,2.53c-.94,1.1-1.84,2.2-2.7,3.29s-1.59,2.09-2.2,3c-.38.54-.64.93-.81,1.2a3.22,3.22,0,0,0-.2.36v.08h9.08l-1.77,5-.08.23h-4.74a5.4,5.4,0,0,1-2.93-1,13.13,13.13,0,0,1-4.74-5.58,8.05,8.05,0,0,1-.76-3.25,12,12,0,0,1,.64-3.3A17.45,17.45,0,0,1,303,19.19a15,15,0,0,1,1.81-2.53A8.92,8.92,0,0,1,307,14.85a5,5,0,0,1,2.49-.68h20.89a53.16,53.16,0,0,0,5.18-5.1c1.31-1.49,2.61-3.09,3.91-4.74.26-.34.53-.66.79-1H307.07a16.15,16.15,0,0,0-8,2.12,24.24,24.24,0,0,0-4.7,3.48A23.69,23.69,0,0,0,292.37,11Z"/><path class="cls-2" d="M329.08,45.1v.24h0a5.51,5.51,0,0,0-.16.57h8.59a2.33,2.33,0,0,1,.59-.08H363a8.17,8.17,0,0,0,1.63-1.45c.8-.85,1.62-1.79,2.45-2.81s1.58-2,2.25-2.89a9.17,9.17,0,0,0,1.16-1.85l1.67,9h14.31l-5.3-34.39-.6-2.37a25.67,25.67,0,0,0-.84-2.69,8.24,8.24,0,0,0-1.09-2,1.25,1.25,0,0,0-.08-.12,1.89,1.89,0,0,0-1.48-.88h-13.5a2.63,2.63,0,0,0-1.4.6,20.14,20.14,0,0,0-1.69,1.36c-.56.51-1.08,1-1.57,1.57a6.7,6.7,0,0,0-1,1.28L335.21,37.27Zm25.14-10.77,13.5-18.07L369.17,26l1.36,9.13H354.22Z"/><path class="cls-2" d="M202.19,90.9A39.5,39.5,0,0,0,205,87.84l3-3.53c.74-.89,1.6-2,2.55-3.18.26-.32.52-.65.78-1H178.81c-.59,0-.88-.18-.88-.56l1.52-2.65a6.57,6.57,0,0,1,1.13-1.17,2.07,2.07,0,0,1,1.28-.52h16.07a13.52,13.52,0,0,0,5.18-1.2,32.53,32.53,0,0,0,5.62-3.1,42.33,42.33,0,0,0,5.14-4.09,28.94,28.94,0,0,0,3.82-4.22,14.93,14.93,0,0,0,2-4,13.82,13.82,0,0,0,.68-4.21,7.76,7.76,0,0,0-1.16-4.34,4.07,4.07,0,0,0-3.66-1.77H180c-.75.75-1.55,1.57-2.4,2.45l-.05,0-.08.08c-.82.85-1.64,1.72-2.49,2.64s-1.71,1.94-2.49,2.94c-.31.4-.59.78-.86,1.16-.41.55-.79,1.1-1.1,1.61h32q.72,0,.72,1a3,3,0,0,1-.8,2.17l-.32.4c0,.06-.17.18-.49.36s-.59.34-.8.44-.78.42-1.31.67l-.22.1a9.27,9.27,0,0,1-1,.44H183A12,12,0,0,0,178.17,66a33,33,0,0,0-5.38,3.14,50.65,50.65,0,0,0-5,4,29,29,0,0,0-3.61,3.94,18.89,18.89,0,0,0-2.25,4.34,12.56,12.56,0,0,0-.8,4.26,6,6,0,0,0,1.08,3.65,3.2,3.2,0,0,0,1.06.91,4.58,4.58,0,0,0,2.36.58Z"/><path class="cls-2" d="M274,65.55a19.28,19.28,0,0,0,.12-2.13,15.31,15.31,0,0,0-1.44-6.9,12.33,12.33,0,0,0-4.06-4.7,17.89,17.89,0,0,0-6.23-2.65,34.55,34.55,0,0,0-8-.85h-10.6a18.43,18.43,0,0,0-8.44,2.13c-.27.14-.53.3-.8.45A31.35,31.35,0,0,0,227.81,56c-.51.5-1,1-1.47,1.54A34,34,0,0,0,222,63.42a22.68,22.68,0,0,0-2.89,8h0q-.15,1.13-.24,2.16c0,.69-.08,1.36-.08,2A16,16,0,0,0,220.38,83a12.86,12.86,0,0,0,1.46,2.17,11.83,11.83,0,0,0,2.84,2.53,18.41,18.41,0,0,0,6.5,2.45,43,43,0,0,0,8.2.73h8a21.52,21.52,0,0,0,9.32-2.13,30.94,30.94,0,0,0,8.07-5.51,33.34,33.34,0,0,0,6-7.47,22.24,22.24,0,0,0,3-8C273.87,67,274,66.28,274,65.55Zm-15.42,2.09c0,.46-.07.9-.12,1.33h0a5.24,5.24,0,0,0-.16.73l-.33.8a6.43,6.43,0,0,1-.88,1.77A11.57,11.57,0,0,1,255,75a22.85,22.85,0,0,1-3,2.53A18,18,0,0,1,249,79.37a6.29,6.29,0,0,1-2.45.68h-5.3a5.13,5.13,0,0,1-2.74-.8,8.36,8.36,0,0,1-2.24-2.09,10.57,10.57,0,0,1-1.53-2.85,8.8,8.8,0,0,1-.56-3v-.49c0-.32,0-.5.08-.56a6,6,0,0,1,.4-1.48c.21-.57.45-1.17.72-1.81a14.09,14.09,0,0,1,2-2.77A20,20,0,0,1,240,61.66,14.91,14.91,0,0,1,243,59.85a6.61,6.61,0,0,1,2.77-.68h6.51a7.59,7.59,0,0,1,3.26.6,5.13,5.13,0,0,1,2,1.61,5.52,5.52,0,0,1,1,2.29c.05.29.08.58.12.87a13.88,13.88,0,0,1,.12,1.7C258.66,66.72,258.64,67.19,258.62,67.64Z"/><path class="cls-2" d="M313.2,90.9a35.93,35.93,0,0,0,2.85-3.06q1.57-1.84,3-3.53c.74-.89,1.6-2,2.56-3.18l.78-1H289.83c-.59,0-.89-.18-.89-.56l1.53-2.65a6.51,6.51,0,0,1,1.12-1.17,2.09,2.09,0,0,1,1.29-.52h16.06a13.56,13.56,0,0,0,5.19-1.2,32.9,32.9,0,0,0,5.62-3.1,42.33,42.33,0,0,0,5.14-4.09,28.82,28.82,0,0,0,3.81-4.22,14.64,14.64,0,0,0,2-4,13.54,13.54,0,0,0,.69-4.21,7.68,7.68,0,0,0-1.17-4.34,4.06,4.06,0,0,0-3.65-1.77H291c-.75.75-1.55,1.57-2.41,2.45s-1.73,1.81-2.61,2.77-1.72,1.94-2.49,2.94a32,32,0,0,0-2,2.77h32c.49,0,.73.32.73,1a2.93,2.93,0,0,1-.81,2.17l-.32.4q0,.09-.48.36c-.32.19-.59.34-.8.44s-.78.42-1.32.67l-.21.1a9.27,9.27,0,0,1-1,.44H294A12,12,0,0,0,289.18,66a33.4,33.4,0,0,0-5.38,3.14,50,50,0,0,0-4.36,3.52l-.62.53a28.33,28.33,0,0,0-3.61,3.94A18.13,18.13,0,0,0,273,81.5a12.39,12.39,0,0,0-.8,4.19s0,0,0,.07a6,6,0,0,0,1.09,3.65,3.28,3.28,0,0,0,1.05.91,4.61,4.61,0,0,0,2.36.58Z"/><path class="cls-2" d="M364.29,90.9a7.71,7.71,0,0,0,4.22-1.33,14.59,14.59,0,0,0,3.61-3.33,18,18,0,0,0,2.53-4.38,11.75,11.75,0,0,0,1-4.46v-.32a12.4,12.4,0,0,0-.73-3.94,15,15,0,0,0-2-4,13.41,13.41,0,0,0-3.1-3.1c-.13-.09-.27-.16-.4-.24a6.56,6.56,0,0,0-3.45-1H350.63a3.4,3.4,0,0,1-.68-.44,7.81,7.81,0,0,1-.92-.77l-.48-.44q-.33-.27-.33-.36v-.4l1.13-3.13H376.9a74.06,74.06,0,0,0,5.26-5.47,57.34,57.34,0,0,0,4.22-5.46H338.1l-.94,2.58L336.4,53l-3.52,9.57c-.05.27-.09.52-.12.76a6.29,6.29,0,0,0,0,.77,8.29,8.29,0,0,0,.91,3.63c.05.1.08.2.13.3a15.41,15.41,0,0,0,1.59,2.43,14.39,14.39,0,0,0,1,1.19,13.89,13.89,0,0,0,3.45,2.61,7.63,7.63,0,0,0,3.57,1h16.07a.89.89,0,0,1,.88.52,2.64,2.64,0,0,1,.24,1.17,4.62,4.62,0,0,1-1.6,3.21H331.68c-.16,0-.65.47-1.45,1.41s-1.47,1.76-2.27,2.79l-.34.42-.5.66c-.75,1-1.47,2-2.15,2.92a22.79,22.79,0,0,0-1.65,2.57h41Z"/></g></g></svg>